{
.appVersion = "1218";
copyright = "Copyright 2018 Google Inc. All Rights Reserved.";
customParameters = (
{
name = glyphOrder;
value = (
.notdef,
NULL,
CR,
space,
uni00A0,
uni0964,
uni0965,
uni25CC,
uni200C,
uni200D,
anji_tirh,
a_tirh,
aa_tirh,
i_tirh,
ii_tirh,
u_tirh,
uu_tirh,
rVocalic_tirh,
rrVocalic_tirh,
lVocalic_tirh,
llVocalic_tirh,
e_tirh,
ai_tirh,
o_tirh,
au_tirh,
ka_tirh,
kha_tirh,
ga_tirh,
gha_tirh,
nga_tirh,
ca_tirh,
cha_tirh,
ja_tirh,
jha_tirh,
nya_tirh,
tta_tirh,
ttha_tirh,
dda_tirh,
ddha_tirh,
nna_tirh,
ta_tirh,
tha_tirh,
da_tirh,
dha_tirh,
na_tirh,
pa_tirh,
pha_tirh,
ba_tirh,
bha_tirh,
ma_tirh,
ya_tirh,
ra_tirh,
la_tirh,
va_tirh,
sha_tirh,
ssa_tirh,
sa_tirh,
ha_tirh,
aaMatra_tirh,
iMatra_tirh,
iiMatra_tirh,
uMatra_tirh,
uuMatra_tirh,
rVocalicMatra_tirh,
rrVocalicMatra_tirh,
lVocalicMatra_tirh,
llVocalicMatra_tirh,
eMatra_tirh,
shortEMatra_tirh,
aiMatra_tirh,
oMatra_tirh,
shortOMatra_tirh,
auMatra_tirh,
candrabindu_tirh,
anusvara_tirh,
visarga_tirh,
virama_tirh,
nukta_tirh,
avagraha_tirh,
gvang_tirh,
abbreviationSign_tirh,
om_tirh,
zero_tirh,
one_tirh,
two_tirh,
three_tirh,
four_tirh,
five_tirh,
six_tirh,
seven_tirh,
eight_tirh,
nine_tirh,
Gu,
Ju,
Nnu,
Du,
Nu.tirh,
Pu,
Mu.tirh,
Lu,
Shu,
Su,
Ku,
Tu,
Tuu,
Dhu,
Bhu,
Yu,
Ru,
Ssu,
Hu,
Kuu,
Dhuu,
Ruu,
Huu,
Kr,
Tr,
Br,
Bhr,
Hr,
KhaNa,
PhaNa,
SaNa,
BaDa,
MaBa,
TaYa,
DaYa,
NaYa,
BhaYa,
ShaYa,
SaYa,
HaYa,
Ya.post,
RaGa,
Repha,
KaLa,
PhaLa,
ShaLa,
Va.sub,
Ta.fina,
Ma.fina,
TaVirama.alt,
KaTa,
KaRa,
KaSsa,
GaGa,
GaDha,
NgaKa,
NgaKha,
NgaGa,
NgaGha,
CaCa,
CaCha,
JaNya,
NyaCa,
NyaCha,
TtaTta,
TtaTtha,
NnaTta,
NnaTtha,
NnaDda,
NnaDdha,
TaTa,
TaVa,
DaDha,
NaDha,
NaHa,
BaDha,
ShaCha,
SsaTta,
SsaTtha,
SsaNna,
HaNna,
HaNa,
HaMa,
HaRa,
HaLa,
HaVa,
TaRa,
letterVocR.alt,
letterVocRR.alt,
Ra.alt1,
Ra.alt2,
Ru.alt1,
Ru.alt2,
Ruu.alt1,
Ruu.alt2,
uniA830,
uniA831,
uniA832,
uniA833,
uniA834,
uniA835,
uniA836,
uniA837,
uniA838,
uniA839,
uni09F4,
uni09F5,
uni09F6,
uni09F7,
uni1CF2,
Ta.init,
NullMark,
BaDa.part,
BaDha.part,

glyphs = (
{
glyphname = .notdef;
lastChange = "2019-04-04 16:11:36 +0000";
layers = (
{
layerId = UUID0;
paths = (
{
closed = 1;
nodes = (
"505 0 LINE",
"505 714 LINE",
"94 714 LINE",
"94 0 LINE"
);
},
{
closed = 1;
nodes = (
"145 663 LINE",
"454 663 LINE",
"454 51 LINE",
"145 51 LINE"
);
}
);
width = 600;
}
);
},
{
glyphname = uni0964;
lastChange = "2019-04-04 16:11:36 +0000";
layers = (
{
layerId = UUID0;
paths = (
{
closed = 1;
nodes = (
"205 625 LINE",
"120 645 LINE",
"120 0 LINE",
"205 -20 LINE"
);
}
);
width = 325;
}
);
unicode = 0964;
category = Letter;
},
{
glyphname = uni0965;
lastChange = "2019-04-04 16:11:36 +0000";
layers = (
{
layerId = UUID0;
paths = (
{
closed = 1;
nodes = (
"365 625 LINE",
"280 645 LINE",
"280 0 LINE",
"365 -20 LINE"
);
},
{
closed = 1;
nodes = (
"205 625 LINE",
"120 645 LINE",
"120 0 LINE",
"205 -20 LINE"
);
}
);
width = 485;
}
);
unicode = 0965;
category = Letter;
},
{
glyphname = uni25CC;
lastChange = "2019-04-04 16:13:12 +0000";
layers = (
{
layerId = UUID0;
paths = (
{
closed = 1;
nodes = (
"469 423 OFFCURVE",
"481 435 OFFCURVE",
"481 449 CURVE SMOOTH",
"481 463 OFFCURVE",
"469 475 OFFCURVE",
"455 475 CURVE SMOOTH",
"441 475 OFFCURVE",
"429 463 OFFCURVE",
"429 449 CURVE SMOOTH",
"429 435 OFFCURVE",
"441 423 OFFCURVE",
"455 423 CURVE SMOOTH"
);
},
{
closed = 1;
nodes = (
"153 107 OFFCURVE",
"165 119 OFFCURVE",
"165 133 CURVE SMOOTH",
"165 147 OFFCURVE",
"153 159 OFFCURVE",
"139 159 CURVE SMOOTH",
"125 159 OFFCURVE",
"113 147 OFFCURVE",
"113 133 CURVE SMOOTH",
"113 119 OFFCURVE",
"125 107 OFFCURVE",
"139 107 CURVE SMOOTH"
);
},
{
closed = 1;
nodes = (
"227 60 OFFCURVE",
"239 72 OFFCURVE",
"239 86 CURVE SMOOTH",
"239 100 OFFCURVE",
"227 112 OFFCURVE",
"213 112 CURVE SMOOTH",
"199 112 OFFCURVE",
"187 100 OFFCURVE",
"187 86 CURVE SMOOTH",
"187 72 OFFCURVE",
"199 60 OFFCURVE",
"213 60 CURVE SMOOTH"
);
},
{
closed = 1;
nodes = (
"106 181 OFFCURVE",
"118 193 OFFCURVE",
"118 207 CURVE SMOOTH",
"118 221 OFFCURVE",
"106 233 OFFCURVE",
"92 233 CURVE SMOOTH",
"78 233 OFFCURVE",
"66 221 OFFCURVE",
"66 207 CURVE SMOOTH",
"66 193 OFFCURVE",
"78 181 OFFCURVE",
"92 181 CURVE SMOOTH"
);
},
{
closed = 1;
nodes = (
"311 42 OFFCURVE",
"323 54 OFFCURVE",
"323 68 CURVE SMOOTH",
"323 82 OFFCURVE",
"311 94 OFFCURVE",
"297 94 CURVE SMOOTH",
"283 94 OFFCURVE",
"271 82 OFFCURVE",
"271 68 CURVE SMOOTH",
"271 54 OFFCURVE",
"283 42 OFFCURVE",
"297 42 CURVE SMOOTH"
);
},
{
closed = 1;
nodes = (
"88 265 OFFCURVE",
"100 277 OFFCURVE",
"100 291 CURVE SMOOTH",
"100 305 OFFCURVE",
"88 317 OFFCURVE",
"74 317 CURVE SMOOTH",
"60 317 OFFCURVE",
"48 305 OFFCURVE",
"48 291 CURVE SMOOTH",
"48 277 OFFCURVE",
"60 265 OFFCURVE",
"74 265 CURVE SMOOTH"
);
},
{
closed = 1;
nodes = (
"395 60 OFFCURVE",
"407 72 OFFCURVE",
"407 86 CURVE SMOOTH",
"407 100 OFFCURVE",
"395 112 OFFCURVE",
"381 112 CURVE SMOOTH",
"367 112 OFFCURVE",
"355 100 OFFCURVE",
"355 86 CURVE SMOOTH",
"355 72 OFFCURVE",
"367 60 OFFCURVE",
"381 60 CURVE SMOOTH"
);
},
{
closed = 1;
nodes = (
"106 349 OFFCURVE",
"118 361 OFFCURVE",
"118 375 CURVE SMOOTH",
"118 389 OFFCURVE",
"106 401 OFFCURVE",
"92 401 CURVE SMOOTH",
"78 401 OFFCURVE",
"66 389 OFFCURVE",
"66 375 CURVE SMOOTH",
"66 361 OFFCURVE",
"78 349 OFFCURVE",
"92 349 CURVE SMOOTH"
);
},
{
closed = 1;
nodes = (
"153 423 OFFCURVE",
"165 435 OFFCURVE",
"165 449 CURVE SMOOTH",
"165 463 OFFCURVE",
"153 475 OFFCURVE",
"139 475 CURVE SMOOTH",
"125 475 OFFCURVE",
"113 463 OFFCURVE",
"113 449 CURVE SMOOTH",
"113 435 OFFCURVE",
"125 423 OFFCURVE",
"139 423 CURVE SMOOTH"
);
},
{
closed = 1;
nodes = (
"469 107 OFFCURVE",
"481 119 OFFCURVE",
"481 133 CURVE SMOOTH",
"481 147 OFFCURVE",
"469 159 OFFCURVE",
"455 159 CURVE SMOOTH",
"441 159 OFFCURVE",
"429 147 OFFCURVE",
"429 133 CURVE SMOOTH",
"429 119 OFFCURVE",
"441 107 OFFCURVE",
"455 107 CURVE SMOOTH"
);
},
{
closed = 1;
nodes = (
"227 470 OFFCURVE",
"239 482 OFFCURVE",
"239 496 CURVE SMOOTH",
"239 510 OFFCURVE",
"227 522 OFFCURVE",
"213 522 CURVE SMOOTH",
"199 522 OFFCURVE",
"187 510 OFFCURVE",
"187 496 CURVE SMOOTH",
"187 482 OFFCURVE",
"199 470 OFFCURVE",
"213 470 CURVE SMOOTH"
);
},
{
closed = 1;
nodes = (
"516 181 OFFCURVE",
"528 193 OFFCURVE",
"528 207 CURVE SMOOTH",
"528 221 OFFCURVE",
"516 233 OFFCURVE",
"502 233 CURVE SMOOTH",
"488 233 OFFCURVE",
"476 221 OFFCURVE",
"476 207 CURVE SMOOTH",
"476 193 OFFCURVE",
"488 181 OFFCURVE",
"502 181 CURVE SMOOTH"
);
},
{
closed = 1;
nodes = (
"311 488 OFFCURVE",
"323 500 OFFCURVE",
"323 514 CURVE SMOOTH",
"323 528 OFFCURVE",
"311 540 OFFCURVE",
"297 540 CURVE SMOOTH",
"283 540 OFFCURVE",
"271 528 OFFCURVE",
"271 514 CURVE SMOOTH",
"271 500 OFFCURVE",
"283 488 OFFCURVE",
"297 488 CURVE SMOOTH"
);
},
{
closed = 1;
nodes = (
"534 265 OFFCURVE",
"546 277 OFFCURVE",
"546 291 CURVE SMOOTH",
"546 305 OFFCURVE",
"534 317 OFFCURVE",
"520 317 CURVE SMOOTH",
"506 317 OFFCURVE",
"494 305 OFFCURVE",
"494 291 CURVE SMOOTH",
"494 277 OFFCURVE",
"506 265 OFFCURVE",
"520 265 CURVE SMOOTH"
);
},
{
closed = 1;
nodes = (
"395 470 OFFCURVE",
"407 482 OFFCURVE",
"407 496 CURVE SMOOTH",
"407 510 OFFCURVE",
"395 522 OFFCURVE",
"381 522 CURVE SMOOTH",
"367 522 OFFCURVE",
"355 510 OFFCURVE",
"355 496 CURVE SMOOTH",
"355 482 OFFCURVE",
"367 470 OFFCURVE",
"381 470 CURVE SMOOTH"
);
},
{
closed = 1;
nodes = (
"516 349 OFFCURVE",
"528 361 OFFCURVE",
"528 375 CURVE SMOOTH",
"528 389 OFFCURVE",
"516 401 OFFCURVE",
"502 401 CURVE SMOOTH",
"488 401 OFFCURVE",
"476 389 OFFCURVE",
"476 375 CURVE SMOOTH",
"476 361 OFFCURVE",
"488 349 OFFCURVE",
"502 349 CURVE SMOOTH"
);
}
);
width = 594;
}
);
unicode = 25CC;
category = Letter;
},
{
glyphname = anji_tirh;
lastChange = "2019-04-04 16:11:36 +0000";
layers = (
{
layerId = UUID0;
paths = (
{
closed = 1;
nodes = (
"306 412 LINE",
"319 415 OFFCURVE",
"332 417 OFFCURVE",
"347 417 CURVE SMOOTH",
"415 417 OFFCURVE",
"441 391 OFFCURVE",
"441 346 CURVE SMOOTH",
"441 313 OFFCURVE",
"424 285 OFFCURVE",
"373 285 CURVE SMOOTH",
"364 285 OFFCURVE",
"355 285 OFFCURVE",
"347 286 CURVE",
"337 219 LINE",
"350 216 OFFCURVE",
"367 215 OFFCURVE",
"387 215 CURVE SMOOTH",
"452 215 OFFCURVE",
"521 249 OFFCURVE",
"521 351 CURVE SMOOTH",
"521 403 OFFCURVE",
"487 488 OFFCURVE",
"350 488 CURVE SMOOTH",
"345 488 OFFCURVE",
"340 488 OFFCURVE",
"335 487 CURVE",
"359 551 LINE SMOOTH",
"406 674 OFFCURVE",
"483 779 OFFCURVE",
"593 779 CURVE SMOOTH",
"661 779 OFFCURVE",
"687 753 OFFCURVE",
"687 708 CURVE SMOOTH",
"687 675 OFFCURVE",
"670 647 OFFCURVE",
"619 647 CURVE SMOOTH",
"610 647 OFFCURVE",
"601 647 OFFCURVE",
"593 648 CURVE",
"583 581 LINE",
"596 578 OFFCURVE",
"613 577 OFFCURVE",
"633 577 CURVE SMOOTH",
"698 577 OFFCURVE",
"767 611 OFFCURVE",
"767 713 CURVE SMOOTH",
"767 765 OFFCURVE",
"733 850 OFFCURVE",
"596 850 CURVE SMOOTH",
"455 850 OFFCURVE",
"352 752 OFFCURVE",
"277 554 CURVE SMOOTH",
"50 -47 LINE",
"125 -63 LINE"
);
}
);
width = 767;
}
);
unicode = 11480;
category = Letter;
},
{
glyphname = a_tirh;
lastChange = "2019-04-04 16:13:12 +0000";
layers = (
{
layerId = UUID0;
paths = (
{
closed = 1;
nodes = (
"657 0 LINE",
"657 551 LINE",
"742 551 LINE",
"742 622 LINE",
"495 622 LINE",
"495 551 LINE",
"580 551 LINE",
"580 154 LINE SMOOTH",
"580 136 OFFCURVE",
"581 102 OFFCURVE",
"583 80 CURVE",
"541 119 OFFCURVE",
"442 179 OFFCURVE",
"362 186 CURVE",
"355 170 LINE",
"501 183 OFFCURVE",
"547 248 OFFCURVE",
"547 313 CURVE SMOOTH",
"547 367 OFFCURVE",
"514 403 OFFCURVE",
"463 417 CURVE",
"468 436 OFFCURVE",
"470 455 OFFCURVE",
"470 474 CURVE SMOOTH",
"470 553 OFFCURVE",
"425 628 OFFCURVE",
"308 628 CURVE SMOOTH",
"223 628 OFFCURVE",
"170 585 OFFCURVE",
"170 518 CURVE SMOOTH",
"170 507 OFFCURVE",
"175 478 OFFCURVE",
"185 463 CURVE",
"256 477 LINE",
"250 489 OFFCURVE",
"248 503 OFFCURVE",
"248 512 CURVE SMOOTH",
"248 538 OFFCURVE",
"265 562 OFFCURVE",
"308 562 CURVE SMOOTH",
"367 562 OFFCURVE",
"395 523 OFFCURVE",
"395 475 CURVE SMOOTH",
"395 428 OFFCURVE",
"381 366 OFFCURVE",
"273 366 CURVE SMOOTH",
"191 366 OFFCURVE",
"102 399 OFFCURVE",
"49 445 CURVE",
"10 385 LINE",
"88 321 OFFCURVE",
"179 293 OFFCURVE",
"269 293 CURVE SMOOTH",
"347 293 OFFCURVE",
"405 319 OFFCURVE",
"434 358 CURVE",
"456 351 OFFCURVE",
"472 335 OFFCURVE",
"472 312 CURVE SMOOTH",
"472 275 OFFCURVE",
"448 221 OFFCURVE",
"261 221 CURVE SMOOTH",
"244 221 LINE",
"269 143 LINE",
"365 127 OFFCURVE",
"505 76 OFFCURVE",
"580 0 CURVE"
);
}
);
width = 732;
}
);
unicode = 11481;
category = Letter;
},
{
glyphname = aa_tirh;
lastChange = "2019-04-04 16:13:12 +0000";
layers = (
{
layerId = UUID0;
paths = (
{
closed = 1;
nodes = (
"657 0 LINE",
"657 551 LINE",
"689 551 LINE SMOOTH",
"728 551 OFFCURVE",
"755 531 OFFCURVE",
"778 479 CURVE",
"778 0 LINE",
"855 0 LINE",
"855 551 LINE",
"960 551 LINE",
"960 622 LINE",
"854 622 LINE",
"831 688 LINE",
"778 688 LINE",
"778 613 LINE SMOOTH",
"778 597 OFFCURVE",
"779 568 OFFCURVE",
"781 560 CURVE",
"759 601 OFFCURVE",
"725 622 OFFCURVE",
"689 622 CURVE SMOOTH",
"495 622 LINE",
"495 551 LINE",
"580 551 LINE",
"580 154 LINE SMOOTH",
"580 136 OFFCURVE",
"581 102 OFFCURVE",
"583 80 CURVE",
"541 119 OFFCURVE",
"481 157 OFFCURVE",
"362 186 CURVE",
"355 170 LINE",
"496 180 OFFCURVE",
"547 245 OFFCURVE",
"547 317 CURVE SMOOTH",
"547 367 OFFCURVE",
"514 403 OFFCURVE",
"463 417 CURVE",
"468 436 OFFCURVE",
"470 455 OFFCURVE",
"470 474 CURVE SMOOTH",
"470 553 OFFCURVE",
"425 628 OFFCURVE",
"308 628 CURVE SMOOTH",
"223 628 OFFCURVE",
"170 585 OFFCURVE",
"170 518 CURVE SMOOTH",
"170 507 OFFCURVE",
"175 478 OFFCURVE",
"185 463 CURVE",
"256 477 LINE",
"250 489 OFFCURVE",
"248 503 OFFCURVE",
"248 512 CURVE SMOOTH",
"248 538 OFFCURVE",
"265 562 OFFCURVE",
"308 562 CURVE SMOOTH",
"367 562 OFFCURVE",
"395 523 OFFCURVE",
"395 475 CURVE SMOOTH",
"395 428 OFFCURVE",
"381 366 OFFCURVE",
"273 366 CURVE SMOOTH",
"191 366 OFFCURVE",
"102 399 OFFCURVE",
"49 445 CURVE",
"10 385 LINE",
"88 316 OFFCURVE",
"187 293 OFFCURVE",
"277 293 CURVE SMOOTH",
"355 293 OFFCURVE",
"405 319 OFFCURVE",
"434 358 CURVE",
"456 351 OFFCURVE",
"472 335 OFFCURVE",
"472 312 CURVE SMOOTH",
"472 275 OFFCURVE",
"448 221 OFFCURVE",
"261 221 CURVE SMOOTH",
"244 221 LINE",
"269 143 LINE",
"365 127 OFFCURVE",
"505 76 OFFCURVE",
"580 0 CURVE"
);
}
);
width = 950;
}
);
unicode = 11482;
category = Letter;
},
{
glyphname = i_tirh;
lastChange = "2019-04-04 16:13:12 +0000";
layers = (
{
layerId = UUID0;
paths = (
{
closed = 1;
nodes = (
"706 0 LINE",
"706 551 LINE",
"811 551 LINE",
"811 622 LINE",
"705 622 LINE",
"682 688 LINE",
"629 688 LINE",
"629 514 LINE",
"594 570 OFFCURVE",
"532 628 OFFCURVE",
"435 628 CURVE SMOOTH",
"297 628 OFFCURVE",
"217 544 OFFCURVE",
"217 444 CURVE SMOOTH",
"217 375 OFFCURVE",
"256 295 OFFCURVE",
"351 295 CURVE SMOOTH",
"403 295 OFFCURVE",
"457 323 OFFCURVE",
"482 385 CURVE",
"468 384 LINE",
"481 355 OFFCURVE",
"485 337 OFFCURVE",
"485 306 CURVE SMOOTH",
"485 214 OFFCURVE",
"434 160 OFFCURVE",
"343 160 CURVE SMOOTH",
"190 160 OFFCURVE",
"113 380 OFFCURVE",
"93 538 CURVE",
"20 522 LINE",
"57 289 OFFCURVE",
"152 84 OFFCURVE",
"343 84 CURVE SMOOTH",
"470 84 OFFCURVE",
"561 158 OFFCURVE",
"561 305 CURVE SMOOTH",
"561 348 OFFCURVE",
"545 401 OFFCURVE",
"513 452 CURVE",
"448 466 LINE",
"425 394 OFFCURVE",
"385 366 OFFCURVE",
"357 366 CURVE SMOOTH",
"317 366 OFFCURVE",
"298 404 OFFCURVE",
"298 448 CURVE SMOOTH",
"298 512 OFFCURVE",
"340 557 OFFCURVE",
"436 557 CURVE SMOOTH",
"553 557 OFFCURVE",
"613 427 OFFCURVE",
"629 358 CURVE",
"629 0 LINE"
);
}
);
width = 801;
}
);
unicode = 11483;
category = Letter;
},
{
glyphname = ii_tirh;
lastChange = "2019-04-04 16:13:12 +0000";
layers = (
{
layerId = UUID0;
paths = (
{
closed = 1;
nodes = (
"520 -11 OFFCURVE",
"587 80 OFFCURVE",
"587 194 CURVE SMOOTH",
"587 243 OFFCURVE",
"574 286 OFFCURVE",
"550 324 CURVE",
"552 275 LINE",
"560 297 OFFCURVE",
"567 318 OFFCURVE",
"567 345 CURVE SMOOTH",
"567 393 OFFCURVE",
"545 442 OFFCURVE",
"517 476 CURVE",
"458 486 LINE",
"424 446 OFFCURVE",
"388 418 OFFCURVE",
"351 418 CURVE SMOOTH",
"333 418 OFFCURVE",
"304 429 OFFCURVE",
"304 472 CURVE SMOOTH",
"304 521 OFFCURVE",
"346 557 OFFCURVE",
"421 557 CURVE SMOOTH",
"559 557 OFFCURVE",
"626 424 OFFCURVE",
"645 355 CURVE",
"645 0 LINE",
"722 0 LINE",
"722 551 LINE",
"827 551 LINE",
"827 622 LINE",
"721 622 LINE",
"698 688 LINE",
"645 688 LINE",
"645 494 LINE",
"604 556 OFFCURVE",
"528 628 OFFCURVE",
"424 628 CURVE SMOOTH",
"297 628 OFFCURVE",
"223 561 OFFCURVE",
"223 473 CURVE SMOOTH",
"223 404 OFFCURVE",
"268 346 OFFCURVE",
"353 346 CURVE SMOOTH",
"405 346 OFFCURVE",
"445 370 OFFCURVE",
"477 416 CURVE",
"485 398 OFFCURVE",
"491 378 OFFCURVE",
"491 351 CURVE SMOOTH",
"491 298 OFFCURVE",
"453 238 OFFCURVE",
"362 238 CURVE SMOOTH",
"255 238 OFFCURVE",
"181 327 OFFCURVE",
"138 488 CURVE",
"72 470 LINE",
"121 273 OFFCURVE",
"230 162 OFFCURVE",
"356 162 CURVE SMOOTH",
"426 162 OFFCURVE",
"476 182 OFFCURVE",
"510 214 CURVE",
"511 209 OFFCURVE",
"511 203 OFFCURVE",
"511 197 CURVE SMOOTH",
"511 109 OFFCURVE",
"455 65 OFFCURVE",
"364 65 CURVE SMOOTH",
"228 65 OFFCURVE",
"136 173 OFFCURVE",
"85 323 CURVE",
"20 298 LINE",
"87 99 OFFCURVE",
"201 -11 OFFCURVE",
"364 -11 CURVE SMOOTH"
);
}
);
width = 817;
}
);
unicode = 11484;
category = Letter;
},
{
glyphname = u_tirh;
lastChange = "2019-04-04 16:13:12 +0000";
layers = (
{
layerId = UUID0;
paths = (
{
closed = 1;
nodes = (
"562 0 OFFCURVE",
"657 95 OFFCURVE",
"657 271 CURVE SMOOTH",
"657 338 OFFCURVE",
"633 405 OFFCURVE",
"590 468 CURVE",
"530 459 LINE",
"473 376 OFFCURVE",
"432 342 OFFCURVE",
"394 342 CURVE SMOOTH",
"383 342 OFFCURVE",
"376 344 OFFCURVE",
"368 353 CURVE SMOOTH",
"361 360 OFFCURVE",
"356 369 OFFCURVE",
"356 398 CURVE SMOOTH",
"356 537 LINE",
"486 550 OFFCURVE",
"555 637 OFFCURVE",
"580 731 CURVE",
"508 744 LINE",
"487 676 OFFCURVE",
"433 607 OFFCURVE",
"321 607 CURVE SMOOTH",
"220 607 OFFCURVE",
"157 666 OFFCURVE",
"134 744 CURVE",
"62 731 LINE",
"92 617 OFFCURVE",
"171 552 OFFCURVE",
"280 538 CURVE",
"280 412 LINE SMOOTH",
"280 339 OFFCURVE",
"297 313 OFFCURVE",
"318 294 CURVE SMOOTH",
"337 277 OFFCURVE",
"364 268 OFFCURVE",
"395 268 CURVE SMOOTH",
"447 268 OFFCURVE",
"502 302 OFFCURVE",
"554 375 CURVE",
"571 349 OFFCURVE",
"582 315 OFFCURVE",
"582 269 CURVE SMOOTH",
"582 135 OFFCURVE",
"510 76 OFFCURVE",
"404 76 CURVE SMOOTH",
"251 76 OFFCURVE",
"135 252 OFFCURVE",
"93 514 CURVE",
"20 498 LINE",
"77 160 OFFCURVE",
"226 0 OFFCURVE",
"408 0 CURVE SMOOTH"
);
},
{
closed = 1;
nodes = (
"340 669 OFFCURVE",
"359 684 OFFCURVE",
"359 711 CURVE SMOOTH",
"359 739 OFFCURVE",
"344 754 OFFCURVE",
"314 754 CURVE SMOOTH",
"284 754 OFFCURVE",
"271 735 OFFCURVE",
"271 714 CURVE SMOOTH",
"271 687 OFFCURVE",
"286 669 OFFCURVE",
"315 669 CURVE SMOOTH"
);
}
);
width = 707;
}
);
unicode = 11485;
category = Letter;
},
{
glyphname = uu_tirh;
lastChange = "2019-04-04 16:13:12 +0000";
layers = (
{
layerId = UUID0;
paths = (
{
closed = 1;
nodes = (
"557 -10 OFFCURVE",
"654 80 OFFCURVE",
"654 223 CURVE SMOOTH",
"654 253 OFFCURVE",
"645 285 OFFCURVE",
"633 311 CURVE",
"645 339 OFFCURVE",
"651 371 OFFCURVE",
"651 405 CURVE SMOOTH",
"651 440 OFFCURVE",
"630 501 OFFCURVE",
"602 534 CURVE",
"539 521 LINE",
"522 477 OFFCURVE",
"457 433 OFFCURVE",
"421 433 CURVE SMOOTH",
"389 433 OFFCURVE",
"383 466 OFFCURVE",
"383 489 CURVE SMOOTH",
"383 537 LINE",
"518 547 OFFCURVE",
"588 636 OFFCURVE",
"614 731 CURVE",
"542 744 LINE",
"521 676 OFFCURVE",
"467 607 OFFCURVE",
"355 607 CURVE SMOOTH",
"254 607 OFFCURVE",
"191 666 OFFCURVE",
"168 744 CURVE",
"96 731 LINE",
"125 620 OFFCURVE",
"201 555 OFFCURVE",
"307 539 CURVE",
"307 485 LINE SMOOTH",
"307 421 OFFCURVE",
"337 359 OFFCURVE",
"422 359 CURVE SMOOTH",
"474 359 OFFCURVE",
"535 396 OFFCURVE",
"566 449 CURVE",
"575 438 OFFCURVE",
"576 408 OFFCURVE",
"576 403 CURVE SMOOTH",
"576 308 OFFCURVE",
"517 263 OFFCURVE",
"411 263 CURVE SMOOTH",
"303 263 OFFCURVE",
"225 332 OFFCURVE",
"178 486 CURVE",
"110 470 LINE",
"175 251 OFFCURVE",
"291 187 OFFCURVE",
"400 187 CURVE SMOOTH",
"481 187 OFFCURVE",
"540 206 OFFCURVE",
"581 239 CURVE",
"581 230 LINE SMOOTH",
"581 123 OFFCURVE",
"518 66 OFFCURVE",
"397 66 CURVE SMOOTH",
"246 66 OFFCURVE",
"161 175 OFFCURVE",
"109 334 CURVE",
"44 311 LINE",
"110 91 OFFCURVE",
"225 -10 OFFCURVE",
"397 -10 CURVE SMOOTH"
);
},
{
closed = 1;
nodes = (
"374 669 OFFCURVE",
"393 684 OFFCURVE",
"393 711 CURVE SMOOTH",
"393 739 OFFCURVE",
"378 754 OFFCURVE",
"348 754 CURVE SMOOTH",
"318 754 OFFCURVE",
"305 735 OFFCURVE",
"305 714 CURVE SMOOTH",
"305 687 OFFCURVE",
"320 669 OFFCURVE",
"349 669 CURVE SMOOTH"
);
}
);
width = 680;
}
);
unicode = 11486;
category = Letter;
},
{
glyphname = rVocalic_tirh;
lastChange = "2019-04-04 16:13:12 +0000";
layers = (
{
layerId = UUID0;
paths = (
{
closed = 1;
nodes = (
"657 -30 OFFCURVE",
"690 -23 OFFCURVE",
"716 -13 CURVE",
"716 55 LINE",
"692 43 OFFCURVE",
"658 35 OFFCURVE",
"620 35 CURVE SMOOTH",
"584 35 OFFCURVE",
"560 51 OFFCURVE",
"560 87 CURVE SMOOTH",
"560 112 OFFCURVE",
"574 143 OFFCURVE",
"617 143 CURVE SMOOTH",
"631 143 OFFCURVE",
"646 139 OFFCURVE",
"650 137 CURVE",
"674 170 LINE",
"674 551 LINE",
"779 551 LINE",
"779 622 LINE",
"673 622 LINE",
"650 688 LINE",
"597 688 LINE",
"597 281 LINE",
"546 329 OFFCURVE",
"491 372 OFFCURVE",
"433 410 CURVE",
"433 652 LINE",
"413 660 OFFCURVE",
"387 662 OFFCURVE",
"359 662 CURVE SMOOTH",
"268 662 OFFCURVE",
"164 605 OFFCURVE",
"92 528 CURVE",
"107 493 LINE",
"171 472 OFFCURVE",
"232 448 OFFCURVE",
"291 419 CURVE",
"190 381 OFFCURVE",
"98 330 OFFCURVE",
"50 300 CURVE",
"84 219 LINE",
"219 199 OFFCURVE",
"279 112 OFFCURVE",
"356 0 CURVE",
"433 0 LINE",
"433 336 LINE",
"489 298 OFFCURVE",
"541 254 OFFCURVE",
"589 204 CURVE",
"527 192 OFFCURVE",
"491 144 OFFCURVE",
"491 83 CURVE SMOOTH",
"491 6 OFFCURVE",
"544 -30 OFFCURVE",
"619 -30 CURVE SMOOTH"
);
},
{
closed = 1;
nodes = (
"304 197 OFFCURVE",
"230 253 OFFCURVE",
"138 274 CURVE",
"221 321 OFFCURVE",
"270 344 OFFCURVE",
"356 372 CURVE",
"356 187 LINE SMOOTH",
"356 154 OFFCURVE",
"357 131 OFFCURVE",
"359 108 CURVE"
);
},
{
closed = 1;
nodes = (
"303 485 OFFCURVE",
"249 510 OFFCURVE",
"192 531 CURVE",
"235 570 OFFCURVE",
"300 595 OFFCURVE",
"344 595 CURVE SMOOTH",
"348 595 OFFCURVE",
"352 595 OFFCURVE",
"356 595 CURVE",
"356 456 LINE"
);
}
);
width = 769;
}
);
unicode = 11487;
category = Letter;
},
{
glyphname = rrVocalic_tirh;
lastChange = "2019-04-04 16:13:12 +0000";
layers = (
{
layerId = UUID0;
paths = (
{
closed = 1;
nodes = (
"657 -160 OFFCURVE",
"690 -153 OFFCURVE",
"716 -143 CURVE",
"716 -75 LINE",
"692 -87 OFFCURVE",
"658 -95 OFFCURVE",
"620 -95 CURVE SMOOTH",
"584 -95 OFFCURVE",
"560 -80 OFFCURVE",
"560 -53 CURVE SMOOTH",
"560 -38 OFFCURVE",
"563 -21 OFFCURVE",
"592 -8 CURVE",
"601 -9 OFFCURVE",
"610 -10 OFFCURVE",
"619 -10 CURVE SMOOTH",
"648 -10 OFFCURVE",
"674 -6 OFFCURVE",
"697 1 CURVE",
"697 67 LINE",
"675 60 OFFCURVE",
"649 55 OFFCURVE",
"620 55 CURVE SMOOTH",
"584 55 OFFCURVE",
"560 70 OFFCURVE",
"560 96 CURVE SMOOTH",
"560 120 OFFCURVE",
"574 143 OFFCURVE",
"617 143 CURVE SMOOTH",
"632 143 OFFCURVE",
"640 141 OFFCURVE",
"650 138 CURVE",
"674 170 LINE",
"674 551 LINE",
"779 551 LINE",
"779 622 LINE",
"673 622 LINE",
"650 688 LINE",
"597 688 LINE",
"597 281 LINE",
"546 329 OFFCURVE",
"491 372 OFFCURVE",
"433 410 CURVE",
"433 652 LINE",
"413 660 OFFCURVE",
"387 662 OFFCURVE",
"359 662 CURVE SMOOTH",
"268 662 OFFCURVE",
"155 595 OFFCURVE",
"92 528 CURVE",
"107 493 LINE",
"171 472 OFFCURVE",
"232 448 OFFCURVE",
"291 419 CURVE",
"190 381 OFFCURVE",
"98 330 OFFCURVE",
"50 300 CURVE",
"84 219 LINE",
"219 199 OFFCURVE",
"279 112 OFFCURVE",
"356 0 CURVE",
"433 0 LINE",
"433 336 LINE",
"489 298 OFFCURVE",
"541 254 OFFCURVE",
"589 204 CURVE",
"527 192 OFFCURVE",
"491 145 OFFCURVE",
"491 94 CURVE SMOOTH",
"491 58 OFFCURVE",
"503 32 OFFCURVE",
"524 15 CURVE",
"500 -4 OFFCURVE",
"491 -29 OFFCURVE",
"491 -57 CURVE SMOOTH",
"491 -126 OFFCURVE",
"544 -160 OFFCURVE",
"619 -160 CURVE SMOOTH"
);
},
{
closed = 1;
nodes = (
"304 197 OFFCURVE",
"230 253 OFFCURVE",
"138 274 CURVE",
"221 321 OFFCURVE",
"270 344 OFFCURVE",
"356 372 CURVE",
"356 187 LINE SMOOTH",
"356 154 OFFCURVE",
"357 131 OFFCURVE",
"359 108 CURVE"
);
},
{
closed = 1;
nodes = (
"303 485 OFFCURVE",
"249 510 OFFCURVE",
"192 531 CURVE",
"235 570 OFFCURVE",
"300 595 OFFCURVE",
"344 595 CURVE SMOOTH",
"348 595 OFFCURVE",
"352 595 OFFCURVE",
"356 595 CURVE",
"356 456 LINE"
);
}
);
width = 769;
}
);
unicode = 11488;
category = Letter;
},
{
glyphname = lVocalic_tirh;
lastChange = "2019-04-04 16:13:12 +0000";
layers = (
{
layerId = UUID0;
paths = (
{
closed = 1;
nodes = (
"432 -130 OFFCURVE",
"465 -123 OFFCURVE",
"491 -113 CURVE",
"491 -45 LINE",
"467 -57 OFFCURVE",
"433 -65 OFFCURVE",
"395 -65 CURVE SMOOTH",
"359 -65 OFFCURVE",
"335 -49 OFFCURVE",
"335 -13 CURVE SMOOTH",
"335 12 OFFCURVE",
"349 43 OFFCURVE",
"392 43 CURVE SMOOTH",
"406 43 OFFCURVE",
"421 39 OFFCURVE",
"425 37 CURVE",
"449 70 LINE",
"449 551 LINE",
"521 551 LINE",
"521 622 LINE",
"-10 622 LINE",
"-10 551 LINE",
"372 551 LINE",
"372 465 LINE SMOOTH",
"372 437 OFFCURVE",
"374 396 OFFCURVE",
"376 361 CURVE",
"345 413 OFFCURVE",
"287 472 OFFCURVE",
"198 472 CURVE SMOOTH",
"117 472 OFFCURVE",
"36 424 OFFCURVE",
"36 326 CURVE SMOOTH",
"36 254 OFFCURVE",
"84 195 OFFCURVE",
"166 161 CURVE",
"204 233 LINE",
"145 256 OFFCURVE",
"118 283 OFFCURVE",
"118 323 CURVE SMOOTH",
"118 374 OFFCURVE",
"150 399 OFFCURVE",
"197 399 CURVE SMOOTH",
"272 399 OFFCURVE",
"322 341 OFFCURVE",
"372 232 CURVE",
"372 106 LINE",
"305 96 OFFCURVE",
"266 47 OFFCURVE",
"266 -17 CURVE SMOOTH",
"266 -94 OFFCURVE",
"319 -130 OFFCURVE",
"394 -130 CURVE SMOOTH"
);
}
);
width = 511;
}
);
unicode = 11489;
category = Letter;
},
{
glyphname = llVocalic_tirh;
lastChange = "2019-04-04 16:13:12 +0000";
layers = (
{
layerId = UUID0;
paths = (
{
closed = 1;
nodes = (
"432 -230 OFFCURVE",
"465 -223 OFFCURVE",
"491 -213 CURVE",
"491 -145 LINE",
"467 -157 OFFCURVE",
"433 -165 OFFCURVE",
"395 -165 CURVE SMOOTH",
"359 -165 OFFCURVE",
"335 -150 OFFCURVE",
"335 -123 CURVE SMOOTH",
"335 -108 OFFCURVE",
"338 -91 OFFCURVE",
"367 -78 CURVE",
"376 -79 OFFCURVE",
"385 -80 OFFCURVE",
"394 -80 CURVE SMOOTH",
"423 -80 OFFCURVE",
"449 -76 OFFCURVE",
"472 -69 CURVE",
"472 -3 LINE",
"450 -10 OFFCURVE",
"424 -15 OFFCURVE",
"395 -15 CURVE SMOOTH",
"359 -15 OFFCURVE",
"335 0 OFFCURVE",
"335 26 CURVE SMOOTH",
"335 50 OFFCURVE",
"349 73 OFFCURVE",
"392 73 CURVE SMOOTH",
"407 73 OFFCURVE",
"417 70 OFFCURVE",
"425 67 CURVE",
"449 100 LINE",
"449 551 LINE",
"521 551 LINE",
"521 622 LINE",
"-10 622 LINE",
"-10 551 LINE",
"372 551 LINE",
"372 465 LINE SMOOTH",
"372 437 OFFCURVE",
"374 396 OFFCURVE",
"376 361 CURVE",
"345 413 OFFCURVE",
"287 472 OFFCURVE",
"198 472 CURVE SMOOTH",
"117 472 OFFCURVE",
"36 424 OFFCURVE",
"36 326 CURVE SMOOTH",
"36 254 OFFCURVE",
"84 195 OFFCURVE",
"166 161 CURVE",
"204 233 LINE",
"145 256 OFFCURVE",
"118 283 OFFCURVE",
"118 323 CURVE SMOOTH",
"118 374 OFFCURVE",
"150 399 OFFCURVE",
"197 399 CURVE SMOOTH",
"272 399 OFFCURVE",
"322 341 OFFCURVE",
"372 232 CURVE",
"372 136 LINE",
"305 126 OFFCURVE",
"266 77 OFFCURVE",
"266 24 CURVE SMOOTH",
"266 -12 OFFCURVE",
"278 -38 OFFCURVE",
"299 -54 CURVE",
"275 -74 OFFCURVE",
"266 -99 OFFCURVE",
"266 -127 CURVE SMOOTH",
"266 -196 OFFCURVE",
"319 -230 OFFCURVE",
"394 -230 CURVE SMOOTH"
);
}
);
width = 511;
}
);
unicode = 1148A;
category = Letter;
},
{
glyphname = e_tirh;
lastChange = "2019-04-04 16:13:12 +0000";
layers = (
{
layerId = UUID0;
paths = (
{
closed = 1;
nodes = (
"667 0 LINE",
"667 495 LINE SMOOTH",
"667 587 OFFCURVE",
"609 628 OFFCURVE",
"511 628 CURVE SMOOTH",
"374 628 OFFCURVE",
"254 499 OFFCURVE",
"254 392 CURVE SMOOTH",
"254 309 OFFCURVE",
"311 270 OFFCURVE",
"376 270 CURVE SMOOTH",
"405 270 OFFCURVE",
"427 273 OFFCURVE",
"441 278 CURVE",
"434 348 LINE",
"419 346 OFFCURVE",
"407 345 OFFCURVE",
"392 345 CURVE SMOOTH",
"341 345 OFFCURVE",
"333 373 OFFCURVE",
"333 393 CURVE SMOOTH",
"333 459 OFFCURVE",
"418 557 OFFCURVE",
"514 557 CURVE SMOOTH",
"564 557 OFFCURVE",
"590 545 OFFCURVE",
"590 466 CURVE SMOOTH",
"590 106 LINE",
"561 146 OFFCURVE",
"518 161 OFFCURVE",
"461 161 CURVE SMOOTH",
"426 161 OFFCURVE",
"399 157 OFFCURVE",
"367 152 CURVE SMOOTH",
"338 147 OFFCURVE",
"309 144 OFFCURVE",
"276 144 CURVE SMOOTH",
"202 144 OFFCURVE",
"123 162 OFFCURVE",
"123 280 CURVE SMOOTH",
"123 319 OFFCURVE",
"129 346 OFFCURVE",
"134 366 CURVE",
"58 377 LINE",
"53 350 OFFCURVE",
"46 310 OFFCURVE",
"46 278 CURVE SMOOTH",
"46 97 OFFCURVE",
"182 70 OFFCURVE",
"272 70 CURVE SMOOTH",
"318 70 OFFCURVE",
"350 74 OFFCURVE",
"384 80 CURVE SMOOTH",
"414 85 OFFCURVE",
"443 89 OFFCURVE",
"477 89 CURVE SMOOTH",
"537 89 OFFCURVE",
"575 60 OFFCURVE",
"592 0 CURVE"
);
}
);
width = 758;
}
);
unicode = 1148B;
category = Letter;
},
{
glyphname = ai_tirh;
lastChange = "2019-04-04 16:13:12 +0000";
layers = (
{
layerId = UUID0;
paths = (
{
closed = 1;
nodes = (
"667 0 LINE",
"667 374 LINE",
"755 414 OFFCURVE",
"831 473 OFFCURVE",
"831 570 CURVE SMOOTH",
"831 686 OFFCURVE",
"756 745 OFFCURVE",
"630 762 CURVE SMOOTH",
"474 783 LINE SMOOTH",
"400 793 OFFCURVE",
"380 826 OFFCURVE",
"380 878 CURVE SMOOTH",
"380 888 OFFCURVE",
"381 903 OFFCURVE",
"383 913 CURVE",
"309 917 LINE",
"307 905 OFFCURVE",
"305 887 OFFCURVE",
"305 875 CURVE SMOOTH",
"305 773 OFFCURVE",
"354 725 OFFCURVE",
"477 708 CURVE SMOOTH",
"599 691 LINE SMOOTH",
"708 676 OFFCURVE",
"753 640 OFFCURVE",
"753 570 CURVE SMOOTH",
"753 512 OFFCURVE",
"711 476 OFFCURVE",
"667 453 CURVE",
"667 495 LINE SMOOTH",
"667 587 OFFCURVE",
"609 628 OFFCURVE",
"511 628 CURVE SMOOTH",
"374 628 OFFCURVE",
"254 499 OFFCURVE",
"254 392 CURVE SMOOTH",
"254 309 OFFCURVE",
"311 270 OFFCURVE",
"376 270 CURVE SMOOTH",
"405 270 OFFCURVE",
"427 273 OFFCURVE",
"441 278 CURVE",
"434 348 LINE",
"419 346 OFFCURVE",
"407 345 OFFCURVE",
"392 345 CURVE SMOOTH",
"341 345 OFFCURVE",
"333 373 OFFCURVE",
"333 393 CURVE SMOOTH",
"333 459 OFFCURVE",
"418 557 OFFCURVE",
"514 557 CURVE SMOOTH",
"564 557 OFFCURVE",
"590 545 OFFCURVE",
"590 466 CURVE SMOOTH",
"590 106 LINE",
"561 146 OFFCURVE",
"518 161 OFFCURVE",
"461 161 CURVE SMOOTH",
"426 161 OFFCURVE",
"396 157 OFFCURVE",
"366 152 CURVE SMOOTH",
"337 147 OFFCURVE",
"309 144 OFFCURVE",
"276 144 CURVE SMOOTH",
"202 144 OFFCURVE",
"123 162 OFFCURVE",
"123 280 CURVE SMOOTH",
"123 319 OFFCURVE",
"129 346 OFFCURVE",
"134 366 CURVE",
"58 377 LINE",
"52 349 OFFCURVE",
"46 310 OFFCURVE",
"46 278 CURVE SMOOTH",
"46 97 OFFCURVE",
"182 70 OFFCURVE",
"272 70 CURVE SMOOTH",
"313 70 OFFCURVE",
"346 74 OFFCURVE",
"376 78 CURVE SMOOTH",
"411 83 OFFCURVE",
"443 87 OFFCURVE",
"481 87 CURVE SMOOTH",
"541 87 OFFCURVE",
"575 60 OFFCURVE",
"592 0 CURVE"
);
}
);
width = 873;
}
);
unicode = 1148C;
category = Letter;
},
{
glyphname = o_tirh;
lastChange = "2019-04-04 16:13:12 +0000";
layers = (
{
layerId = UUID0;
paths = (
{
closed = 1;
nodes = (
"593 42 OFFCURVE",
"681 114 OFFCURVE",
"681 225 CURVE SMOOTH",
"681 279 OFFCURVE",
"657 326 OFFCURVE",
"613 358 CURVE",
"649 391 OFFCURVE",
"671 433 OFFCURVE",
"671 483 CURVE SMOOTH",
"671 574 OFFCURVE",
"611 629 OFFCURVE",
"509 629 CURVE SMOOTH",
"371 629 OFFCURVE",
"250 521 OFFCURVE",
"250 431 CURVE SMOOTH",
"250 374 OFFCURVE",
"289 335 OFFCURVE",
"365 321 CURVE",
"386 395 LINE",
"339 402 OFFCURVE",
"331 418 OFFCURVE",
"331 439 CURVE SMOOTH",
"331 484 OFFCURVE",
"413 558 OFFCURVE",
"509 558 CURVE SMOOTH",
"562 558 OFFCURVE",
"591 531 OFFCURVE",
"591 482 CURVE SMOOTH",
"591 419 OFFCURVE",
"538 383 OFFCURVE",
"449 354 CURVE",
"480 282 LINE",
"506 291 OFFCURVE",
"530 302 OFFCURVE",
"552 314 CURVE",
"581 292 OFFCURVE",
"601 264 OFFCURVE",
"601 228 CURVE SMOOTH",
"601 152 OFFCURVE",
"539 118 OFFCURVE",
"455 118 CURVE SMOOTH",
"286 118 OFFCURVE",
"184 242 OFFCURVE",
"104 529 CURVE",
"28 507 LINE",
"117 168 OFFCURVE",
"265 42 OFFCURVE",
"453 42 CURVE SMOOTH"
);
}
);
width = 741;
}
);
unicode = 1148D;
category = Letter;
},
{
glyphname = au_tirh;
lastChange = "2019-04-04 16:13:12 +0000";
layers = (
{
layerId = UUID0;
paths = (
{
closed = 1;
nodes = (
"593 42 OFFCURVE",
"681 114 OFFCURVE",
"681 225 CURVE SMOOTH",
"681 277 OFFCURVE",
"659 320 OFFCURVE",
"620 352 CURVE",
"745 406 OFFCURVE",
"832 467 OFFCURVE",
"832 571 CURVE SMOOTH",
"832 685 OFFCURVE",
"757 745 OFFCURVE",
"630 762 CURVE SMOOTH",
"495 780 LINE SMOOTH",
"384 795 OFFCURVE",
"381 832 OFFCURVE",
"381 878 CURVE SMOOTH",
"381 888 OFFCURVE",
"383 905 OFFCURVE",
"384 913 CURVE",
"310 917 LINE",
"308 906 OFFCURVE",
"306 890 OFFCURVE",
"306 875 CURVE SMOOTH",
"306 773 OFFCURVE",
"355 725 OFFCURVE",
"478 708 CURVE SMOOTH",
"600 691 LINE SMOOTH",
"709 676 OFFCURVE",
"754 640 OFFCURVE",
"754 570 CURVE SMOOTH",
"754 513 OFFCURVE",
"712 473 OFFCURVE",
"664 446 CURVE",
"668 459 OFFCURVE",
"671 472 OFFCURVE",
"671 488 CURVE SMOOTH",
"671 570 OFFCURVE",
"611 629 OFFCURVE",
"509 629 CURVE SMOOTH",
"371 629 OFFCURVE",
"250 521 OFFCURVE",
"250 431 CURVE SMOOTH",
"250 374 OFFCURVE",
"289 335 OFFCURVE",
"365 321 CURVE",
"386 395 LINE",
"339 402 OFFCURVE",
"331 418 OFFCURVE",
"331 439 CURVE SMOOTH",
"331 484 OFFCURVE",
"413 558 OFFCURVE",
"509 558 CURVE SMOOTH",
"562 558 OFFCURVE",
"591 531 OFFCURVE",
"591 482 CURVE SMOOTH",
"591 419 OFFCURVE",
"538 383 OFFCURVE",
"449 354 CURVE",
"480 282 LINE",
"506 292 OFFCURVE",
"530 302 OFFCURVE",
"552 314 CURVE",
"581 292 OFFCURVE",
"601 264 OFFCURVE",
"601 228 CURVE SMOOTH",
"601 152 OFFCURVE",
"539 118 OFFCURVE",
"455 118 CURVE SMOOTH",
"286 118 OFFCURVE",
"184 242 OFFCURVE",
"104 529 CURVE",
"28 507 LINE",
"117 168 OFFCURVE",
"265 42 OFFCURVE",
"453 42 CURVE SMOOTH"
);
}
);
width = 874;
}
);
unicode = 1148E;
category = Letter;
},
{
glyphname = ka_tirh;
lastChange = "2019-04-04 16:13:12 +0000";
layers = (
{
layerId = UUID0;
paths = (
{
closed = 1;
nodes = (
"491 0 LINE",
"491 415 LINE",
"584 411 OFFCURVE",
"684 386 OFFCURVE",
"684 300 CURVE SMOOTH",
"684 265 OFFCURVE",
"670 232 OFFCURVE",
"606 232 CURVE SMOOTH",
"591 232 OFFCURVE",
"580 233 OFFCURVE",
"572 234 CURVE",
"566 163 LINE",
"584 159 OFFCURVE",
"604 158 OFFCURVE",
"625 158 CURVE SMOOTH",
"725 158 OFFCURVE",
"761 226 OFFCURVE",
"761 292 CURVE SMOOTH",
"761 428 OFFCURVE",
"628 481 OFFCURVE",
"491 488 CURVE",
"491 551 LINE",
"817 551 LINE",
"817 622 LINE",
"-10 622 LINE",
"-10 551 LINE",
"414 551 LINE",
"414 487 LINE",
"262 472 OFFCURVE",
"124 388 OFFCURVE",
"37 335 CURVE",
"76 243 LINE",
"222 224 OFFCURVE",
"357 118 OFFCURVE",
"415 0 CURVE"
);
},
{
closed = 1;
nodes = (
"361 204 OFFCURVE",
"235 284 OFFCURVE",
"130 304 CURVE",
"184 339 OFFCURVE",
"287 400 OFFCURVE",
"414 413 CURVE",
"414 189 LINE SMOOTH",
"414 156 OFFCURVE",
"415 132 OFFCURVE",
"417 108 CURVE"
);
}
);
width = 807;
}
);
unicode = 1148F;
category = Letter;
},
{
glyphname = kha_tirh;
lastChange = "2019-04-04 16:13:12 +0000";
layers = (
{
layerId = UUID0;
paths = (
{
closed = 1;
nodes = (
"582 0 LINE",
"582 551 LINE",
"687 551 LINE",
"687 622 LINE",
"581 622 LINE",
"558 688 LINE",
"505 688 LINE",
"505 193 LINE SMOOTH",
"505 157 OFFCURVE",
"505 127 OFFCURVE",
"507 97 CURVE",
"458 164 OFFCURVE",
"378 243 OFFCURVE",
"232 282 CURVE",
"348 305 OFFCURVE",
"431 365 OFFCURVE",
"431 470 CURVE SMOOTH",
"431 530 OFFCURVE",
"401 580 OFFCURVE",
"356 622 CURVE",
"298 622 LINE",
"255 524 OFFCURVE",
"202 501 OFFCURVE",
"163 501 CURVE SMOOTH",
"132 501 OFFCURVE",
"111 517 OFFCURVE",
"111 552 CURVE SMOOTH",
"111 573 OFFCURVE",
"119 593 OFFCURVE",
"128 607 CURVE",
"52 628 LINE",
"40 608 OFFCURVE",
"30 579 OFFCURVE",
"30 548 CURVE SMOOTH",
"30 474 OFFCURVE",
"82 430 OFFCURVE",
"163 430 CURVE SMOOTH",
"236 430 OFFCURVE",
"293 470 OFFCURVE",
"333 535 CURVE",
"349 514 OFFCURVE",
"356 492 OFFCURVE",
"356 466 CURVE SMOOTH",
"356 391 OFFCURVE",
"284 343 OFFCURVE",
"123 331 CURVE",
"147 238 LINE",
"317 208 OFFCURVE",
"429 110 OFFCURVE",
"505 0 CURVE"
);
}
);
width = 677;
}
);
unicode = 11490;
category = Letter;
},
{
glyphname = ga_tirh;
lastChange = "2019-04-04 16:13:12 +0000";
layers = (
{
layerId = UUID0;
paths = (
{
closed = 1;
nodes = (
"562 0 LINE",
"562 551 LINE",
"667 551 LINE",
"667 622 LINE",
"561 622 LINE",
"538 688 LINE",
"485 688 LINE",
"485 585 LINE SMOOTH",
"485 541 OFFCURVE",
"486 513 OFFCURVE",
"488 495 CURVE",
"415 584 OFFCURVE",
"346 629 OFFCURVE",
"255 629 CURVE SMOOTH",
"156 629 OFFCURVE",
"83 562 OFFCURVE",
"22 458 CURVE",
"103 392 LINE",
"137 409 OFFCURVE",
"165 417 OFFCURVE",
"200 417 CURVE SMOOTH",
"243 417 OFFCURVE",
"266 394 OFFCURVE",
"266 365 CURVE SMOOTH",
"266 312 OFFCURVE",
"204 275 OFFCURVE",
"131 245 CURVE",
"182 172 LINE",
"294 232 OFFCURVE",
"346 290 OFFCURVE",
"346 369 CURVE SMOOTH",
"346 423 OFFCURVE",
"308 487 OFFCURVE",
"216 487 CURVE SMOOTH",
"177 487 OFFCURVE",
"144 480 OFFCURVE",
"123 469 CURVE",
"155 515 OFFCURVE",
"194 556 OFFCURVE",
"263 556 CURVE SMOOTH",
"341 556 OFFCURVE",
"402 504 OFFCURVE",
"485 391 CURVE",
"485 0 LINE"
);
}
);
width = 657;
}
);
unicode = 11491;
category = Letter;
},
{
glyphname = gha_tirh;
lastChange = "2019-04-04 16:13:12 +0000";
layers = (
{
layerId = UUID0;
paths = (
{
closed = 1;
nodes = (
"537 0 LINE",
"537 551 LINE",
"642 551 LINE",
"642 622 LINE",
"-10 622 LINE",
"-10 551 LINE",
"88 551 LINE",
"67 526 OFFCURVE",
"56 500 OFFCURVE",
"56 469 CURVE SMOOTH",
"56 398 OFFCURVE",
"107 354 OFFCURVE",
"199 345 CURVE",
"158 320 OFFCURVE",
"121 295 OFFCURVE",
"83 266 CURVE",
"118 179 LINE",
"270 169 OFFCURVE",
"397 85 OFFCURVE",
"460 0 CURVE"
);
},
{
closed = 1;
nodes = (
"393 167 OFFCURVE",
"309 220 OFFCURVE",
"173 246 CURVE",
"230 289 OFFCURVE",
"309 342 OFFCURVE",
"374 381 CURVE",
"331 441 LINE",
"288 412 OFFCURVE",
"253 404 OFFCURVE",
"224 404 CURVE SMOOTH",
"177 404 OFFCURVE",
"137 422 OFFCURVE",
"137 472 CURVE SMOOTH",
"137 500 OFFCURVE",
"151 527 OFFCURVE",
"184 551 CURVE",
"460 551 LINE",
"460 165 LINE SMOOTH",
"460 140 OFFCURVE",
"461 114 OFFCURVE",
"462 92 CURVE"
);
}
);
width = 631;
}
);
unicode = 11492;
category = Letter;
},
{
glyphname = nga_tirh;
lastChange = "2019-04-04 16:13:12 +0000";
layers = (
{
layerId = UUID0;
paths = (
{
closed = 1;
nodes = (
"527 0 OFFCURVE",
"592 103 OFFCURVE",
"592 211 CURVE SMOOTH",
"592 278 OFFCURVE",
"568 345 OFFCURVE",
"525 408 CURVE",
"465 399 LINE",
"429 321 OFFCURVE",
"386 282 OFFCURVE",
"348 282 CURVE SMOOTH",
"337 282 OFFCURVE",
"330 284 OFFCURVE",
"322 293 CURVE SMOOTH",
"315 300 OFFCURVE",
"310 309 OFFCURVE",
"310 338 CURVE SMOOTH",
"310 421 LINE",
"372 435 OFFCURVE",
"416 487 OFFCURVE",
"416 554 CURVE SMOOTH",
"416 632 OFFCURVE",
"355 690 OFFCURVE",
"275 690 CURVE SMOOTH",
"195 690 OFFCURVE",
"134 632 OFFCURVE",
"134 554 CURVE SMOOTH",
"134 488 OFFCURVE",
"175 438 OFFCURVE",
"234 422 CURVE",
"234 352 LINE SMOOTH",
"234 279 OFFCURVE",
"251 253 OFFCURVE",
"272 234 CURVE SMOOTH",
"291 217 OFFCURVE",
"318 208 OFFCURVE",
"349 208 CURVE SMOOTH",
"400 208 OFFCURVE",
"442 242 OFFCURVE",
"490 314 CURVE",
"507 288 OFFCURVE",
"517 254 OFFCURVE",
"517 209 CURVE SMOOTH",
"517 147 OFFCURVE",
"475 76 OFFCURVE",
"369 76 CURVE SMOOTH",
"220 76 OFFCURVE",
"135 242 OFFCURVE",
"92 492 CURVE",
"20 471 LINE",
"79 152 OFFCURVE",
"196 0 OFFCURVE",
"373 0 CURVE SMOOTH"
);
},
{
closed = 1;
nodes = (
"233 482 OFFCURVE",
"203 512 OFFCURVE",
"203 554 CURVE SMOOTH",
"203 594 OFFCURVE",
"233 626 OFFCURVE",
"275 626 CURVE SMOOTH",
"317 626 OFFCURVE",
"347 594 OFFCURVE",
"347 554 CURVE SMOOTH",
"347 513 OFFCURVE",
"317 482 OFFCURVE",
"275 482 CURVE SMOOTH"
);
}
);
width = 633;
}
);
unicode = 11493;
category = Letter;
},
{
glyphname = ca_tirh;
lastChange = "2019-04-04 16:13:14 +0000";
layers = (
{
layerId = UUID0;
paths = (
{
closed = 1;
nodes = (
"380 24 OFFCURVE",
"517 160 OFFCURVE",
"517 306 CURVE SMOOTH",
"517 380 OFFCURVE",
"485 423 OFFCURVE",
"377 423 CURVE SMOOTH",
"361 423 LINE SMOOTH",
"253 423 OFFCURVE",
"213 462 OFFCURVE",
"172 534 CURVE",
"172 551 LINE",
"578 551 LINE",
"578 622 LINE",
"-10 622 LINE",
"-10 551 LINE",
"95 551 LINE",
"95 191 LINE SMOOTH",
"95 91 OFFCURVE",
"136 24 OFFCURVE",
"238 24 CURVE SMOOTH"
);
},
{
closed = 1;
nodes = (
"175 96 OFFCURVE",
"172 155 OFFCURVE",
"172 205 CURVE SMOOTH",
"172 431 LINE",
"206 384 OFFCURVE",
"262 349 OFFCURVE",
"363 349 CURVE SMOOTH",
"367 349 LINE SMOOTH",
"428 349 OFFCURVE",
"437 328 OFFCURVE",
"437 296 CURVE SMOOTH",
"437 211 OFFCURVE",
"347 96 OFFCURVE",
"242 96 CURVE SMOOTH"
);
}
);
width = 567;
}
);
unicode = 11494;
category = Letter;
},
{
glyphname = cha_tirh;
lastChange = "2019-04-04 16:13:12 +0000";
layers = (
{
layerId = UUID0;
paths = (
{
closed = 1;
nodes = (
"450 -91 OFFCURVE",
"521 5 OFFCURVE",
"521 127 CURVE SMOOTH",
"521 162 OFFCURVE",
"500 223 OFFCURVE",
"472 256 CURVE",
"409 243 LINE",
"392 199 OFFCURVE",
"327 155 OFFCURVE",
"291 155 CURVE SMOOTH",
"259 155 OFFCURVE",
"253 188 OFFCURVE",
"253 211 CURVE SMOOTH",
"253 218 LINE",
"350 228 OFFCURVE",
"430 298 OFFCURVE",
"430 388 CURVE SMOOTH",
"430 458 OFFCURVE",
"370 481 OFFCURVE",
"303 481 CURVE SMOOTH",
"225 481 OFFCURVE",
"201 505 OFFCURVE",
"178 544 CURVE",
"178 551 LINE",
"547 551 LINE",
"547 622 LINE",
"-10 622 LINE",
"-10 551 LINE",
"102 551 LINE",
"102 359 LINE SMOOTH",
"102 282 OFFCURVE",
"122 238 OFFCURVE",
"177 223 CURVE",
"177 207 LINE SMOOTH",
"177 143 OFFCURVE",
"207 81 OFFCURVE",
"292 81 CURVE SMOOTH",
"344 81 OFFCURVE",
"405 118 OFFCURVE",
"436 171 CURVE",
"445 160 OFFCURVE",
"446 130 OFFCURVE",
"446 125 CURVE SMOOTH",
"446 30 OFFCURVE",
"401 -15 OFFCURVE",
"295 -15 CURVE SMOOTH",
"177 -15 OFFCURVE",
"98 85 OFFCURVE",
"56 292 CURVE",
"-10 281 LINE",
"34 21 OFFCURVE",
"155 -91 OFFCURVE",
"298 -91 CURVE SMOOTH"
);
},
{
closed = 1;
nodes = (
"183 286 OFFCURVE",
"178 316 OFFCURVE",
"178 359 CURVE SMOOTH",
"178 454 LINE",
"207 425 OFFCURVE",
"237 413 OFFCURVE",
"296 413 CURVE SMOOTH",
"329 413 OFFCURVE",
"354 409 OFFCURVE",
"354 384 CURVE SMOOTH",
"354 342 OFFCURVE",
"306 286 OFFCURVE",
"233 286 CURVE SMOOTH"
);
}
);
width = 537;
}
);
unicode = 11495;
category = Letter;
},
{
glyphname = ja_tirh;
lastChange = "2019-04-04 16:13:12 +0000";
layers = (
{
layerId = UUID0;
paths = (
{
closed = 1;
nodes = (
"731 10 LINE",
"706 85 OFFCURVE",
"696 140 OFFCURVE",
"696 205 CURVE SMOOTH",
"696 280 OFFCURVE",
"708 332 OFFCURVE",
"740 392 CURVE",
"701 462 LINE",
"681 460 OFFCURVE",
"671 459 OFFCURVE",
"653 459 CURVE SMOOTH",
"569 459 OFFCURVE",
"523 502 OFFCURVE",
"494 551 CURVE",
"810 551 LINE",
"810 622 LINE",
"-10 622 LINE",
"-10 551 LINE",
"245 551 LINE SMOOTH",
"288 551 OFFCURVE",
"309 551 OFFCURVE",
"331 552 CURVE",
"246 511 OFFCURVE",
"219 447 OFFCURVE",
"219 389 CURVE SMOOTH",
"219 308 OFFCURVE",
"276 257 OFFCURVE",
"347 257 CURVE SMOOTH",
"393 257 OFFCURVE",
"427 279 OFFCURVE",
"457 310 CURVE",
"460 298 OFFCURVE",
"462 284 OFFCURVE",
"462 268 CURVE SMOOTH",
"462 182 OFFCURVE",
"428 139 OFFCURVE",
"339 139 CURVE SMOOTH",
"236 139 OFFCURVE",
"144 250 OFFCURVE",
"109 474 CURVE",
"37 453 LINE",
"79 186 OFFCURVE",
"202 63 OFFCURVE",
"337 63 CURVE SMOOTH",
"487 63 OFFCURVE",
"539 154 OFFCURVE",
"539 254 CURVE SMOOTH",
"539 297 OFFCURVE",
"530 338 OFFCURVE",
"520 365 CURVE",
"442 396 LINE",
"417 356 OFFCURVE",
"390 328 OFFCURVE",
"344 328 CURVE SMOOTH",
"319 328 OFFCURVE",
"297 351 OFFCURVE",
"297 388 CURVE SMOOTH",
"297 430 OFFCURVE",
"303 470 OFFCURVE",
"421 535 CURVE",
"469 451 OFFCURVE",
"531 391 OFFCURVE",
"652 390 CURVE",
"632 351 OFFCURVE",
"618 293 OFFCURVE",
"618 222 CURVE SMOOTH",
"618 142 OFFCURVE",
"632 70 OFFCURVE",
"656 -7 CURVE"
);
}
);
width = 800;
}
);
unicode = 11496;
category = Letter;
},
{
glyphname = jha_tirh;
lastChange = "2019-04-04 16:13:12 +0000";
layers = (
{
layerId = UUID0;
paths = (
{
closed = 1;
nodes = (
"294 0 LINE",
"294 551 LINE",
"537 551 LINE",
"537 224 LINE SMOOTH",
"537 191 OFFCURVE",
"539 164 OFFCURVE",
"541 140 CURVE",
"495 265 OFFCURVE",
"420 331 OFFCURVE",
"353 369 CURVE",
"328 306 LINE",
"424 242 OFFCURVE",
"508 105 OFFCURVE",
"538 0 CURVE",
"614 0 LINE",
"614 551 LINE",
"709 551 LINE",
"709 622 LINE",
"-10 622 LINE",
"-10 551 LINE",
"217 551 LINE",
"217 224 LINE SMOOTH",
"217 191 OFFCURVE",
"219 164 OFFCURVE",
"221 140 CURVE",
"175 265 OFFCURVE",
"100 331 OFFCURVE",
"33 369 CURVE",
"8 306 LINE",
"104 242 OFFCURVE",
"188 105 OFFCURVE",
"218 0 CURVE"
);
}
);
width = 699;
}
);
unicode = 11497;
category = Letter;
},
{
glyphname = nya_tirh;
lastChange = "2019-04-04 16:13:12 +0000";
layers = (
{
layerId = UUID0;
paths = (
{
closed = 1;
nodes = (
"667 0 LINE",
"667 200 LINE SMOOTH",
"667 217 OFFCURVE",
"666 236 OFFCURVE",
"663 254 CURVE",
"697 204 OFFCURVE",
"744 168 OFFCURVE",
"818 168 CURVE SMOOTH",
"916 168 OFFCURVE",
"965 225 OFFCURVE",
"965 291 CURVE SMOOTH",
"965 338 OFFCURVE",
"941 370 OFFCURVE",
"912 391 CURVE",
"950 423 OFFCURVE",
"959 462 OFFCURVE",
"959 493 CURVE SMOOTH",
"959 560 OFFCURVE",
"907 607 OFFCURVE",
"824 607 CURVE SMOOTH",
"757 607 OFFCURVE",
"708 579 OFFCURVE",
"661 528 CURVE",
"650 594 OFFCURVE",
"597 628 OFFCURVE",
"511 628 CURVE SMOOTH",
"374 628 OFFCURVE",
"254 499 OFFCURVE",
"254 392 CURVE SMOOTH",
"254 309 OFFCURVE",
"311 270 OFFCURVE",
"376 270 CURVE SMOOTH",
"405 270 OFFCURVE",
"427 273 OFFCURVE",
"441 278 CURVE",
"434 348 LINE",
"419 346 OFFCURVE",
"407 345 OFFCURVE",
"392 345 CURVE SMOOTH",
"341 345 OFFCURVE",
"333 373 OFFCURVE",
"333 393 CURVE SMOOTH",
"333 459 OFFCURVE",
"418 557 OFFCURVE",
"514 557 CURVE SMOOTH",
"564 557 OFFCURVE",
"590 545 OFFCURVE",
"590 466 CURVE SMOOTH",
"590 106 LINE",
"561 146 OFFCURVE",
"518 161 OFFCURVE",
"461 161 CURVE SMOOTH",
"433 161 OFFCURVE",
"401 157 OFFCURVE",
"372 152 CURVE SMOOTH",
"334 146 OFFCURVE",
"309 144 OFFCURVE",
"276 144 CURVE SMOOTH",
"202 144 OFFCURVE",
"124 162 OFFCURVE",
"124 280 CURVE SMOOTH",
"124 319 OFFCURVE",
"130 346 OFFCURVE",
"135 366 CURVE",
"58 377 LINE",
"53 350 OFFCURVE",
"46 310 OFFCURVE",
"46 278 CURVE SMOOTH",
"46 97 OFFCURVE",
"182 70 OFFCURVE",
"272 70 CURVE SMOOTH",
"314 70 OFFCURVE",
"338 72 OFFCURVE",
"378 78 CURVE SMOOTH",
"412 83 OFFCURVE",
"443 87 OFFCURVE",
"481 87 CURVE SMOOTH",
"541 87 OFFCURVE",
"575 60 OFFCURVE",
"592 0 CURVE"
);
},
{
closed = 1;
nodes = (
"750 236 OFFCURVE",
"694 289 OFFCURVE",
"665 387 CURVE",
"665 420 LINE",
"706 490 OFFCURVE",
"759 538 OFFCURVE",
"819 538 CURVE SMOOTH",
"854 538 OFFCURVE",
"884 521 OFFCURVE",
"884 485 CURVE SMOOTH",
"884 451 OFFCURVE",
"856 423 OFFCURVE",
"785 412 CURVE",
"802 344 LINE",
"820 348 OFFCURVE",
"836 353 OFFCURVE",
"851 358 CURVE",
"878 341 OFFCURVE",
"889 320 OFFCURVE",
"889 294 CURVE SMOOTH",
"889 255 OFFCURVE",
"856 236 OFFCURVE",
"820 236 CURVE SMOOTH"
);
}
);
width = 1019;
}
);
unicode = 11498;
category = Letter;
},
{
glyphname = tta_tirh;
lastChange = "2019-04-04 16:13:12 +0000";
layers = (
{
layerId = UUID0;
paths = (
{
closed = 1;
nodes = (
"482 0 OFFCURVE",
"570 119 OFFCURVE",
"570 216 CURVE SMOOTH",
"570 303 OFFCURVE",
"511 343 OFFCURVE",
"446 352 CURVE",
"428 287 LINE",
"465 277 OFFCURVE",
"491 256 OFFCURVE",
"491 215 CURVE SMOOTH",
"491 162 OFFCURVE",
"445 72 OFFCURVE",
"311 72 CURVE SMOOTH",
"197 72 OFFCURVE",
"136 152 OFFCURVE",
"131 249 CURVE",
"251 282 OFFCURVE",
"312 366 OFFCURVE",
"335 470 CURVE",
"362 454 OFFCURVE",
"391 449 OFFCURVE",
"418 449 CURVE SMOOTH",
"497 449 OFFCURVE",
"549 482 OFFCURVE",
"561 551 CURVE",
"628 551 LINE",
"628 622 LINE",
"556 622 LINE",
"544 655 OFFCURVE",
"518 685 OFFCURVE",
"493 713 CURVE SMOOTH",
"460 749 OFFCURVE",
"431 786 OFFCURVE",
"431 826 CURVE SMOOTH",
"431 862 OFFCURVE",
"447 880 OFFCURVE",
"484 909 CURVE",
"437 966 LINE",
"384 926 OFFCURVE",
"354 884 OFFCURVE",
"354 830 CURVE SMOOTH",
"354 757 OFFCURVE",
"399 704 OFFCURVE",
"438 662 CURVE SMOOTH",
"465 633 OFFCURVE",
"487 606 OFFCURVE",
"487 580 CURVE SMOOTH",
"487 531 OFFCURVE",
"448 523 OFFCURVE",
"419 523 CURVE SMOOTH",
"398 523 OFFCURVE",
"371 530 OFFCURVE",
"346 549 CURVE",
"347 560 OFFCURVE",
"347 571 OFFCURVE",
"347 582 CURVE SMOOTH",
"347 684 OFFCURVE",
"304 774 OFFCURVE",
"173 774 CURVE SMOOTH",
"83 774 OFFCURVE",
"36 712 OFFCURVE",
"36 653 CURVE SMOOTH",
"36 603 OFFCURVE",
"59 571 OFFCURVE",
"115 543 CURVE",
"160 595 LINE",
"129 608 OFFCURVE",
"115 628 OFFCURVE",
"115 657 CURVE SMOOTH",
"115 681 OFFCURVE",
"132 704 OFFCURVE",
"173 704 CURVE SMOOTH",
"236 704 OFFCURVE",
"268 658 OFFCURVE",
"268 585 CURVE SMOOTH",
"268 469 OFFCURVE",
"239 322 OFFCURVE",
"55 305 CURVE",
"55 272 LINE SMOOTH",
"55 102 OFFCURVE",
"170 0 OFFCURVE",
"307 0 CURVE SMOOTH"
);
}
);
width = 621;
}
);
unicode = 11499;
category = Letter;
},
{
glyphname = ttha_tirh;
lastChange = "2019-04-04 16:13:12 +0000";
layers = (
{
layerId = UUID0;
paths = (
{
closed = 1;
nodes = (
"441 0 OFFCURVE",
"529 98 OFFCURVE",
"529 240 CURVE SMOOTH",
"529 363 OFFCURVE",
"464 455 OFFCURVE",
"367 553 CURVE",
"387 551 OFFCURVE",
"402 551 OFFCURVE",
"428 551 CURVE SMOOTH",
"602 551 LINE",
"602 622 LINE",
"292 622 LINE",
"241 680 OFFCURVE",
"209 722 OFFCURVE",
"209 764 CURVE SMOOTH",
"209 803 OFFCURVE",
"227 828 OFFCURVE",
"270 861 CURVE",
"219 917 LINE",
"162 875 OFFCURVE",
"129 832 OFFCURVE",
"129 776 CURVE SMOOTH",
"129 726 OFFCURVE",
"157 680 OFFCURVE",
"201 622 CURVE",
"-9 622 LINE",
"-9 551 LINE",
"243 551 LINE",
"258 516 OFFCURVE",
"264 478 OFFCURVE",
"264 448 CURVE SMOOTH",
"264 344 OFFCURVE",
"222 263 OFFCURVE",
"59 247 CURVE",
"37 168 LINE",
"74 69 OFFCURVE",
"166 0 OFFCURVE",
"278 0 CURVE SMOOTH"
);
},
{
closed = 1;
nodes = (
"205 74 OFFCURVE",
"133 112 OFFCURVE",
"108 198 CURVE",
"82 175 LINE",
"274 210 OFFCURVE",
"334 305 OFFCURVE",
"334 406 CURVE SMOOTH",
"334 457 OFFCURVE",
"327 493 OFFCURVE",
"316 530 CURVE",
"296 535 LINE",
"411 415 OFFCURVE",
"449 336 OFFCURVE",
"449 244 CURVE SMOOTH",
"449 155 OFFCURVE",
"397 74 OFFCURVE",
"277 74 CURVE SMOOTH"
);
}
);
width = 592;
}
);
unicode = 1149A;
category = Letter;
},
{
glyphname = dda_tirh;
lastChange = "2019-04-04 16:13:12 +0000";
layers = (
{
layerId = UUID0;
paths = (
{
closed = 1;
nodes = (
"571 24 OFFCURVE",
"656 119 OFFCURVE",
"656 245 CURVE SMOOTH",
"656 312 OFFCURVE",
"632 379 OFFCURVE",
"589 442 CURVE",
"529 433 LINE",
"472 350 OFFCURVE",
"431 316 OFFCURVE",
"393 316 CURVE SMOOTH",
"382 316 OFFCURVE",
"375 318 OFFCURVE",
"367 327 CURVE SMOOTH",
"360 334 OFFCURVE",
"355 343 OFFCURVE",
"355 372 CURVE SMOOTH",
"355 551 LINE",
"723 551 LINE",
"723 622 LINE",
"-10 622 LINE",
"-10 551 LINE",
"279 551 LINE",
"279 386 LINE SMOOTH",
"279 313 OFFCURVE",
"296 287 OFFCURVE",
"317 268 CURVE SMOOTH",
"336 251 OFFCURVE",
"363 242 OFFCURVE",
"394 242 CURVE SMOOTH",
"446 242 OFFCURVE",
"501 276 OFFCURVE",
"553 349 CURVE",
"570 323 OFFCURVE",
"581 289 OFFCURVE",
"581 243 CURVE SMOOTH",
"581 159 OFFCURVE",
"519 100 OFFCURVE",
"413 100 CURVE SMOOTH",
"267 100 OFFCURVE",
"176 207 OFFCURVE",
"104 485 CURVE",
"29 465 LINE",
"114 138 OFFCURVE",
"241 24 OFFCURVE",
"417 24 CURVE SMOOTH"
);
}
);
width = 712;
}
);
unicode = 1149B;
category = Letter;
},
{
glyphname = ddha_tirh;
lastChange = "2019-04-04 16:13:12 +0000";
layers = (
{
layerId = UUID0;
paths = (
{
closed = 1;
nodes = (
"462 24 OFFCURVE",
"563 129 OFFCURVE",
"563 256 CURVE SMOOTH",
"563 321 OFFCURVE",
"510 357 OFFCURVE",
"433 373 CURVE",
"414 310 LINE",
"466 297 OFFCURVE",
"485 278 OFFCURVE",
"485 249 CURVE SMOOTH",
"485 169 OFFCURVE",
"421 96 OFFCURVE",
"299 96 CURVE SMOOTH",
"189 96 OFFCURVE",
"125 160 OFFCURVE",
"125 234 CURVE SMOOTH",
"125 284 OFFCURVE",
"156 315 OFFCURVE",
"212 350 CURVE SMOOTH",
"264 382 OFFCURVE",
"328 425 OFFCURVE",
"328 483 CURVE SMOOTH",
"328 551 LINE",
"610 551 LINE",
"610 622 LINE",
"-10 622 LINE",
"-10 551 LINE",
"251 551 LINE",
"251 504 LINE SMOOTH",
"251 457 OFFCURVE",
"209 428 OFFCURVE",
"162 396 CURVE SMOOTH",
"107 359 OFFCURVE",
"47 318 OFFCURVE",
"47 231 CURVE SMOOTH",
"47 119 OFFCURVE",
"142 24 OFFCURVE",
"299 24 CURVE SMOOTH"
);
}
);
width = 600;
}
);
unicode = 1149C;
category = Letter;
},
{
glyphname = nna_tirh;
lastChange = "2019-04-04 16:13:12 +0000";
layers = (
{
layerId = UUID0;
paths = (
{
closed = 1;
nodes = (
"568 0 LINE",
"568 551 LINE",
"674 551 LINE",
"674 622 LINE",
"491 622 LINE",
"491 551 LINE SMOOTH",
"491 536 OFFCURVE",
"492 517 OFFCURVE",
"494 501 CURVE",
"467 537 OFFCURVE",
"430 561 OFFCURVE",
"386 561 CURVE SMOOTH",
"348 561 OFFCURVE",
"315 540 OFFCURVE",
"294 505 CURVE",
"269 540 OFFCURVE",
"230 561 OFFCURVE",
"180 561 CURVE SMOOTH",
"105 561 OFFCURVE",
"34 503 OFFCURVE",
"34 405 CURVE SMOOTH",
"34 333 OFFCURVE",
"86 258 OFFCURVE",
"164 240 CURVE",
"202 312 LINE",
"145 333 OFFCURVE",
"116 362 OFFCURVE",
"116 416 CURVE SMOOTH",
"116 453 OFFCURVE",
"138 488 OFFCURVE",
"185 488 CURVE SMOOTH",
"237 488 OFFCURVE",
"259 446 OFFCURVE",
"266 397 CURVE",
"322 384 LINE",
"322 453 OFFCURVE",
"343 488 OFFCURVE",
"390 488 CURVE SMOOTH",
"432 488 OFFCURVE",
"477 448 OFFCURVE",
"491 379 CURVE",
"491 0 LINE"
);
}
);
width = 664;
}
);
unicode = 1149D;
category = Letter;
},
{
glyphname = ta_tirh;
lastChange = "2019-04-04 16:13:12 +0000";
layers = (
{
layerId = UUID0;
paths = (
{
closed = 1;
nodes = (
"571 50 OFFCURVE",
"650 151 OFFCURVE",
"650 274 CURVE SMOOTH",
"650 401 OFFCURVE",
"563 500 OFFCURVE",
"433 500 CURVE SMOOTH",
"356 500 OFFCURVE",
"286 465 OFFCURVE",
"286 389 CURVE SMOOTH",
"286 360 OFFCURVE",
"294 330 OFFCURVE",
"306 304 CURVE",
"382 321 LINE",
"373 342 OFFCURVE",
"369 357 OFFCURVE",
"369 373 CURVE SMOOTH",
"369 409 OFFCURVE",
"391 429 OFFCURVE",
"439 429 CURVE SMOOTH",
"521 429 OFFCURVE",
"573 362 OFFCURVE",
"573 278 CURVE SMOOTH",
"573 196 OFFCURVE",
"529 126 OFFCURVE",
"405 126 CURVE SMOOTH",
"258 126 OFFCURVE",
"174 237 OFFCURVE",
"104 486 CURVE",
"29 466 LINE",
"110 160 OFFCURVE",
"242 50 OFFCURVE",
"407 50 CURVE SMOOTH"
);
},
{
closed = 1;
nodes = (
"717 551 LINE",
"717 622 LINE",
"-10 622 LINE",
"-10 551 LINE"
);
}
);
width = 707;
}
);
unicode = 1149E;
category = Letter;
},
{
glyphname = tha_tirh;
lastChange = "2019-04-04 16:13:12 +0000";
layers = (
{
layerId = UUID0;
paths = (
{
closed = 1;
nodes = (
"550 0 LINE",
"550 551 LINE",
"655 551 LINE",
"655 622 LINE",
"549 622 LINE",
"526 688 LINE",
"473 688 LINE",
"473 193 LINE SMOOTH",
"473 157 OFFCURVE",
"473 127 OFFCURVE",
"475 97 CURVE",
"425 169 OFFCURVE",
"338 243 OFFCURVE",
"203 282 CURVE",
"327 306 OFFCURVE",
"400 371 OFFCURVE",
"400 464 CURVE SMOOTH",
"400 554 OFFCURVE",
"337 625 OFFCURVE",
"211 625 CURVE SMOOTH",
"100 625 OFFCURVE",
"38 567 OFFCURVE",
"38 497 CURVE SMOOTH",
"38 443 OFFCURVE",
"68 409 OFFCURVE",
"106 384 CURVE",
"150 446 LINE",
"125 459 OFFCURVE",
"116 475 OFFCURVE",
"116 494 CURVE SMOOTH",
"116 523 OFFCURVE",
"142 555 OFFCURVE",
"209 555 CURVE SMOOTH",
"281 555 OFFCURVE",
"319 523 OFFCURVE",
"319 466 CURVE SMOOTH",
"319 395 OFFCURVE",
"260 343 OFFCURVE",
"92 331 CURVE",
"115 238 LINE",
"285 208 OFFCURVE",
"396 110 OFFCURVE",
"473 0 CURVE"
);
}
);
width = 645;
}
);
unicode = 1149F;
category = Letter;
},
{
glyphname = da_tirh;
lastChange = "2019-04-04 16:13:12 +0000";
layers = (
{
layerId = UUID0;
paths = (
{
closed = 1;
nodes = (
"522 10 LINE",
"497 85 OFFCURVE",
"487 140 OFFCURVE",
"487 205 CURVE SMOOTH",
"487 292 OFFCURVE",
"502 352 OFFCURVE",
"540 422 CURVE",
"475 486 LINE",
"347 439 OFFCURVE",
"238 371 OFFCURVE",
"159 288 CURVE",
"159 551 LINE",
"613 551 LINE",
"613 622 LINE",
"-10 622 LINE",
"-10 551 LINE",
"82 551 LINE",
"82 215 LINE",
"141 175 LINE",
"244 277 OFFCURVE",
"338 350 OFFCURVE",
"445 396 CURVE",
"425 357 OFFCURVE",
"409 293 OFFCURVE",
"409 222 CURVE SMOOTH",
"409 142 OFFCURVE",
"423 70 OFFCURVE",
"447 -7 CURVE"
);
}
);
width = 603;
}
);
unicode = 114A0;
category = Letter;
},
{
glyphname = dha_tirh;
lastChange = "2019-04-04 16:13:12 +0000";
layers = (
{
layerId = UUID0;
paths = (
{
closed = 1;
nodes = (
"501 0 LINE",
"501 551 LINE",
"606 551 LINE",
"606 622 LINE",
"424 622 LINE",
"424 517 LINE",
"360 497 OFFCURVE",
"299 473 OFFCURVE",
"239 446 CURVE",
"202 465 OFFCURVE",
"188 483 OFFCURVE",
"188 509 CURVE SMOOTH",
"188 536 OFFCURVE",
"211 554 OFFCURVE",
"251 554 CURVE SMOOTH",
"268 554 OFFCURVE",
"279 553 OFFCURVE",
"287 552 CURVE",
"293 624 LINE",
"275 627 OFFCURVE",
"256 629 OFFCURVE",
"240 629 CURVE SMOOTH",
"150 629 OFFCURVE",
"109 578 OFFCURVE",
"109 524 CURVE SMOOTH",
"109 478 OFFCURVE",
"132 444 OFFCURVE",
"172 414 CURVE",
"126 391 OFFCURVE",
"81 365 OFFCURVE",
"37 339 CURVE",
"76 243 LINE",
"230 218 OFFCURVE",
"364 119 OFFCURVE",
"425 0 CURVE"
);
},
{
closed = 1;
nodes = (
"365 213 OFFCURVE",
"232 281 OFFCURVE",
"130 304 CURVE",
"219 358 OFFCURVE",
"327 406 OFFCURVE",
"424 439 CURVE",
"424 189 LINE SMOOTH",
"424 156 OFFCURVE",
"425 132 OFFCURVE",
"427 108 CURVE"
);
}
);
width = 596;
}
);
unicode = 114A1;
category = Letter;
},
{
glyphname = na_tirh;
lastChange = "2019-04-04 16:13:12 +0000";
layers = (
{
layerId = UUID0;
paths = (
{
closed = 1;
nodes = (
"343 317 OFFCURVE",
"230 386 OFFCURVE",
"146 386 CURVE SMOOTH",
"84 386 OFFCURVE",
"45 351 OFFCURVE",
"45 307 CURVE SMOOTH",
"45 263 OFFCURVE",
"82 243 OFFCURVE",
"114 243 CURVE SMOOTH",
"150 243 OFFCURVE",
"180 268 OFFCURVE",
"202 301 CURVE",
"341 232 OFFCURVE",
"430 81 OFFCURVE",
"432 0 CURVE",
"509 0 LINE",
"509 551 LINE",
"614 551 LINE",
"614 622 LINE",
"-10 622 LINE",
"-10 551 LINE",
"432 551 LINE",
"432 238 LINE SMOOTH",
"432 215 OFFCURVE",
"433 192 OFFCURVE",
"435 170 CURVE"
);
}
);
width = 604;
}
);
unicode = 114A2;
category = Letter;
},
{
glyphname = pa_tirh;
lastChange = "2019-04-04 16:13:12 +0000";
layers = (
{
layerId = UUID0;
paths = (
{
closed = 1;
nodes = (
"622 0 LINE",
"622 551 LINE",
"727 551 LINE",
"727 622 LINE",
"621 622 LINE",
"598 688 LINE",
"545 688 LINE",
"545 558 LINE SMOOTH",
"545 523 OFFCURVE",
"546 493 OFFCURVE",
"548 466 CURVE",
"464 575 OFFCURVE",
"395 629 OFFCURVE",
"291 629 CURVE SMOOTH",
"185 629 OFFCURVE",
"102 557 OFFCURVE",
"22 452 CURVE",
"98 380 LINE",
"119 393 OFFCURVE",
"139 398 OFFCURVE",
"160 398 CURVE SMOOTH",
"199 398 OFFCURVE",
"219 376 OFFCURVE",
"219 343 CURVE SMOOTH",
"219 317 OFFCURVE",
"209 296 OFFCURVE",
"196 278 CURVE",
"167 250 LINE",
"226 195 LINE",
"486 440 LINE",
"504 417 OFFCURVE",
"524 391 OFFCURVE",
"545 362 CURVE",
"545 0 LINE"
);
},
{
closed = 1;
nodes = (
"286 356 LINE SMOOTH",
"286 417 OFFCURVE",
"251 465 OFFCURVE",
"174 465 CURVE SMOOTH",
"154 465 OFFCURVE",
"137 460 OFFCURVE",
"120 452 CURVE",
"165 508 OFFCURVE",
"220 556 OFFCURVE",
"298 556 CURVE SMOOTH",
"350 556 OFFCURVE",
"391 536 OFFCURVE",
"437 493 CURVE",
"337 400 LINE SMOOTH",
"318 382 OFFCURVE",
"302 365 OFFCURVE",
"286 348 CURVE"
);
}
);
width = 716;
}
);
unicode = 114A3;
category = Letter;
},
{
glyphname = pha_tirh;
lastChange = "2019-04-04 16:13:12 +0000";
layers = (
{
layerId = UUID0;
paths = (
{
closed = 1;
nodes = (
"521 0 LINE",
"521 434 LINE",
"573 434 LINE SMOOTH",
"637 434 OFFCURVE",
"664 401 OFFCURVE",
"664 368 CURVE SMOOTH",
"664 337 OFFCURVE",
"648 302 OFFCURVE",
"599 302 CURVE SMOOTH",
"591 302 OFFCURVE",
"584 302 OFFCURVE",
"575 304 CURVE",
"570 233 LINE",
"588 229 OFFCURVE",
"608 228 OFFCURVE",
"613 228 CURVE SMOOTH",
"711 228 OFFCURVE",
"744 307 OFFCURVE",
"744 364 CURVE SMOOTH",
"744 442 OFFCURVE",
"702 510 OFFCURVE",
"551 510 CURVE SMOOTH",
"445 510 LINE",
"445 171 LINE SMOOTH",
"445 146 OFFCURVE",
"446 121 OFFCURVE",
"447 99 CURVE",
"388 163 OFFCURVE",
"341 213 OFFCURVE",
"251 243 CURVE",
"320 275 OFFCURVE",
"357 325 OFFCURVE",
"357 384 CURVE SMOOTH",
"357 463 OFFCURVE",
"304 521 OFFCURVE",
"207 521 CURVE SMOOTH",
"122 521 OFFCURVE",
"69 478 OFFCURVE",
"69 411 CURVE SMOOTH",
"69 400 OFFCURVE",
"74 371 OFFCURVE",
"84 356 CURVE",
"155 370 LINE",
"149 382 OFFCURVE",
"147 396 OFFCURVE",
"147 405 CURVE SMOOTH",
"147 431 OFFCURVE",
"164 455 OFFCURVE",
"207 455 CURVE SMOOTH",
"252 455 OFFCURVE",
"282 433 OFFCURVE",
"282 385 CURVE SMOOTH",
"282 296 OFFCURVE",
"142 273 OFFCURVE",
"91 273 CURVE",
"123 206 LINE",
"251 188 OFFCURVE",
"363 111 OFFCURVE",
"445 0 CURVE"
);
},
{
closed = 1;
nodes = (
"778 551 LINE",
"778 622 LINE",
"-10 622 LINE",
"-10 551 LINE"
);
}
);
width = 768;
}
);
unicode = 114A4;
category = Letter;
},
{
glyphname = bha_tirh;
lastChange = "2019-04-04 16:13:12 +0000";
layers = (
{
layerId = UUID0;
paths = (
{
closed = 1;
nodes = (
"537 43 OFFCURVE",
"619 136 OFFCURVE",
"619 289 CURVE SMOOTH",
"619 400 OFFCURVE",
"536 497 OFFCURVE",
"460 497 CURVE",
"440 482 OFFCURVE",
"427 448 OFFCURVE",
"414 413 CURVE SMOOTH",
"400 375 OFFCURVE",
"385 339 OFFCURVE",
"364 339 CURVE SMOOTH",
"349 339 OFFCURVE",
"342 359 OFFCURVE",
"335 384 CURVE SMOOTH",
"323 425 OFFCURVE",
"304 481 OFFCURVE",
"236 481 CURVE SMOOTH",
"212 481 OFFCURVE",
"184 470 OFFCURVE",
"168 456 CURVE",
"184 390 LINE",
"202 404 OFFCURVE",
"218 410 OFFCURVE",
"233 410 CURVE SMOOTH",
"258 410 OFFCURVE",
"266 385 OFFCURVE",
"274 356 CURVE SMOOTH",
"285 316 OFFCURVE",
"301 268 OFFCURVE",
"365 268 CURVE SMOOTH",
"434 268 OFFCURVE",
"463 349 OFFCURVE",
"477 390 CURVE SMOOTH",
"481 401 OFFCURVE",
"484 409 OFFCURVE",
"487 412 CURVE",
"505 412 OFFCURVE",
"542 352 OFFCURVE",
"542 283 CURVE SMOOTH",
"542 168 OFFCURVE",
"481 117 OFFCURVE",
"375 117 CURVE SMOOTH",
"241 117 OFFCURVE",
"161 221 OFFCURVE",
"89 485 CURVE",
"19 465 LINE",
"107 145 OFFCURVE",
"207 43 OFFCURVE",
"380 43 CURVE SMOOTH"
);
},
{
closed = 1;
nodes = (
"676 551 LINE",
"676 622 LINE",
"-10 622 LINE",
"-10 551 LINE"
);
}
);
width = 666;
}
);
unicode = 114A6;
category = Letter;
},
{
glyphname = ma_tirh;
lastChange = "2019-04-04 18:11:44 +0000";
layers = (
{
layerId = UUID0;
paths = (
{
closed = 1;
nodes = (
"527 0 LINE",
"527 551 LINE",
"632 551 LINE",
"632 622 LINE",
"-10 622 LINE",
"-10 551 LINE",
"56 551 LINE",
"42 492 LINE",
"191 478 OFFCURVE",
"206 390 OFFCURVE",
"206 324 CURVE SMOOTH",
"206 311 OFFCURVE",
"204 296 OFFCURVE",
"201 284 CURVE",
"144 284 OFFCURVE",
"93 250 OFFCURVE",
"93 202 CURVE SMOOTH",
"93 162 OFFCURVE",
"123 146 OFFCURVE",
"153 146 CURVE SMOOTH",
"186 146 OFFCURVE",
"222 164 OFFCURVE",
"250 202 CURVE",
"323 180 OFFCURVE",
"399 119 OFFCURVE",
"450 48 CURVE",
"450 0 LINE"
);
},
{
closed = 1;
nodes = (
"412 194 OFFCURVE",
"353 248 OFFCURVE",
"277 273 CURVE",
"280 289 OFFCURVE",
"282 309 OFFCURVE",
"282 331 CURVE SMOOTH",
"282 438 OFFCURVE",
"232 530 OFFCURVE",
"108 551 CURVE",
"450 551 LINE",
"450 217 LINE SMOOTH",
"450 192 OFFCURVE",
"451 167 OFFCURVE",
"452 144 CURVE"
);
}
);
width = 622;
}
);
unicode = 114A7;
category = Letter;
},
{
glyphname = ya_tirh;
lastChange = "2019-04-04 16:13:12 +0000";
layers = (
{
layerId = UUID0;
paths = (
{
closed = 1;
nodes = (
"531 0 LINE",
"531 551 LINE",
"636 551 LINE",
"636 622 LINE",
"-10 622 LINE",
"-10 551 LINE",
"70 551 LINE",
"48 502 LINE",
"138 484 OFFCURVE",
"201 454 OFFCURVE",
"252 416 CURVE",
"183 383 OFFCURVE",
"109 344 OFFCURVE",
"48 303 CURVE",
"84 212 LINE",
"267 185 OFFCURVE",
"371 111 OFFCURVE",
"455 0 CURVE"
);
},
{
closed = 1;
nodes = (
"374 189 OFFCURVE",
"275 252 OFFCURVE",
"114 278 CURVE",
"123 269 LINE",
"180 307 OFFCURVE",
"265 348 OFFCURVE",
"339 381 CURVE",
"336 436 LINE",
"287 483 OFFCURVE",
"219 525 OFFCURVE",
"144 551 CURVE",
"454 551 LINE",
"454 171 LINE SMOOTH",
"454 146 OFFCURVE",
"455 121 OFFCURVE",
"456 99 CURVE"
);
}
);
width = 626;
}
);
unicode = 114A8;
category = Letter;
},
{
glyphname = ra_tirh;
lastChange = "2019-04-04 16:13:12 +0000";
layers = (
{
layerId = UUID0;
paths = (
{
closed = 1;
nodes = (
"501 0 LINE",
"501 551 LINE",
"606 551 LINE",
"606 622 LINE",
"-10 622 LINE",
"-10 551 LINE",
"424 551 LINE",
"424 517 LINE",
"287 474 OFFCURVE",
"159 412 OFFCURVE",
"37 339 CURVE",
"76 243 LINE",
"230 218 OFFCURVE",
"364 119 OFFCURVE",
"425 0 CURVE"
);
},
{
closed = 1;
nodes = (
"361 219 OFFCURVE",
"216 289 OFFCURVE",
"112 308 CURVE",
"112 298 LINE",
"210 360 OFFCURVE",
"335 416 OFFCURVE",
"444 451 CURVE",
"424 472 LINE",
"424 189 LINE",
"424 156 OFFCURVE",
"425 132 OFFCURVE",
"427 108 CURVE"
);
}
);
width = 596;
}
);
unicode = 114A9;
category = Letter;
},
{
glyphname = la_tirh;
lastChange = "2019-04-04 16:13:12 +0000";
layers = (
{
layerId = UUID0;
paths = (
{
closed = 1;
nodes = (
"449 0 LINE",
"449 551 LINE",
"521 551 LINE",
"521 622 LINE",
"-10 622 LINE",
"-10 551 LINE",
"372 551 LINE",
"372 465 LINE SMOOTH",
"372 437 OFFCURVE",
"374 396 OFFCURVE",
"376 361 CURVE",
"345 413 OFFCURVE",
"287 472 OFFCURVE",
"198 472 CURVE SMOOTH",
"117 472 OFFCURVE",
"36 424 OFFCURVE",
"36 326 CURVE SMOOTH",
"36 254 OFFCURVE",
"84 195 OFFCURVE",
"166 161 CURVE",
"204 233 LINE",
"145 256 OFFCURVE",
"118 283 OFFCURVE",
"118 323 CURVE SMOOTH",
"118 374 OFFCURVE",
"150 399 OFFCURVE",
"197 399 CURVE SMOOTH",
"272 399 OFFCURVE",
"322 341 OFFCURVE",
"372 232 CURVE",
"372 0 LINE"
);
}
);
width = 511;
}
);
unicode = 114AA;
category = Letter;
},
{
glyphname = sha_tirh;
lastChange = "2019-04-04 16:13:12 +0000";
layers = (
{
layerId = UUID0;
paths = (
{
closed = 1;
nodes = (
"582 0 LINE",
"582 551 LINE",
"687 551 LINE",
"687 622 LINE",
"507 622 LINE",
"507 554 LINE",
"472 600 OFFCURVE",
"421 629 OFFCURVE",
"361 629 CURVE SMOOTH",
"303 629 OFFCURVE",
"248 600 OFFCURVE",
"226 539 CURVE",
"196 599 OFFCURVE",
"131 622 OFFCURVE",
"70 622 CURVE SMOOTH",
"-10 622 LINE",
"-10 551 LINE",
"62 551 LINE SMOOTH",
"132 551 OFFCURVE",
"181 522 OFFCURVE",
"181 468 CURVE SMOOTH",
"181 425 OFFCURVE",
"150 378 OFFCURVE",
"48 377 CURVE",
"54 300 LINE",
"150 300 OFFCURVE",
"206 342 OFFCURVE",
"229 398 CURVE",
"254 342 OFFCURVE",
"311 305 OFFCURVE",
"406 300 CURVE",
"413 377 LINE",
"317 381 OFFCURVE",
"276 417 OFFCURVE",
"276 471 CURVE SMOOTH",
"276 527 OFFCURVE",
"311 556 OFFCURVE",
"363 556 CURVE SMOOTH",
"419 556 OFFCURVE",
"467 519 OFFCURVE",
"505 454 CURVE",
"505 0 LINE"
);
},
{
closed = 1;
nodes = (
"577 591 LINE",
"577 614 LINE SMOOTH",
"577 733 OFFCURVE",
"530 771 OFFCURVE",
"409 771 CURVE SMOOTH",
"362 771 LINE SMOOTH",
"247 771 OFFCURVE",
"226 806 OFFCURVE",
"226 869 CURVE SMOOTH",
"226 882 OFFCURVE",
"228 892 OFFCURVE",
"231 907 CURVE",
"157 912 LINE",
"154 892 OFFCURVE",
"152 876 OFFCURVE",
"152 859 CURVE SMOOTH",
"152 763 OFFCURVE",
"195 699 OFFCURVE",
"367 699 CURVE SMOOTH",
"426 699 LINE SMOOTH",
"481 699 OFFCURVE",
"502 678 OFFCURVE",
"505 623 CURVE SMOOTH",
"507 581 LINE"
);
}
);
width = 677;
}
);
unicode = 114AC;
category = Letter;
},
{
glyphname = ssa_tirh;
lastChange = "2019-04-04 16:13:12 +0000";
layers = (
{
layerId = UUID0;
paths = (
{
closed = 1;
nodes = (
"538 0 LINE",
"538 551 LINE",
"643 551 LINE",
"643 622 LINE",
"-10 622 LINE",
"-10 551 LINE",
"69 551 LINE",
"48 502 LINE",
"117 487 OFFCURVE",
"193 457 OFFCURVE",
"264 418 CURVE",
"185 384 OFFCURVE",
"110 342 OFFCURVE",
"48 303 CURVE",
"84 212 LINE",
"267 185 OFFCURVE",
"363 115 OFFCURVE",
"461 0 CURVE"
);
},
{
closed = 1;
nodes = (
"383 181 OFFCURVE",
"288 247 OFFCURVE",
"142 275 CURVE",
"196 309 OFFCURVE",
"271 345 OFFCURVE",
"337 374 CURVE",
"383 343 OFFCURVE",
"426 308 OFFCURVE",
"461 271 CURVE",
"461 171 LINE SMOOTH",
"461 146 OFFCURVE",
"462 122 OFFCURVE",
"463 99 CURVE"
);
},
{
closed = 1;
nodes = (
"377 440 OFFCURVE",
"249 515 OFFCURVE",
"132 551 CURVE",
"461 551 LINE",
"461 434 LINE SMOOTH",
"461 409 OFFCURVE",
"462 384 OFFCURVE",
"463 359 CURVE"
);
}
);
width = 633;
}
);
unicode = 114AD;
category = Letter;
},
{
glyphname = sa_tirh;
lastChange = "2019-04-04 16:13:12 +0000";
layers = (
{
layerId = UUID0;
paths = (
{
closed = 1;
nodes = (
"587 0 LINE",
"587 551 LINE",
"692 551 LINE",
"692 622 LINE",
"-10 622 LINE",
"-10 551 LINE",
"49 551 LINE",
"38 495 LINE",
"125 484 OFFCURVE",
"180 472 OFFCURVE",
"214 441 CURVE SMOOTH",
"246 412 OFFCURVE",
"257 367 OFFCURVE",
"269 285 CURVE",
"232 223 OFFCURVE",
"206 205 OFFCURVE",
"180 205 CURVE SMOOTH",
"152 205 OFFCURVE",
"132 218 OFFCURVE",
"96 281 CURVE",
"35 244 LINE",
"90 156 OFFCURVE",
"134 127 OFFCURVE",
"188 127 CURVE SMOOTH",
"257 127 OFFCURVE",
"289 169 OFFCURVE",
"343 268 CURVE SMOOTH",
"393 359 OFFCURVE",
"407 375 OFFCURVE",
"436 375 CURVE SMOOTH",
"458 375 OFFCURVE",
"480 355 OFFCURVE",
"510 318 CURVE",
"510 0 LINE"
);
},
{
closed = 1;
nodes = (
"304 481 OFFCURVE",
"256 528 OFFCURVE",
"107 551 CURVE",
"510 551 LINE",
"510 458 LINE SMOOTH",
"510 437 OFFCURVE",
"510 418 OFFCURVE",
"513 397 CURVE",
"478 432 OFFCURVE",
"453 450 OFFCURVE",
"415 450 CURVE SMOOTH",
"377 450 OFFCURVE",
"349 429 OFFCURVE",
"314 359 CURVE"
);
}
);
width = 682;
}
);
unicode = 114AE;
category = Letter;
},
{
glyphname = ha_tirh;
lastChange = "2019-04-04 16:13:12 +0000";
layers = (
{
layerId = UUID0;
paths = (
{
closed = 1;
nodes = (
"500 -7 LINE",
"236 63 OFFCURVE",
"134 180 OFFCURVE",
"134 292 CURVE SMOOTH",
"134 377 OFFCURVE",
"205 419 OFFCURVE",
"287 419 CURVE SMOOTH",
"371 419 OFFCURVE",
"422 395 OFFCURVE",
"422 347 CURVE SMOOTH",
"422 312 OFFCURVE",
"402 296 OFFCURVE",
"369 296 CURVE SMOOTH",
"354 296 OFFCURVE",
"341 300 OFFCURVE",
"321 307 CURVE",
"304 240 LINE",
"328 231 OFFCURVE",
"355 224 OFFCURVE",
"382 224 CURVE SMOOTH",
"461 224 OFFCURVE",
"501 275 OFFCURVE",
"501 338 CURVE SMOOTH",
"501 433 OFFCURVE",
"429 483 OFFCURVE",
"324 494 CURVE",
"324 551 LINE",
"571 551 LINE",
"571 622 LINE",
"-10 622 LINE",
"-10 551 LINE",
"247 551 LINE",
"247 494 LINE",
"140 481 OFFCURVE",
"56 408 OFFCURVE",
"56 294 CURVE SMOOTH",
"56 169 OFFCURVE",
"139 25 OFFCURVE",
"472 -74 CURVE"
);
}
);
width = 561;
}
);
unicode = 114AF;
category = Letter;
},
{
glyphname = aaMatra_tirh;
lastChange = "2019-04-04 16:12:34 +0000";
layers = (
{
anchors = (
{
name = "	";
position = "{50, 630}";
}
);
layerId = UUID0;
paths = (
{
closed = 1;
nodes = (
"172 0 LINE",
"172 551 LINE",
"276 551 LINE",
"276 622 LINE",
"170 622 LINE",
"148 688 LINE",
"95 688 LINE",
"95 613 LINE SMOOTH",
"95 596 OFFCURVE",
"97 566 OFFCURVE",
"98 559 CURVE",
"76 601 OFFCURVE",
"38 622 OFFCURVE",
"6 622 CURVE SMOOTH",
"-10 622 LINE",
"-10 551 LINE",
"-1 551 LINE SMOOTH",
"48 551 OFFCURVE",
"79 514 OFFCURVE",
"95 469 CURVE",
"95 0 LINE"
);
}
);
width = 266;
}
);
unicode = 114B0;
category = Letter;
},
{
glyphname = iMatra_tirh;
lastChange = "2019-04-04 16:13:10 +0000";
layers = (
{
layerId = UUID0;
paths = (
{
closed = 1;
nodes = (
"173 0 LINE",
"173 551 LINE",
"277 551 LINE",
"277 622 LINE",
"161 622 LINE",
"137 648 OFFCURVE",
"117 673 OFFCURVE",
"107 693 CURVE",
"155 782 OFFCURVE",
"215 844 OFFCURVE",
"326 844 CURVE SMOOTH",
"439 844 OFFCURVE",
"525 789 OFFCURVE",
"664 677 CURVE",
"706 731 LINE",
"568 844 OFFCURVE",
"455 917 OFFCURVE",
"314 917 CURVE SMOOTH",
"164 917 OFFCURVE",
"88 822 OFFCURVE",
"21 704 CURVE",
"38 676 OFFCURVE",
"62 647 OFFCURVE",
"83 622 CURVE",
"-9 622 LINE",
"-9 551 LINE",
"96 551 LINE",
"96 0 LINE"
);
}
);
width = 266;
}
);
unicode = 114B1;
category = Letter;
},
{
glyphname = iiMatra_tirh;
lastChange = "2019-04-04 16:13:10 +0000";
layers = (
{
guideLines = (
{
angle = 90;
position = "{486, 415}";
}
);
layerId = UUID0;
paths = (
{
closed = 1;
nodes = (
"171 0 LINE",
"171 551 LINE",
"276 551 LINE",
"276 622 LINE",
"184 622 LINE",
"205 647 OFFCURVE",
"229 676 OFFCURVE",
"246 704 CURVE",
"179 822 OFFCURVE",
"103 917 OFFCURVE",
"-47 917 CURVE SMOOTH",
"-188 917 OFFCURVE",
"-301 844 OFFCURVE",
"-439 731 CURVE",
"-397 677 LINE",
"-258 789 OFFCURVE",
"-172 844 OFFCURVE",
"-59 844 CURVE SMOOTH",
"52 844 OFFCURVE",
"112 782 OFFCURVE",
"160 693 CURVE",
"150 673 OFFCURVE",
"130 648 OFFCURVE",
"106 622 CURVE",
"-10 622 LINE",
"-10 551 LINE",
"94 551 LINE",
"94 0 LINE"
);
}
);
width = 266;
}
);
unicode = 114B2;
category = Letter;
},
{
glyphname = uMatra_tirh;
lastChange = "2019-04-04 16:13:12 +0000";
layers = (
{
layerId = UUID0;
paths = (
{
closed = 1;
nodes = (
"-92 -262 OFFCURVE",
"-57 -258 OFFCURVE",
"-38 -255 CURVE",
"-38 -193 LINE",
"-59 -197 OFFCURVE",
"-86 -200 OFFCURVE",
"-118 -200 CURVE SMOOTH",
"-139 -200 OFFCURVE",
"-153 -199 OFFCURVE",
"-164 -197 CURVE",
"-153 -178 OFFCURVE",
"-148 -156 OFFCURVE",
"-148 -132 CURVE SMOOTH",
"-148 -55 OFFCURVE",
"-201 -19 OFFCURVE",
"-276 -19 CURVE SMOOTH",
"-312 -19 OFFCURVE",
"-382 -36 OFFCURVE",
"-395 -99 CURVE",
"-336 -126 LINE",
"-329 -102 OFFCURVE",
"-316 -84 OFFCURVE",
"-275 -84 CURVE SMOOTH",
"-241 -84 OFFCURVE",
"-217 -100 OFFCURVE",
"-217 -136 CURVE SMOOTH",
"-217 -161 OFFCURVE",
"-231 -186 OFFCURVE",
"-274 -186 CURVE SMOOTH",
"-379 -186 LINE",
"-379 -249 LINE",
"-272 -249 LINE SMOOTH",
"-254 -249 OFFCURVE",
"-237 -247 OFFCURVE",
"-223 -242 CURVE",
"-192 -257 OFFCURVE",
"-158 -262 OFFCURVE",
"-123 -262 CURVE SMOOTH"
);
}
);
width = 0;
}
);
unicode = 114B3;
category = Mark;
subCategory = Nonspacing;
},
{
glyphname = uuMatra_tirh;
lastChange = "2019-04-04 16:13:12 +0000";
layers = (
{
layerId = UUID0;
paths = (
{
closed = 1;
nodes = (
"163 -216 LINE",
"80 -179 OFFCURVE",
"13 -170 OFFCURVE",
"-44 -170 CURVE SMOOTH",
"-95 -170 OFFCURVE",
"-138 -177 OFFCURVE",
"-179 -177 CURVE SMOOTH",
"-211 -177 OFFCURVE",
"-235 -164 OFFCURVE",
"-235 -138 CURVE SMOOTH",
"-235 -112 OFFCURVE",
"-211 -98 OFFCURVE",
"-165 -98 CURVE SMOOTH",
"-151 -98 OFFCURVE",
"-137 -99 OFFCURVE",
"-128 -100 CURVE",
"-96 -54 LINE",
"-96 10 LINE",
"-173 10 LINE",
"-173 -34 LINE",
"-247 -35 OFFCURVE",
"-308 -71 OFFCURVE",
"-308 -131 CURVE SMOOTH",
"-308 -209 OFFCURVE",
"-235 -239 OFFCURVE",
"-177 -239 CURVE SMOOTH",
"-118 -239 OFFCURVE",
"-81 -232 OFFCURVE",
"-44 -232 CURVE SMOOTH",
"0 -232 OFFCURVE",
"43 -241 OFFCURVE",
"121 -269 CURVE"
);
}
);
width = 0;
}
);
unicode = 114B4;
category = Mark;
subCategory = Nonspacing;
},
{
glyphname = rVocalicMatra_tirh;
lastChange = "2019-04-04 16:13:12 +0000";
layers = (
{
layerId = UUID0;
paths = (
{
closed = 1;
nodes = (
"-113 -270 OFFCURVE",
"-80 -263 OFFCURVE",
"-54 -253 CURVE",
"-54 -185 LINE",
"-78 -197 OFFCURVE",
"-112 -205 OFFCURVE",
"-150 -205 CURVE SMOOTH",
"-186 -205 OFFCURVE",
"-210 -189 OFFCURVE",
"-210 -153 CURVE SMOOTH",
"-210 -128 OFFCURVE",
"-196 -97 OFFCURVE",
"-153 -97 CURVE SMOOTH",
"-139 -97 OFFCURVE",
"-124 -101 OFFCURVE",
"-120 -103 CURVE",
"-96 -70 LINE",
"-96 10 LINE",
"-173 10 LINE",
"-173 -34 LINE",
"-240 -44 OFFCURVE",
"-279 -93 OFFCURVE",
"-279 -157 CURVE SMOOTH",
"-279 -234 OFFCURVE",
"-226 -270 OFFCURVE",
"-151 -270 CURVE SMOOTH"
);
}
);
width = 0;
}
);
unicode = 114B5;
category = Mark;
subCategory = Nonspacing;
},
{
glyphname = rrVocalicMatra_tirh;
lastChange = "2019-04-04 16:13:12 +0000";
layers = (
{
layerId = UUID0;
paths = (
{
closed = 1;
nodes = (
"-113 -400 OFFCURVE",
"-80 -393 OFFCURVE",
"-54 -383 CURVE",
"-54 -315 LINE",
"-78 -327 OFFCURVE",
"-112 -335 OFFCURVE",
"-150 -335 CURVE SMOOTH",
"-186 -335 OFFCURVE",
"-210 -320 OFFCURVE",
"-210 -293 CURVE SMOOTH",
"-210 -278 OFFCURVE",
"-206 -261 OFFCURVE",
"-177 -248 CURVE",
"-169 -249 OFFCURVE",
"-160 -250 OFFCURVE",
"-151 -250 CURVE SMOOTH",
"-122 -250 OFFCURVE",
"-96 -246 OFFCURVE",
"-73 -239 CURVE",
"-73 -173 LINE",
"-95 -180 OFFCURVE",
"-121 -185 OFFCURVE",
"-150 -185 CURVE SMOOTH",
"-186 -185 OFFCURVE",
"-210 -170 OFFCURVE",
"-210 -144 CURVE SMOOTH",
"-210 -120 OFFCURVE",
"-196 -97 OFFCURVE",
"-153 -97 CURVE SMOOTH",
"-138 -97 OFFCURVE",
"-129 -100 OFFCURVE",
"-120 -103 CURVE",
"-96 -70 LINE",
"-96 10 LINE",
"-173 10 LINE",
"-173 -34 LINE",
"-240 -44 OFFCURVE",
"-279 -93 OFFCURVE",
"-279 -146 CURVE SMOOTH",
"-279 -182 OFFCURVE",
"-266 -208 OFFCURVE",
"-245 -224 CURVE",
"-270 -244 OFFCURVE",
"-279 -269 OFFCURVE",
"-279 -297 CURVE SMOOTH",
"-279 -366 OFFCURVE",
"-226 -400 OFFCURVE",
"-151 -400 CURVE SMOOTH"
);
}
);
width = 0;
}
);
unicode = 114B6;
category = Mark;
subCategory = Nonspacing;
},
{
glyphname = lVocalicMatra_tirh;
lastChange = "2019-04-04 16:13:12 +0000";
layers = (
{
layerId = UUID0;
paths = (
{
closed = 1;
nodes = (
"-123 -406 OFFCURVE",
"-104 -402 OFFCURVE",
"-85 -396 CURVE",
"-85 -337 LINE",
"-102 -342 OFFCURVE",
"-123 -346 OFFCURVE",
"-147 -346 CURVE SMOOTH",
"-175 -346 OFFCURVE",
"-192 -334 OFFCURVE",
"-192 -309 CURVE SMOOTH",
"-192 -291 OFFCURVE",
"-183 -273 OFFCURVE",
"-150 -273 CURVE SMOOTH",
"-139 -273 OFFCURVE",
"-124 -276 OFFCURVE",
"-121 -277 CURVE",
"-96 -263 LINE",
"-96 10 LINE",
"-173 10 LINE",
"-173 -74 LINE",
"-204 -51 OFFCURVE",
"-243 -31 OFFCURVE",
"-279 -31 CURVE SMOOTH",
"-334 -31 OFFCURVE",
"-383 -61 OFFCURVE",
"-383 -123 CURVE SMOOTH",
"-383 -186 OFFCURVE",
"-329 -223 OFFCURVE",
"-290 -233 CURVE",
"-263 -179 LINE",
"-289 -172 OFFCURVE",
"-319 -151 OFFCURVE",
"-319 -129 CURVE SMOOTH",
"-319 -102 OFFCURVE",
"-305 -87 OFFCURVE",
"-275 -87 CURVE SMOOTH",
"-238 -87 OFFCURVE",
"-199 -106 OFFCURVE",
"-173 -137 CURVE",
"-173 -218 LINE",
"-224 -224 OFFCURVE",
"-256 -264 OFFCURVE",
"-256 -312 CURVE SMOOTH",
"-256 -368 OFFCURVE",
"-215 -406 OFFCURVE",
"-148 -406 CURVE SMOOTH"
);
}
);
width = 0;
}
);
unicode = 114B7;
category = Mark;
subCategory = Nonspacing;
},
{
glyphname = llVocalicMatra_tirh;
lastChange = "2019-04-04 16:13:12 +0000";
layers = (
{
layerId = UUID0;
paths = (
{
closed = 1;
nodes = (
"-123 -516 OFFCURVE",
"-104 -512 OFFCURVE",
"-85 -506 CURVE",
"-85 -447 LINE",
"-102 -452 OFFCURVE",
"-123 -456 OFFCURVE",
"-147 -456 CURVE SMOOTH",
"-175 -456 OFFCURVE",
"-192 -447 OFFCURVE",
"-192 -425 CURVE SMOOTH",
"-192 -414 OFFCURVE",
"-187 -400 OFFCURVE",
"-168 -395 CURVE",
"-157 -396 OFFCURVE",
"-155 -396 OFFCURVE",
"-148 -396 CURVE SMOOTH",
"-123 -396 OFFCURVE",
"-104 -392 OFFCURVE",
"-85 -386 CURVE",
"-85 -327 LINE",
"-102 -332 OFFCURVE",
"-123 -336 OFFCURVE",
"-147 -336 CURVE SMOOTH",
"-175 -336 OFFCURVE",
"-192 -327 OFFCURVE",
"-192 -305 CURVE SMOOTH",
"-192 -291 OFFCURVE",
"-183 -273 OFFCURVE",
"-150 -273 CURVE SMOOTH",
"-139 -273 OFFCURVE",
"-124 -276 OFFCURVE",
"-121 -277 CURVE",
"-96 -263 LINE",
"-96 10 LINE",
"-173 10 LINE",
"-173 -74 LINE",
"-204 -51 OFFCURVE",
"-243 -31 OFFCURVE",
"-279 -31 CURVE SMOOTH",
"-334 -31 OFFCURVE",
"-383 -61 OFFCURVE",
"-383 -123 CURVE SMOOTH",
"-383 -186 OFFCURVE",
"-329 -223 OFFCURVE",
"-290 -233 CURVE",
"-263 -179 LINE",
"-289 -172 OFFCURVE",
"-319 -151 OFFCURVE",
"-319 -129 CURVE SMOOTH",
"-319 -102 OFFCURVE",
"-305 -87 OFFCURVE",
"-275 -87 CURVE SMOOTH",
"-238 -87 OFFCURVE",
"-199 -106 OFFCURVE",
"-173 -137 CURVE",
"-173 -218 LINE",
"-224 -224 OFFCURVE",
"-256 -264 OFFCURVE",
"-256 -309 CURVE SMOOTH",
"-256 -333 OFFCURVE",
"-247 -352 OFFCURVE",
"-232 -367 CURVE",
"-247 -384 OFFCURVE",
"-256 -406 OFFCURVE",
"-256 -429 CURVE SMOOTH",
"-256 -482 OFFCURVE",
"-215 -516 OFFCURVE",
"-148 -516 CURVE SMOOTH"
);
}
);
width = 0;
}
);
unicode = 114B8;
category = Mark;
subCategory = Nonspacing;
},
{
glyphname = eMatra_tirh;
lastChange = "2019-04-04 16:11:36 +0000";
layers = (
{
layerId = UUID0;
paths = (
{
closed = 1;
nodes = (
"305 -5 OFFCURVE",
"348 4 OFFCURVE",
"383 31 CURVE",
"348 92 LINE",
"318 75 OFFCURVE",
"296 69 OFFCURVE",
"267 69 CURVE SMOOTH",
"203 69 OFFCURVE",
"128 117 OFFCURVE",
"128 262 CURVE SMOOTH",
"128 422 OFFCURVE",
"254 532 OFFCURVE",
"335 551 CURVE",
"356 551 LINE",
"356 622 LINE",
"-10 622 LINE",
"-10 551 LINE",
"130 551 LINE SMOOTH",
"161 551 OFFCURVE",
"185 551 OFFCURVE",
"207 554 CURVE",
"115 496 OFFCURVE",
"49 391 OFFCURVE",
"49 260 CURVE SMOOTH",
"49 100 OFFCURVE",
"137 -5 OFFCURVE",
"264 -5 CURVE SMOOTH"
);
}
);
width = 346;
}
);
unicode = 114B9;
category = Letter;
},
{
glyphname = shortEMatra_tirh;
lastChange = "2019-04-04 16:13:10 +0000";
layers = (
{
guideLines = (
{
position = "{-700, 912}";
}
);
layerId = UUID0;
paths = (
{
closed = 1;
nodes = (
"-245 622 LINE",
"-249 738 OFFCURVE",
"-296 771 OFFCURVE",
"-418 771 CURVE SMOOTH",
"-422 771 LINE SMOOTH",
"-537 771 OFFCURVE",
"-558 806 OFFCURVE",
"-558 869 CURVE SMOOTH",
"-558 882 OFFCURVE",
"-556 892 OFFCURVE",
"-553 907 CURVE",
"-627 912 LINE",
"-630 892 OFFCURVE",
"-632 876 OFFCURVE",
"-632 859 CURVE SMOOTH",
"-632 763 OFFCURVE",
"-589 699 OFFCURVE",
"-417 699 CURVE SMOOTH",
"-397 699 LINE SMOOTH",
"-338 699 OFFCURVE",
"-318 670 OFFCURVE",
"-317 622 CURVE"
);
}
);
width = 0;
}
);
unicode = 114BA;
category = Mark;
},
{
glyphname = shortOMatra_tirh;
lastChange = "2019-04-04 16:13:10 +0000";
layers = (
{
layerId = UUID0;
paths = (
{
closed = 1;
nodes = (
"171 0 LINE",
"171 551 LINE",
"276 551 LINE",
"276 622 LINE",
"-10 622 LINE",
"-10 551 LINE",
"94 551 LINE",
"94 0 LINE"
);
},
{
closed = 1;
nodes = (
"171 0 LINE",
"171 551 LINE",
"276 551 LINE",
"276 622 LINE",
"171 622 LINE",
"167 740 OFFCURVE",
"119 771 OFFCURVE",
"-2 771 CURVE SMOOTH",
"-64 771 LINE SMOOTH",
"-179 771 OFFCURVE",
"-200 806 OFFCURVE",
"-200 869 CURVE SMOOTH",
"-200 882 OFFCURVE",
"-198 892 OFFCURVE",
"-195 907 CURVE",
"-269 912 LINE",
"-272 892 OFFCURVE",
"-274 876 OFFCURVE",
"-274 859 CURVE SMOOTH",
"-274 763 OFFCURVE",
"-231 699 OFFCURVE",
"-59 699 CURVE SMOOTH",
"20 699 LINE SMOOTH",
"75 699 OFFCURVE",
"97 677 OFFCURVE",
"99 622 CURVE",
"-10 622 LINE",
"-10 551 LINE",
"94 551 LINE",
"94 0 LINE"
);
}
);
width = 266;
}
);
unicode = 114BD;
category = Letter;
},
{
glyphname = candrabindu_tirh;
lastChange = "2019-04-04 16:13:10 +0000";
layers = (
{
guideLines = (
{
position = "{-591, 665}";
}
);
layerId = UUID0;
paths = (
{
closed = 1;
nodes = (
"-185 665 OFFCURVE",
"-136 740 OFFCURVE",
"-127 841 CURVE",
"-197 850 LINE",
"-204 772 OFFCURVE",
"-238 731 OFFCURVE",
"-304 731 CURVE SMOOTH",
"-374 731 OFFCURVE",
"-403 775 OFFCURVE",
"-410 849 CURVE",
"-479 840 LINE",
"-469 740 OFFCURVE",
"-416 665 OFFCURVE",
"-300 665 CURVE SMOOTH"
);
},
{
closed = 1;
nodes = (
"-278 768 OFFCURVE",
"-259 783 OFFCURVE",
"-259 810 CURVE SMOOTH",
"-259 838 OFFCURVE",
"-274 853 OFFCURVE",
"-304 853 CURVE SMOOTH",
"-334 853 OFFCURVE",
"-347 834 OFFCURVE",
"-347 813 CURVE SMOOTH",
"-347 786 OFFCURVE",
"-332 768 OFFCURVE",
"-303 768 CURVE SMOOTH"
);
}
);
width = 0;
}
);
unicode = 114BF;
category = Mark;
},
{
glyphname = anusvara_tirh;
lastChange = "2019-04-04 16:13:10 +0000";
layers = (
{
layerId = UUID0;
paths = (
{
closed = 1;
nodes = (
"-220 665 OFFCURVE",
"-159 723 OFFCURVE",
"-159 802 CURVE SMOOTH",
"-159 880 OFFCURVE",
"-220 938 OFFCURVE",
"-300 938 CURVE SMOOTH",
"-380 938 OFFCURVE",
"-441 880 OFFCURVE",
"-441 802 CURVE SMOOTH",
"-441 722 OFFCURVE",
"-380 665 OFFCURVE",
"-300 665 CURVE SMOOTH"
);
},
{
closed = 1;
nodes = (
"-342 730 OFFCURVE",
"-372 760 OFFCURVE",
"-372 802 CURVE SMOOTH",
"-372 842 OFFCURVE",
"-342 874 OFFCURVE",
"-300 874 CURVE SMOOTH",
"-258 874 OFFCURVE",
"-228 842 OFFCURVE",
"-228 802 CURVE SMOOTH",
"-228 761 OFFCURVE",
"-258 730 OFFCURVE",
"-300 730 CURVE SMOOTH"
);
}
);
width = 0;
}
);
unicode = 114C0;
category = Mark;
},
{
glyphname = visarga_tirh;
lastChange = "2019-04-04 16:11:36 +0000";
layers = (
{
layerId = UUID0;
paths = (
{
closed = 1;
nodes = (
"309 349 OFFCURVE",
"370 407 OFFCURVE",
"370 486 CURVE SMOOTH",
"370 564 OFFCURVE",
"309 622 OFFCURVE",
"229 622 CURVE SMOOTH",
"149 622 OFFCURVE",
"88 564 OFFCURVE",
"88 486 CURVE SMOOTH",
"88 406 OFFCURVE",
"149 349 OFFCURVE",
"229 349 CURVE SMOOTH"
);
},
{
closed = 1;
nodes = (
"309 0 OFFCURVE",
"370 58 OFFCURVE",
"370 137 CURVE SMOOTH",
"370 215 OFFCURVE",
"309 273 OFFCURVE",
"229 273 CURVE SMOOTH",
"149 273 OFFCURVE",
"88 215 OFFCURVE",
"88 137 CURVE SMOOTH",
"88 57 OFFCURVE",
"149 0 OFFCURVE",
"229 0 CURVE SMOOTH"
);
},
{
closed = 1;
nodes = (
"187 65 OFFCURVE",
"157 95 OFFCURVE",
"157 137 CURVE SMOOTH",
"157 177 OFFCURVE",
"187 208 OFFCURVE",
"229 208 CURVE SMOOTH",
"271 208 OFFCURVE",
"301 177 OFFCURVE",
"301 137 CURVE SMOOTH",
"301 96 OFFCURVE",
"271 65 OFFCURVE",
"229 65 CURVE SMOOTH"
);
},
{
closed = 1;
nodes = (
"187 414 OFFCURVE",
"157 444 OFFCURVE",
"157 486 CURVE SMOOTH",
"157 526 OFFCURVE",
"187 558 OFFCURVE",
"229 558 CURVE SMOOTH",
"271 558 OFFCURVE",
"301 526 OFFCURVE",
"301 486 CURVE SMOOTH",
"301 445 OFFCURVE",
"271 414 OFFCURVE",
"229 414 CURVE SMOOTH"
);
}
);
width = 458;
}
);
unicode = 114C1;
category = Letter;
},
{
glyphname = virama_tirh;
lastChange = "2019-04-04 16:12:59 +0000";
layers = (
{
layerId = UUID0;
paths = (
{
closed = 1;
nodes = (
"-6 -184 LINE",
"-243 -8 LINE",
"-286 -60 LINE",
"-49 -238 LINE"
);
}
);
width = 0;
}
);
unicode = 114C2;
category = Mark;
},
{
glyphname = nukta_tirh;
lastChange = "2019-04-04 16:13:12 +0000";
layers = (
{
layerId = UUID0;
paths = (
{
closed = 1;
nodes = (
"-242 -183 OFFCURVE",
"-214 -160 OFFCURVE",
"-214 -125 CURVE SMOOTH",
"-214 -90 OFFCURVE",
"-241 -65 OFFCURVE",
"-273 -65 CURVE SMOOTH",
"-306 -65 OFFCURVE",
"-333 -90 OFFCURVE",
"-333 -125 CURVE SMOOTH",
"-333 -159 OFFCURVE",
"-305 -183 OFFCURVE",
"-273 -183 CURVE SMOOTH"
);
}
);
width = 0;
}
);
unicode = 114C3;
category = Mark;
subCategory = Nonspacing;
},
{
glyphname = avagraha_tirh;
lastChange = "2019-04-04 16:11:36 +0000";
layers = (
{
layerId = UUID0;
paths = (
{
closed = 1;
nodes = (
"540 -10 LINE",
"454 57 OFFCURVE",
"357 114 OFFCURVE",
"273 143 CURVE",
"399 160 OFFCURVE",
"464 225 OFFCURVE",
"464 325 CURVE SMOOTH",
"464 401 OFFCURVE",
"408 486 OFFCURVE",
"276 498 CURVE",
"276 622 LINE",
"-10 622 LINE",
"-10 551 LINE",
"200 551 LINE",
"200 497 LINE",
"121 487 OFFCURVE",
"70 447 OFFCURVE",
"70 384 CURVE SMOOTH",
"70 366 OFFCURVE",
"74 343 OFFCURVE",
"81 323 CURVE",
"154 338 LINE",
"150 346 OFFCURVE",
"147 359 OFFCURVE",
"147 370 CURVE SMOOTH",
"147 408 OFFCURVE",
"174 430 OFFCURVE",
"247 430 CURVE SMOOTH",
"327 430 OFFCURVE",
"385 391 OFFCURVE",
"385 320 CURVE SMOOTH",
"385 263 OFFCURVE",
"348 204 OFFCURVE",
"207 204 CURVE SMOOTH",
"146 204 OFFCURVE",
"107 209 OFFCURVE",
"61 223 CURVE",
"46 154 LINE",
"235 110 OFFCURVE",
"329 60 OFFCURVE",
"494 -63 CURVE"
);
}
);
width = 530;
}
);
unicode = 114C4;
category = Letter;
},
{
glyphname = gvang_tirh;
lastChange = "2019-04-04 16:11:36 +0000";
layers = (
{
layerId = UUID0;
paths = (
{
closed = 1;
nodes = (
"212 0 LINE",
"347 349 LINE",
"323 349 LINE",
"458 0 LINE",
"532 0 LINE",
"600 488 LINE SMOOTH",
"605 527 OFFCURVE",
"609 545 OFFCURVE",
"640 551 CURVE",
"640 622 LINE",
"551 616 OFFCURVE",
"534 577 OFFCURVE",
"524 499 CURVE SMOOTH",
"473 115 LINE",
"490 117 LINE",
"358 460 LINE",
"312 460 LINE",
"182 118 LINE",
"198 116 LINE",
"147 499 LINE SMOOTH",
"137 577 OFFCURVE",
"119 616 OFFCURVE",
"30 622 CURVE",
"30 551 LINE",
"61 545 OFFCURVE",
"65 527 OFFCURVE",
"70 488 CURVE SMOOTH",
"138 0 LINE"
);
},
{
closed = 1;
nodes = (
"373 590 OFFCURVE",
"401 613 OFFCURVE",
"401 648 CURVE SMOOTH",
"401 683 OFFCURVE",
"374 708 OFFCURVE",
"342 708 CURVE SMOOTH",
"309 708 OFFCURVE",
"282 683 OFFCURVE",
"282 648 CURVE SMOOTH",
"282 614 OFFCURVE",
"310 590 OFFCURVE",
"342 590 CURVE SMOOTH"
);
}
);
width = 670;
}
);
unicode = 114C5;
category = Letter;
},
{
glyphname = abbreviationSign_tirh;
lastChange = "2019-04-04 16:11:36 +0000";
layers = (
{
layerId = UUID0;
paths = (
{
closed = 1;
nodes = (
"309 170 OFFCURVE",
"370 228 OFFCURVE",
"370 307 CURVE SMOOTH",
"370 385 OFFCURVE",
"309 443 OFFCURVE",
"229 443 CURVE SMOOTH",
"149 443 OFFCURVE",
"88 385 OFFCURVE",
"88 307 CURVE SMOOTH",
"88 227 OFFCURVE",
"149 170 OFFCURVE",
"229 170 CURVE SMOOTH"
);
},
{
closed = 1;
nodes = (
"187 235 OFFCURVE",
"157 265 OFFCURVE",
"157 307 CURVE SMOOTH",
"157 347 OFFCURVE",
"187 378 OFFCURVE",
"229 378 CURVE SMOOTH",
"271 378 OFFCURVE",
"301 347 OFFCURVE",
"301 307 CURVE SMOOTH",
"301 266 OFFCURVE",
"271 235 OFFCURVE",
"229 235 CURVE SMOOTH"
);
}
);
width = 458;
}
);
unicode = 114C6;
category = Letter;
},
{
glyphname = om_tirh;
lastChange = "2019-04-04 16:11:36 +0000";
layers = (
{
layerId = UUID0;
paths = (
{
closed = 1;
nodes = (
"593 42 OFFCURVE",
"681 114 OFFCURVE",
"681 225 CURVE SMOOTH",
"681 236 OFFCURVE",
"680 247 OFFCURVE",
"678 258 CURVE",
"712 278 OFFCURVE",
"733 299 OFFCURVE",
"752 320 CURVE SMOOTH",
"777 347 OFFCURVE",
"798 368 OFFCURVE",
"840 368 CURVE SMOOTH",
"875 368 OFFCURVE",
"902 348 OFFCURVE",
"902 312 CURVE SMOOTH",
"902 278 OFFCURVE",
"874 250 OFFCURVE",
"803 239 CURVE",
"820 171 LINE",
"955 199 OFFCURVE",
"977 270 OFFCURVE",
"977 320 CURVE SMOOTH",
"977 387 OFFCURVE",
"928 437 OFFCURVE",
"845 437 CURVE SMOOTH",
"783 437 OFFCURVE",
"747 404 OFFCURVE",
"713 373 CURVE SMOOTH",
"692 354 OFFCURVE",
"671 335 OFFCURVE",
"647 325 CURVE",
"638 337 OFFCURVE",
"626 348 OFFCURVE",
"613 358 CURVE",
"649 391 OFFCURVE",
"671 433 OFFCURVE",
"671 483 CURVE SMOOTH",
"671 574 OFFCURVE",
"611 629 OFFCURVE",
"509 629 CURVE SMOOTH",
"371 629 OFFCURVE",
"250 521 OFFCURVE",
"250 431 CURVE SMOOTH",
"250 374 OFFCURVE",
"289 335 OFFCURVE",
"365 321 CURVE",
"386 395 LINE",
"339 402 OFFCURVE",
"331 418 OFFCURVE",
"331 439 CURVE SMOOTH",
"331 484 OFFCURVE",
"413 558 OFFCURVE",
"509 558 CURVE SMOOTH",
"562 558 OFFCURVE",
"591 531 OFFCURVE",
"591 482 CURVE SMOOTH",
"591 419 OFFCURVE",
"538 383 OFFCURVE",
"449 354 CURVE",
"480 282 LINE",
"506 291 OFFCURVE",
"530 302 OFFCURVE",
"552 314 CURVE",
"581 292 OFFCURVE",
"601 264 OFFCURVE",
"601 228 CURVE SMOOTH",
"601 152 OFFCURVE",
"539 118 OFFCURVE",
"455 118 CURVE SMOOTH",
"286 118 OFFCURVE",
"184 242 OFFCURVE",
"104 529 CURVE",
"28 507 LINE",
"117 168 OFFCURVE",
"265 42 OFFCURVE",
"453 42 CURVE SMOOTH"
);
},
{
closed = 1;
nodes = (
"556 698 OFFCURVE",
"592 708 OFFCURVE",
"623 720 CURVE SMOOTH",
"655 732 OFFCURVE",
"685 743 OFFCURVE",
"733 743 CURVE SMOOTH",
"778 743 OFFCURVE",
"816 727 OFFCURVE",
"840 708 CURVE",
"881 757 LINE",
"847 788 OFFCURVE",
"792 810 OFFCURVE",
"734 810 CURVE SMOOTH",
"692 810 OFFCURVE",
"656 800 OFFCURVE",
"621 788 CURVE SMOOTH",
"587 776 OFFCURVE",
"548 765 OFFCURVE",
"504 765 CURVE SMOOTH",
"462 765 OFFCURVE",
"429 776 OFFCURVE",
"396 787 CURVE SMOOTH",
"361 799 OFFCURVE",
"325 810 OFFCURVE",
"275 810 CURVE SMOOTH",
"217 810 OFFCURVE",
"162 788 OFFCURVE",
"128 757 CURVE",
"169 708 LINE",
"187 725 OFFCURVE",
"231 743 OFFCURVE",
"276 743 CURVE SMOOTH",
"327 743 OFFCURVE",
"360 732 OFFCURVE",
"393 720 CURVE SMOOTH",
"424 709 OFFCURVE",
"458 698 OFFCURVE",
"505 698 CURVE SMOOTH"
);
},
{
closed = 1;
nodes = (
"529 823 OFFCURVE",
"548 838 OFFCURVE",
"548 865 CURVE SMOOTH",
"548 893 OFFCURVE",
"533 908 OFFCURVE",
"503 908 CURVE SMOOTH",
"473 908 OFFCURVE",
"460 889 OFFCURVE",
"460 868 CURVE SMOOTH",
"460 841 OFFCURVE",
"475 823 OFFCURVE",
"504 823 CURVE SMOOTH"
);
}
);
width = 1007;
}
);
unicode = 114C7;
category = Letter;
},
{
glyphname = zero_tirh;
lastChange = "2019-04-04 16:11:36 +0000";
layers = (
{
layerId = UUID0;
paths = (
{
closed = 1;
nodes = (
"424 91 OFFCURVE",
"498 193 OFFCURVE",
"498 314 CURVE SMOOTH",
"498 443 OFFCURVE",
"434 544 OFFCURVE",
"278 544 CURVE SMOOTH",
"119 544 OFFCURVE",
"50 431 OFFCURVE",
"50 320 CURVE SMOOTH",
"50 158 OFFCURVE",
"145 91 OFFCURVE",
"268 91 CURVE SMOOTH"
);
},
{
closed = 1;
nodes = (
"169 162 OFFCURVE",
"130 229 OFFCURVE",
"130 311 CURVE SMOOTH",
"130 413 OFFCURVE",
"190 473 OFFCURVE",
"283 473 CURVE SMOOTH",
"371 473 OFFCURVE",
"417 416 OFFCURVE",
"417 324 CURVE SMOOTH",
"417 227 OFFCURVE",
"362 162 OFFCURVE",
"267 162 CURVE SMOOTH"
);
}
);
width = 548;
}
);
unicode = 114D0;
category = Letter;
},
{
glyphname = one_tirh;
lastChange = "2019-04-04 16:11:36 +0000";
layers = (
{
layerId = UUID0;
paths = (
{
closed = 1;
nodes = (
"314 0 OFFCURVE",
"403 70 OFFCURVE",
"403 178 CURVE SMOOTH",
"403 277 OFFCURVE",
"363 324 OFFCURVE",
"249 401 CURVE SMOOTH",
"127 484 OFFCURVE",
"114 500 OFFCURVE",
"114 536 CURVE SMOOTH",
"114 558 OFFCURVE",
"127 576 OFFCURVE",
"146 596 CURVE",
"82 631 LINE",
"48 599 OFFCURVE",
"30 560 OFFCURVE",
"30 529 CURVE SMOOTH",
"30 469 OFFCURVE",
"66 434 OFFCURVE",
"195 344 CURVE SMOOTH",
"293 275 OFFCURVE",
"323 240 OFFCURVE",
"323 181 CURVE SMOOTH",
"323 120 OFFCURVE",
"275 75 OFFCURVE",
"194 75 CURVE SMOOTH",
"141 75 OFFCURVE",
"113 93 OFFCURVE",
"113 120 CURVE SMOOTH",
"113 144 OFFCURVE",
"130 157 OFFCURVE",
"171 167 CURVE",
"142 243 LINE",
"61 220 OFFCURVE",
"31 174 OFFCURVE",
"31 122 CURVE SMOOTH",
"31 56 OFFCURVE",
"81 0 OFFCURVE",
"195 0 CURVE SMOOTH"
);
}
);
width = 443;
}
);
unicode = 114D1;
category = Letter;
},
{
glyphname = two_tirh;
lastChange = "2019-04-04 16:11:36 +0000";
layers = (
{
layerId = UUID0;
paths = (
{
closed = 1;
nodes = (
"508 28 LINE",
"433 90 OFFCURVE",
"352 141 OFFCURVE",
"273 173 CURVE",
"388 189 OFFCURVE",
"455 253 OFFCURVE",
"455 333 CURVE SMOOTH",
"455 421 OFFCURVE",
"409 469 OFFCURVE",
"277 494 CURVE SMOOTH",
"183 512 OFFCURVE",
"166 521 OFFCURVE",
"166 549 CURVE SMOOTH",
"166 563 OFFCURVE",
"172 579 OFFCURVE",
"188 596 CURVE",
"125 631 LINE",
"96 596 OFFCURVE",
"82 568 OFFCURVE",
"82 539 CURVE SMOOTH",
"82 483 OFFCURVE",
"128 450 OFFCURVE",
"240 428 CURVE SMOOTH",
"339 409 OFFCURVE",
"374 389 OFFCURVE",
"374 333 CURVE SMOOTH",
"374 273 OFFCURVE",
"325 233 OFFCURVE",
"190 233 CURVE SMOOTH",
"124 233 OFFCURVE",
"81 242 OFFCURVE",
"35 256 CURVE",
"20 185 LINE",
"208 143 OFFCURVE",
"304 104 OFFCURVE",
"462 -26 CURVE"
);
}
);
width = 508;
}
);
unicode = 114D2;
category = Letter;
},
{
glyphname = three_tirh;
lastChange = "2019-04-04 16:11:36 +0000";
layers = (
{
layerId = UUID0;
paths = (
{
closed = 1;
nodes = (
"503 -92 LINE",
"422 -25 OFFCURVE",
"334 29 OFFCURVE",
"249 65 CURVE",
"245 56 LINE",
"334 56 OFFCURVE",
"422 102 OFFCURVE",
"422 197 CURVE SMOOTH",
"422 245 OFFCURVE",
"390 283 OFFCURVE",
"332 304 CURVE",
"394 330 OFFCURVE",
"425 374 OFFCURVE",
"425 428 CURVE SMOOTH",
"425 509 OFFCURVE",
"369 549 OFFCURVE",
"234 557 CURVE SMOOTH",
"159 561 OFFCURVE",
"128 571 OFFCURVE",
"128 594 CURVE SMOOTH",
"128 599 OFFCURVE",
"129 604 OFFCURVE",
"133 610 CURVE",
"60 631 LINE",
"51 614 OFFCURVE",
"47 602 OFFCURVE",
"47 585 CURVE SMOOTH",
"47 536 OFFCURVE",
"80 503 OFFCURVE",
"215 493 CURVE SMOOTH",
"305 486 OFFCURVE",
"344 465 OFFCURVE",
"344 421 CURVE SMOOTH",
"344 366 OFFCURVE",
"265 343 OFFCURVE",
"176 343 CURVE SMOOTH",
"149 343 OFFCURVE",
"125 345 OFFCURVE",
"98 349 CURVE",
"84 285 LINE",
"115 280 OFFCURVE",
"145 278 OFFCURVE",
"186 277 CURVE SMOOTH",
"263 275 OFFCURVE",
"342 258 OFFCURVE",
"342 193 CURVE SMOOTH",
"342 113 OFFCURVE",
"240 113 OFFCURVE",
"185 113 CURVE SMOOTH",
"119 113 OFFCURVE",
"81 122 OFFCURVE",
"35 136 CURVE",
"20 65 LINE",
"208 23 OFFCURVE",
"299 -16 OFFCURVE",
"457 -146 CURVE"
);
}
);
width = 503;
}
);
unicode = 114D3;
category = Letter;
},
{
glyphname = four_tirh;
lastChange = "2019-04-04 16:11:36 +0000";
layers = (
{
layerId = UUID0;
paths = (
{
closed = 1;
nodes = (
"438 0 OFFCURVE",
"518 57 OFFCURVE",
"518 174 CURVE SMOOTH",
"518 254 OFFCURVE",
"468 297 OFFCURVE",
"381 331 CURVE",
"454 361 OFFCURVE",
"507 413 OFFCURVE",
"507 485 CURVE SMOOTH",
"507 544 OFFCURVE",
"468 603 OFFCURVE",
"399 630 CURVE",
"362 561 LINE",
"402 545 OFFCURVE",
"426 521 OFFCURVE",
"426 482 CURVE SMOOTH",
"426 419 OFFCURVE",
"354 380 OFFCURVE",
"285 363 CURVE",
"184 389 OFFCURVE",
"142 427 OFFCURVE",
"142 477 CURVE SMOOTH",
"142 520 OFFCURVE",
"165 544 OFFCURVE",
"206 561 CURVE",
"169 630 LINE",
"95 594 OFFCURVE",
"62 542 OFFCURVE",
"62 482 CURVE SMOOTH",
"62 413 OFFCURVE",
"100 367 OFFCURVE",
"186 326 CURVE",
"92 287 OFFCURVE",
"50 238 OFFCURVE",
"50 164 CURVE SMOOTH",
"50 61 OFFCURVE",
"135 0 OFFCURVE",
"284 0 CURVE SMOOTH"
);
},
{
closed = 1;
nodes = (
"182 71 OFFCURVE",
"131 114 OFFCURVE",
"131 169 CURVE SMOOTH",
"131 228 OFFCURVE",
"183 266 OFFCURVE",
"284 292 CURVE",
"360 276 OFFCURVE",
"438 236 OFFCURVE",
"438 173 CURVE SMOOTH",
"438 111 OFFCURVE",
"391 71 OFFCURVE",
"284 71 CURVE SMOOTH"
);
}
);
width = 568;
}
);
unicode = 114D4;
category = Letter;
},
{
glyphname = five_tirh;
lastChange = "2019-04-04 16:11:36 +0000";
layers = (
{
layerId = UUID0;
paths = (
{
closed = 1;
nodes = (
"457 25 OFFCURVE",
"494 136 OFFCURVE",
"494 260 CURVE SMOOTH",
"494 303 OFFCURVE",
"478 356 OFFCURVE",
"446 407 CURVE",
"381 421 LINE",
"358 349 OFFCURVE",
"334 321 OFFCURVE",
"301 321 CURVE SMOOTH",
"263 321 OFFCURVE",
"251 367 OFFCURVE",
"251 421 CURVE SMOOTH",
"251 482 OFFCURVE",
"272 551 OFFCURVE",
"358 551 CURVE SMOOTH",
"524 551 OFFCURVE",
"589 311 OFFCURVE",
"593 63 CURVE",
"663 44 LINE",
"662 321 OFFCURVE",
"596 622 OFFCURVE",
"347 622 CURVE SMOOTH",
"228 622 OFFCURVE",
"170 522 OFFCURVE",
"170 420 CURVE SMOOTH",
"170 330 OFFCURVE",
"206 250 OFFCURVE",
"299 250 CURVE SMOOTH",
"334 250 OFFCURVE",
"376 271 OFFCURVE",
"408 317 CURVE",
"413 301 OFFCURVE",
"418 283 OFFCURVE",
"418 261 CURVE SMOOTH",
"418 169 OFFCURVE",
"392 101 OFFCURVE",
"301 101 CURVE SMOOTH",
"167 101 OFFCURVE",
"113 308 OFFCURVE",
"93 466 CURVE",
"20 459 LINE",
"57 226 OFFCURVE",
"110 25 OFFCURVE",
"301 25 CURVE SMOOTH"
);
}
);
width = 693;
}
);
unicode = 114D5;
category = Letter;
},
{
glyphname = six_tirh;
lastChange = "2019-04-04 16:11:36 +0000";
layers = (
{
layerId = UUID0;
paths = (
{
closed = 1;
nodes = (
"482 39 OFFCURVE",
"548 137 OFFCURVE",
"548 268 CURVE SMOOTH",
"548 328 OFFCURVE",
"525 402 OFFCURVE",
"488 452 CURVE",
"432 438 LINE",
"399 348 OFFCURVE",
"369 328 OFFCURVE",
"337 328 CURVE SMOOTH",
"329 328 OFFCURVE",
"319 331 OFFCURVE",
"310 340 CURVE SMOOTH",
"303 347 OFFCURVE",
"301 358 OFFCURVE",
"301 387 CURVE SMOOTH",
"301 471 LINE SMOOTH",
"301 554 OFFCURVE",
"270 589 OFFCURVE",
"164 593 CURVE",
"155 517 LINE",
"214 515 OFFCURVE",
"224 500 OFFCURVE",
"224 451 CURVE SMOOTH",
"224 400 LINE SMOOTH",
"224 328 OFFCURVE",
"239 301 OFFCURVE",
"259 282 CURVE SMOOTH",
"277 265 OFFCURVE",
"301 257 OFFCURVE",
"329 257 CURVE SMOOTH",
"383 257 OFFCURVE",
"426 288 OFFCURVE",
"458 348 CURVE",
"466 327 OFFCURVE",
"472 301 OFFCURVE",
"472 271 CURVE SMOOTH",
"472 167 OFFCURVE",
"417 114 OFFCURVE",
"331 114 CURVE SMOOTH",
"215 114 OFFCURVE",
"141 204 OFFCURVE",
"81 466 CURVE",
"10 452 LINE",
"85 129 OFFCURVE",
"197 39 OFFCURVE",
"336 39 CURVE SMOOTH"
);
}
);
width = 578;
}
);
unicode = 114D6;
category = Letter;
},
{
glyphname = seven_tirh;
lastChange = "2019-04-04 16:11:36 +0000";
layers = (
{
layerId = UUID0;
paths = (
{
closed = 1;
nodes = (
"488 77 LINE",
"429 79 OFFCURVE",
"419 93 OFFCURVE",
"419 143 CURVE SMOOTH",
"419 455 LINE SMOOTH",
"419 595 OFFCURVE",
"340 622 OFFCURVE",
"257 622 CURVE SMOOTH",
"143 622 OFFCURVE",
"30 530 OFFCURVE",
"30 411 CURVE SMOOTH",
"30 314 OFFCURVE",
"91 253 OFFCURVE",
"210 248 CURVE",
"210 322 LINE",
"155 325 OFFCURVE",
"111 347 OFFCURVE",
"111 406 CURVE SMOOTH",
"111 489 OFFCURVE",
"188 551 OFFCURVE",
"257 551 CURVE SMOOTH",
"323 551 OFFCURVE",
"342 523 OFFCURVE",
"342 439 CURVE SMOOTH",
"342 122 LINE SMOOTH",
"342 39 OFFCURVE",
"373 4 OFFCURVE",
"480 0 CURVE"
);
}
);
width = 488;
}
);
unicode = 114D7;
category = Letter;
},
{
glyphname = eight_tirh;
lastChange = "2019-04-04 16:11:36 +0000";
layers = (
{
layerId = UUID0;
paths = (
{
closed = 1;
nodes = (
"344 0 OFFCURVE",
"361 97 OFFCURVE",
"361 164 CURVE SMOOTH",
"361 277 LINE",
"425 277 LINE SMOOTH",
"512 277 OFFCURVE",
"558 302 OFFCURVE",
"577 363 CURVE",
"514 391 LINE",
"495 354 OFFCURVE",
"456 348 OFFCURVE",
"417 348 CURVE SMOOTH",
"361 348 LINE",
"361 501 LINE SMOOTH",
"361 584 OFFCURVE",
"332 620 OFFCURVE",
"225 624 CURVE",
"216 547 LINE",
"275 545 OFFCURVE",
"285 530 OFFCURVE",
"285 481 CURVE SMOOTH",
"285 348 LINE",
"110 348 LINE SMOOTH",
"51 348 OFFCURVE",
"30 323 OFFCURVE",
"30 275 CURVE SMOOTH",
"30 107 OFFCURVE",
"153 0 OFFCURVE",
"247 0 CURVE SMOOTH"
);
},
{
closed = 1;
nodes = (
"177 71 OFFCURVE",
"110 179 OFFCURVE",
"110 269 CURVE SMOOTH",
"110 277 LINE",
"285 277 LINE",
"285 168 LINE SMOOTH",
"285 115 OFFCURVE",
"276 71 OFFCURVE",
"247 71 CURVE SMOOTH"
);
}
);
width = 587;
}
);
unicode = 114D8;
category = Letter;
},
{
glyphname = nine_tirh;
lastChange = "2019-04-04 16:11:36 +0000";
layers = (
{
layerId = UUID0;
paths = (
{
closed = 1;
nodes = (
"180 0 LINE SMOOTH",
"325 0 OFFCURVE",
"471 71 OFFCURVE",
"471 216 CURVE SMOOTH",
"471 272 OFFCURVE",
"451 327 OFFCURVE",
"432 377 CURVE SMOOTH",
"416 420 OFFCURVE",
"402 460 OFFCURVE",
"402 495 CURVE SMOOTH",
"402 535 OFFCURVE",
"427 553 OFFCURVE",
"466 562 CURVE",
"443 631 LINE",
"362 619 OFFCURVE",
"322 567 OFFCURVE",
"322 510 CURVE SMOOTH",
"322 455 OFFCURVE",
"340 402 OFFCURVE",
"359 350 CURVE SMOOTH",
"376 303 OFFCURVE",
"391 257 OFFCURVE",
"391 214 CURVE SMOOTH",
"391 157 OFFCURVE",
"353 105 OFFCURVE",
"290 94 CURVE",
"307 118 OFFCURVE",
"316 145 OFFCURVE",
"316 181 CURVE SMOOTH",
"316 259 OFFCURVE",
"249 315 OFFCURVE",
"157 315 CURVE SMOOTH",
"61 315 OFFCURVE",
"10 257 OFFCURVE",
"10 193 CURVE SMOOTH",
"10 168 OFFCURVE",
"16 145 OFFCURVE",
"27 121 CURVE",
"103 138 LINE",
"95 151 OFFCURVE",
"91 169 OFFCURVE",
"91 182 CURVE SMOOTH",
"91 210 OFFCURVE",
"110 245 OFFCURVE",
"158 245 CURVE SMOOTH",
"212 245 OFFCURVE",
"240 214 OFFCURVE",
"240 169 CURVE SMOOTH",
"240 120 OFFCURVE",
"204 89 OFFCURVE",
"144 68 CURVE",
"166 0 LINE"
);
}
);
width = 501;
}
);
unicode = 114D9;
category = Letter;
},
{
glyphname = Gu;
lastChange = "2019-04-04 16:13:12 +0000";
layers = (
{
layerId = UUID0;
paths = (
{
closed = 1;
nodes = (
"562 -40 LINE",
"562 551 LINE",
"667 551 LINE",
"667 622 LINE",
"561 622 LINE",
"538 688 LINE",
"485 688 LINE",
"485 585 LINE SMOOTH",
"485 541 OFFCURVE",
"486 512 OFFCURVE",
"488 495 CURVE",
"415 584 OFFCURVE",
"346 629 OFFCURVE",
"255 629 CURVE SMOOTH",
"156 629 OFFCURVE",
"83 562 OFFCURVE",
"22 458 CURVE",
"103 392 LINE",
"137 409 OFFCURVE",
"165 417 OFFCURVE",
"200 417 CURVE SMOOTH",
"243 417 OFFCURVE",
"266 394 OFFCURVE",
"266 365 CURVE SMOOTH",
"266 312 OFFCURVE",
"204 275 OFFCURVE",
"131 245 CURVE",
"182 172 LINE",
"294 232 OFFCURVE",
"346 290 OFFCURVE",
"346 369 CURVE SMOOTH",
"346 423 OFFCURVE",
"308 487 OFFCURVE",
"216 487 CURVE SMOOTH",
"177 487 OFFCURVE",
"144 480 OFFCURVE",
"123 469 CURVE",
"155 515 OFFCURVE",
"194 556 OFFCURVE",
"263 556 CURVE SMOOTH",
"341 556 OFFCURVE",
"402 504 OFFCURVE",
"485 391 CURVE",
"485 232 LINE",
"375 207 OFFCURVE",
"288 139 OFFCURVE",
"266 107 CURVE",
"266 68 LINE",
"334 39 OFFCURVE",
"409 3 OFFCURVE",
"485 -40 CURVE"
);
},
{
closed = 1;
nodes = (
"452 51 OFFCURVE",
"410 80 OFFCURVE",
"352 104 CURVE",
"386 134 OFFCURVE",
"430 152 OFFCURVE",
"485 164 CURVE",
"485 109 LINE SMOOTH",
"485 89 OFFCURVE",
"487 42 OFFCURVE",
"490 22 CURVE"
);
}
);
width = 656;
}
);
category = Letter;
},
{
glyphname = Ju;
lastChange = "2019-04-04 16:13:12 +0000";
layers = (
{
layerId = UUID0;
paths = (
{
closed = 1;
nodes = (
"717 -140 LINE",
"717 158 LINE SMOOTH",
"717 236 OFFCURVE",
"717 338 OFFCURVE",
"740 392 CURVE",
"701 462 LINE",
"681 460 OFFCURVE",
"671 459 OFFCURVE",
"653 459 CURVE SMOOTH",
"569 459 OFFCURVE",
"523 502 OFFCURVE",
"494 551 CURVE",
"810 551 LINE",
"810 622 LINE",
"-10 622 LINE",
"-10 551 LINE",
"245 551 LINE SMOOTH",
"288 551 OFFCURVE",
"309 551 OFFCURVE",
"331 552 CURVE",
"246 511 OFFCURVE",
"219 447 OFFCURVE",
"219 389 CURVE SMOOTH",
"219 308 OFFCURVE",
"276 257 OFFCURVE",
"347 257 CURVE SMOOTH",
"393 257 OFFCURVE",
"427 279 OFFCURVE",
"457 310 CURVE",
"460 298 OFFCURVE",
"462 284 OFFCURVE",
"462 268 CURVE SMOOTH",
"462 182 OFFCURVE",
"428 139 OFFCURVE",
"339 139 CURVE SMOOTH",
"236 139 OFFCURVE",
"144 250 OFFCURVE",
"109 474 CURVE",
"37 453 LINE",
"79 186 OFFCURVE",
"202 63 OFFCURVE",
"337 63 CURVE SMOOTH",
"460 63 OFFCURVE",
"539 136 OFFCURVE",
"539 254 CURVE SMOOTH",
"539 297 OFFCURVE",
"530 338 OFFCURVE",
"520 365 CURVE",
"442 396 LINE",
"417 356 OFFCURVE",
"390 328 OFFCURVE",
"344 328 CURVE SMOOTH",
"319 328 OFFCURVE",
"297 351 OFFCURVE",
"297 388 CURVE SMOOTH",
"297 430 OFFCURVE",
"303 470 OFFCURVE",
"421 535 CURVE",
"469 451 OFFCURVE",
"535 391 OFFCURVE",
"656 390 CURVE",
"643 357 OFFCURVE",
"640 238 OFFCURVE",
"640 159 CURVE SMOOTH",
"640 132 LINE",
"531 108 OFFCURVE",
"443 39 OFFCURVE",
"421 7 CURVE",
"421 -32 LINE",
"489 -61 OFFCURVE",
"564 -97 OFFCURVE",
"640 -140 CURVE"
);
},
{
closed = 1;
nodes = (
"605 -47 OFFCURVE",
"565 -20 OFFCURVE",
"507 4 CURVE",
"541 34 OFFCURVE",
"585 52 OFFCURVE",
"640 64 CURVE",
"640 21 LINE SMOOTH",
"640 -11 OFFCURVE",
"642 -46 OFFCURVE",
"645 -78 CURVE"
);
}
);
width = 800;
}
);
category = Letter;
},
{
glyphname = Nnu;
lastChange = "2019-04-04 16:13:12 +0000";
layers = (
{
layerId = UUID0;
paths = (
{
closed = 1;
nodes = (
"568 -40 LINE",
"568 551 LINE",
"674 551 LINE",
"674 622 LINE",
"491 622 LINE",
"491 551 LINE SMOOTH",
"491 536 OFFCURVE",
"492 517 OFFCURVE",
"494 501 CURVE",
"467 537 OFFCURVE",
"430 561 OFFCURVE",
"386 561 CURVE SMOOTH",
"348 561 OFFCURVE",
"315 540 OFFCURVE",
"294 505 CURVE",
"269 540 OFFCURVE",
"230 561 OFFCURVE",
"180 561 CURVE SMOOTH",
"105 561 OFFCURVE",
"34 503 OFFCURVE",
"34 405 CURVE SMOOTH",
"34 333 OFFCURVE",
"86 258 OFFCURVE",
"164 240 CURVE",
"202 312 LINE",
"145 333 OFFCURVE",
"116 362 OFFCURVE",
"116 416 CURVE SMOOTH",
"116 453 OFFCURVE",
"138 488 OFFCURVE",
"185 488 CURVE SMOOTH",
"237 488 OFFCURVE",
"259 446 OFFCURVE",
"266 397 CURVE",
"322 384 LINE",
"322 453 OFFCURVE",
"343 488 OFFCURVE",
"390 488 CURVE SMOOTH",
"432 488 OFFCURVE",
"477 448 OFFCURVE",
"491 379 CURVE",
"491 232 LINE",
"381 207 OFFCURVE",
"294 139 OFFCURVE",
"272 107 CURVE",
"272 68 LINE",
"340 39 OFFCURVE",
"415 3 OFFCURVE",
"491 -40 CURVE"
);
},
{
closed = 1;
nodes = (
"458 51 OFFCURVE",
"416 80 OFFCURVE",
"358 104 CURVE",
"392 134 OFFCURVE",
"436 152 OFFCURVE",
"491 164 CURVE",
"491 109 LINE SMOOTH",
"491 89 OFFCURVE",
"493 42 OFFCURVE",
"496 22 CURVE"
);
}
);
width = 664;
}
);
category = Letter;
},
{
glyphname = Du;
lastChange = "2019-04-04 16:13:12 +0000";
layers = (
{
layerId = UUID0;
paths = (
{
closed = 1;
nodes = (
"487 -40 LINE",
"487 198 LINE SMOOTH",
"487 280 OFFCURVE",
"504 355 OFFCURVE",
"540 422 CURVE",
"475 486 LINE",
"347 439 OFFCURVE",
"224 350 OFFCURVE",
"159 288 CURVE",
"159 551 LINE",
"613 551 LINE",
"613 622 LINE",
"-10 622 LINE",
"-10 551 LINE",
"82 551 LINE",
"82 215 LINE",
"141 175 LINE",
"244 277 OFFCURVE",
"338 350 OFFCURVE",
"445 396 CURVE",
"428 362 OFFCURVE",
"413 295 OFFCURVE",
"410 232 CURVE",
"300 207 OFFCURVE",
"213 139 OFFCURVE",
"191 107 CURVE",
"191 68 LINE",
"259 39 OFFCURVE",
"334 3 OFFCURVE",
"410 -40 CURVE"
);
},
{
closed = 1;
nodes = (
"379 53 OFFCURVE",
"335 81 OFFCURVE",
"277 104 CURVE",
"311 134 OFFCURVE",
"355 152 OFFCURVE",
"410 164 CURVE",
"410 98 LINE SMOOTH",
"410 74 OFFCURVE",
"411 46 OFFCURVE",
"413 34 CURVE SMOOTH",
"415 22 LINE"
);
}
);
width = 603;
}
);
category = Letter;
},
{
glyphname = Nu.tirh;
lastChange = "2019-04-04 16:13:12 +0000";
layers = (
{
layerId = UUID0;
paths = (
{
closed = 1;
nodes = (
"-10 551 LINE",
"432 551 LINE",
"432 330 LINE",
"378 389 OFFCURVE",
"287 434 OFFCURVE",
"211 434 CURVE SMOOTH",
"141 434 OFFCURVE",
"102 400 OFFCURVE",
"102 355 CURVE SMOOTH",
"102 312 OFFCURVE",
"139 291 OFFCURVE",
"171 291 CURVE SMOOTH",
"207 291 OFFCURVE",
"237 316 OFFCURVE",
"259 349 CURVE",
"358 314 OFFCURVE",
"413 258 OFFCURVE",
"432 237 CURVE",
"432 232 LINE",
"322 207 OFFCURVE",
"235 139 OFFCURVE",
"213 107 CURVE",
"213 68 LINE",
"281 39 OFFCURVE",
"356 3 OFFCURVE",
"432 -40 CURVE",
"509 -40 LINE",
"509 551 LINE",
"614 551 LINE",
"614 622 LINE",
"-10 622 LINE"
);
},
{
closed = 1;
nodes = (
"333 134 OFFCURVE",
"377 152 OFFCURVE",
"432 164 CURVE",
"432 109 LINE SMOOTH",
"432 89 OFFCURVE",
"434 42 OFFCURVE",
"437 22 CURVE",
"399 51 OFFCURVE",
"357 80 OFFCURVE",
"299 104 CURVE"
);
}
);
width = 604;
}
);
},
{
glyphname = Pu;
lastChange = "2019-04-04 16:13:12 +0000";
layers = (
{
layerId = UUID0;
paths = (
{
closed = 1;
nodes = (
"622 -40 LINE",
"622 551 LINE",
"727 551 LINE",
"727 622 LINE",
"621 622 LINE",
"598 688 LINE",
"545 688 LINE",
"545 558 LINE SMOOTH",
"545 523 OFFCURVE",
"546 493 OFFCURVE",
"548 466 CURVE",
"464 575 OFFCURVE",
"395 629 OFFCURVE",
"291 629 CURVE SMOOTH",
"185 629 OFFCURVE",
"102 557 OFFCURVE",
"22 452 CURVE",
"98 380 LINE",
"119 393 OFFCURVE",
"139 398 OFFCURVE",
"160 398 CURVE SMOOTH",
"199 398 OFFCURVE",
"219 376 OFFCURVE",
"219 343 CURVE SMOOTH",
"219 317 OFFCURVE",
"209 296 OFFCURVE",
"196 278 CURVE",
"167 250 LINE",
"226 195 LINE",
"486 440 LINE",
"504 417 OFFCURVE",
"524 391 OFFCURVE",
"545 362 CURVE",
"545 232 LINE",
"435 207 OFFCURVE",
"348 139 OFFCURVE",
"326 107 CURVE",
"326 68 LINE",
"394 39 OFFCURVE",
"469 3 OFFCURVE",
"545 -40 CURVE"
);
},
{
closed = 1;
nodes = (
"512 51 OFFCURVE",
"470 80 OFFCURVE",
"412 104 CURVE",
"444 130 OFFCURVE",
"490 152 OFFCURVE",
"545 164 CURVE",
"545 109 LINE SMOOTH",
"545 89 OFFCURVE",
"547 42 OFFCURVE",
"550 22 CURVE"
);
},
{
closed = 1;
nodes = (
"285 353 LINE SMOOTH",
"285 414 OFFCURVE",
"251 465 OFFCURVE",
"174 465 CURVE SMOOTH",
"154 465 OFFCURVE",
"137 460 OFFCURVE",
"120 452 CURVE",
"165 508 OFFCURVE",
"220 556 OFFCURVE",
"298 556 CURVE SMOOTH",
"350 556 OFFCURVE",
"391 536 OFFCURVE",
"437 493 CURVE",
"347 408 LINE SMOOTH",
"318 381 OFFCURVE",
"300 362 OFFCURVE",
"285 345 CURVE"
);
}
);
width = 716;
}
);
category = Letter;
},
{
glyphname = Mu.tirh;
lastChange = "2019-04-04 16:13:12 +0000";
layers = (
{
layerId = UUID0;
paths = (
{
closed = 1;
nodes = (
"-10 551 LINE",
"56 551 LINE",
"42 492 LINE",
"141 478 OFFCURVE",
"172 432 OFFCURVE",
"172 382 CURVE SMOOTH",
"172 371 OFFCURVE",
"170 357 OFFCURVE",
"167 344 CURVE",
"110 344 OFFCURVE",
"64 312 OFFCURVE",
"64 263 CURVE SMOOTH",
"64 224 OFFCURVE",
"94 206 OFFCURVE",
"125 206 CURVE SMOOTH",
"157 206 OFFCURVE",
"193 224 OFFCURVE",
"221 262 CURVE",
"288 257 OFFCURVE",
"355 250 OFFCURVE",
"432 205 CURVE",
"322 163 OFFCURVE",
"250 105 OFFCURVE",
"231 77 CURVE",
"231 38 LINE",
"299 9 OFFCURVE",
"374 -27 OFFCURVE",
"450 -70 CURVE",
"527 -70 LINE",
"527 551 LINE",
"632 551 LINE",
"632 622 LINE",
"-10 622 LINE"
);
},
{
closed = 1;
nodes = (
"450 551 LINE",
"450 268 LINE",
"390 308 OFFCURVE",
"320 322 OFFCURVE",
"243 333 CURVE",
"246 353 OFFCURVE",
"248 374 OFFCURVE",
"248 389 CURVE SMOOTH",
"248 483 OFFCURVE",
"182 530 OFFCURVE",
"108 551 CURVE"
);
},
{
closed = 1;
nodes = (
"351 104 OFFCURVE",
"395 122 OFFCURVE",
"450 134 CURVE",
"450 79 LINE SMOOTH",
"450 59 OFFCURVE",
"452 12 OFFCURVE",
"455 -8 CURVE",
"417 21 OFFCURVE",
"375 50 OFFCURVE",
"317 74 CURVE"
);
}
);
width = 622;
}
);
},
{
glyphname = Lu;
lastChange = "2019-04-04 16:13:12 +0000";
layers = (
{
layerId = UUID0;
paths = (
{
closed = 1;
nodes = (
"449 -40 LINE",
"449 622 LINE",
"372 622 LINE",
"372 505 LINE SMOOTH",
"372 471 OFFCURVE",
"374 418 OFFCURVE",
"377 370 CURVE",
"385 376 LINE",
"356 440 OFFCURVE",
"296 512 OFFCURVE",
"188 512 CURVE SMOOTH",
"96 512 OFFCURVE",
"36 446 OFFCURVE",
"36 366 CURVE SMOOTH",
"36 294 OFFCURVE",
"84 235 OFFCURVE",
"166 201 CURVE",
"204 273 LINE",
"145 296 OFFCURVE",
"118 323 OFFCURVE",
"118 363 CURVE SMOOTH",
"118 414 OFFCURVE",
"150 439 OFFCURVE",
"197 439 CURVE SMOOTH",
"272 439 OFFCURVE",
"322 381 OFFCURVE",
"372 272 CURVE",
"372 232 LINE",
"262 207 OFFCURVE",
"175 139 OFFCURVE",
"153 107 CURVE",
"153 68 LINE",
"221 39 OFFCURVE",
"296 3 OFFCURVE",
"372 -40 CURVE"
);
},
{
closed = 1;
nodes = (
"339 51 OFFCURVE",
"297 80 OFFCURVE",
"239 104 CURVE",
"273 134 OFFCURVE",
"317 152 OFFCURVE",
"372 164 CURVE",
"372 109 LINE SMOOTH",
"372 79 OFFCURVE",
"374 42 OFFCURVE",
"377 22 CURVE"
);
}
);
width = 511;
}
);
category = Letter;
},
{
glyphname = Shu;
lastChange = "2019-04-04 16:13:12 +0000";
layers = (
{
layerId = UUID0;
paths = (
{
closed = 1;
nodes = (
"575 729 OFFCURVE",
"532 771 OFFCURVE",
"414 771 CURVE SMOOTH",
"342 771 LINE SMOOTH",
"227 771 OFFCURVE",
"206 806 OFFCURVE",
"206 869 CURVE SMOOTH",
"206 882 OFFCURVE",
"208 892 OFFCURVE",
"211 907 CURVE",
"137 912 LINE",
"134 892 OFFCURVE",
"132 876 OFFCURVE",
"132 859 CURVE SMOOTH",
"132 763 OFFCURVE",
"175 699 OFFCURVE",
"347 699 CURVE SMOOTH",
"426 699 LINE SMOOTH",
"501 699 OFFCURVE",
"505 650 OFFCURVE",
"505 554 CURVE",
"472 600 OFFCURVE",
"421 629 OFFCURVE",
"361 629 CURVE SMOOTH",
"303 629 OFFCURVE",
"248 600 OFFCURVE",
"226 539 CURVE",
"196 599 OFFCURVE",
"131 622 OFFCURVE",
"70 622 CURVE SMOOTH",
"-10 622 LINE",
"-10 551 LINE",
"62 551 LINE SMOOTH",
"132 551 OFFCURVE",
"181 522 OFFCURVE",
"181 468 CURVE SMOOTH",
"181 425 OFFCURVE",
"150 378 OFFCURVE",
"48 377 CURVE",
"54 300 LINE",
"150 300 OFFCURVE",
"206 342 OFFCURVE",
"229 398 CURVE",
"254 342 OFFCURVE",
"311 305 OFFCURVE",
"406 300 CURVE",
"413 377 LINE",
"317 381 OFFCURVE",
"276 417 OFFCURVE",
"276 471 CURVE SMOOTH",
"276 527 OFFCURVE",
"311 556 OFFCURVE",
"363 556 CURVE SMOOTH",
"419 556 OFFCURVE",
"467 519 OFFCURVE",
"505 454 CURVE",
"505 232 LINE",
"395 207 OFFCURVE",
"308 139 OFFCURVE",
"286 107 CURVE",
"286 68 LINE",
"354 39 OFFCURVE",
"429 3 OFFCURVE",
"505 -40 CURVE",
"582 -40 LINE",
"582 551 LINE",
"687 551 LINE",
"687 622 LINE",
"577 622 LINE"
);
},
{
closed = 1;
nodes = (
"406 134 OFFCURVE",
"450 152 OFFCURVE",
"505 164 CURVE",
"505 109 LINE SMOOTH",
"505 89 OFFCURVE",
"507 42 OFFCURVE",
"510 22 CURVE",
"472 51 OFFCURVE",
"430 80 OFFCURVE",
"372 104 CURVE"
);
}
);
width = 677;
}
);
category = Letter;
},
{
glyphname = Su;
lastChange = "2019-04-04 16:13:12 +0000";
layers = (
{
layerId = UUID0;
paths = (
{
closed = 1;
nodes = (
"587 -40 LINE",
"587 551 LINE",
"692 551 LINE",
"692 622 LINE",
"-10 622 LINE",
"-10 551 LINE",
"49 551 LINE",
"38 495 LINE",
"125 484 OFFCURVE",
"180 472 OFFCURVE",
"214 441 CURVE SMOOTH",
"246 412 OFFCURVE",
"257 367 OFFCURVE",
"269 285 CURVE",
"242 223 OFFCURVE",
"214 203 OFFCURVE",
"185 203 CURVE SMOOTH",
"152 203 OFFCURVE",
"132 218 OFFCURVE",
"96 281 CURVE",
"35 244 LINE",
"74 176 OFFCURVE",
"116 127 OFFCURVE",
"180 127 CURVE SMOOTH",
"249 127 OFFCURVE",
"289 169 OFFCURVE",
"343 268 CURVE SMOOTH",
"393 359 OFFCURVE",
"407 375 OFFCURVE",
"436 375 CURVE SMOOTH",
"458 375 OFFCURVE",
"480 355 OFFCURVE",
"510 318 CURVE",
"510 232 LINE",
"400 207 OFFCURVE",
"313 139 OFFCURVE",
"291 107 CURVE",
"291 68 LINE",
"359 39 OFFCURVE",
"434 3 OFFCURVE",
"510 -40 CURVE"
);
},
{
closed = 1;
nodes = (
"477 51 OFFCURVE",
"435 80 OFFCURVE",
"377 104 CURVE",
"411 134 OFFCURVE",
"455 152 OFFCURVE",
"510 164 CURVE",
"510 109 LINE SMOOTH",
"510 89 OFFCURVE",
"512 42 OFFCURVE",
"515 22 CURVE"
);
},
{
closed = 1;
nodes = (
"304 481 OFFCURVE",
"256 528 OFFCURVE",
"107 551 CURVE",
"510 551 LINE",
"510 458 LINE SMOOTH",
"510 437 OFFCURVE",
"510 418 OFFCURVE",
"513 397 CURVE",
"484 432 OFFCURVE",
"454 450 OFFCURVE",
"424 450 CURVE SMOOTH",
"386 450 OFFCURVE",
"349 429 OFFCURVE",
"314 359 CURVE"
);
}
);
width = 682;
}
);
category = Letter;
},
{
glyphname = Ku;
lastChange = "2019-04-04 16:13:12 +0000";
layers = (
{
layerId = UUID0;
paths = (
{
closed = 1;
nodes = (
"468 0 LINE",
"468 278 LINE SMOOTH",
"468 398 OFFCURVE",
"491 437 OFFCURVE",
"551 437 CURVE SMOOTH",
"592 437 OFFCURVE",
"615 412 OFFCURVE",
"615 368 CURVE SMOOTH",
"615 302 OFFCURVE",
"573 286 OFFCURVE",
"511 281 CURVE",
"524 215 LINE",
"628 221 OFFCURVE",
"690 283 OFFCURVE",
"690 372 CURVE SMOOTH",
"690 443 OFFCURVE",
"651 507 OFFCURVE",
"551 507 CURVE SMOOTH",
"447 507 OFFCURVE",
"391 440 OFFCURVE",
"391 298 CURVE SMOOTH",
"391 240 LINE SMOOTH",
"391 207 OFFCURVE",
"392 162 OFFCURVE",
"394 138 CURVE",
"350 170 OFFCURVE",
"294 199 OFFCURVE",
"223 211 CURVE",
"220 196 LINE",
"305 224 OFFCURVE",
"361 275 OFFCURVE",
"361 353 CURVE SMOOTH",
"361 436 OFFCURVE",
"300 507 OFFCURVE",
"202 507 CURVE SMOOTH",
"97 507 OFFCURVE",
"39 449 OFFCURVE",
"39 379 CURVE SMOOTH",
"39 337 OFFCURVE",
"57 307 OFFCURVE",
"83 284 CURVE",
"135 339 LINE",
"122 350 OFFCURVE",
"117 362 OFFCURVE",
"117 380 CURVE SMOOTH",
"117 409 OFFCURVE",
"144 437 OFFCURVE",
"194 437 CURVE SMOOTH",
"251 437 OFFCURVE",
"280 405 OFFCURVE",
"280 348 CURVE SMOOTH",
"280 284 OFFCURVE",
"214 232 OFFCURVE",
"93 228 CURVE",
"116 158 LINE",
"209 157 OFFCURVE",
"318 132 OFFCURVE",
"391 62 CURVE",
"391 0 LINE"
);
},
{
closed = 1;
nodes = (
"735 551 LINE",
"735 622 LINE",
"-10 622 LINE",
"-10 551 LINE"
);
}
);
width = 725;
}
);
category = Letter;
},
{
glyphname = Tu;
lastChange = "2019-04-04 16:13:12 +0000";
layers = (
{
layerId = UUID0;
paths = (
{
closed = 1;
nodes = (
"583 20 OFFCURVE",
"642 112 OFFCURVE",
"642 180 CURVE SMOOTH",
"642 230 OFFCURVE",
"622 264 OFFCURVE",
"590 287 CURVE",
"608 309 OFFCURVE",
"619 336 OFFCURVE",
"619 368 CURVE SMOOTH",
"619 438 OFFCURVE",
"573 500 OFFCURVE",
"451 500 CURVE SMOOTH",
"334 500 OFFCURVE",
"277 442 OFFCURVE",
"277 372 CURVE SMOOTH",
"277 345 OFFCURVE",
"285 323 OFFCURVE",
"297 305 CURVE",
"362 344 LINE",
"357 352 OFFCURVE",
"355 360 OFFCURVE",
"355 369 CURVE SMOOTH",
"355 398 OFFCURVE",
"378 430 OFFCURVE",
"445 430 CURVE SMOOTH",
"519 430 OFFCURVE",
"538 403 OFFCURVE",
"538 368 CURVE SMOOTH",
"538 317 OFFCURVE",
"491 303 OFFCURVE",
"455 297 CURVE",
"468 224 LINE",
"491 227 OFFCURVE",
"514 233 OFFCURVE",
"536 244 CURVE",
"555 232 OFFCURVE",
"562 214 OFFCURVE",
"562 193 CURVE SMOOTH",
"562 140 OFFCURVE",
"520 96 OFFCURVE",
"413 96 CURVE SMOOTH",
"244 96 OFFCURVE",
"164 243 OFFCURVE",
"100 483 CURVE",
"29 465 LINE",
"118 126 OFFCURVE",
"247 20 OFFCURVE",
"411 20 CURVE SMOOTH"
);
},
{
closed = 1;
nodes = (
"707 551 LINE",
"707 622 LINE",
"-10 622 LINE",
"-10 551 LINE"
);
}
);
width = 697;
}
);
category = Letter;
},
{
glyphname = Tuu;
lastChange = "2019-04-04 16:13:12 +0000";
layers = (
{
layerId = UUID0;
paths = (
{
closed = 1;
nodes = (
"647 551 LINE",
"647 622 LINE",
"-10 622 LINE",
"-10 551 LINE"
);
},
{
closed = 1;
nodes = (
"459 428 OFFCURVE",
"413 500 OFFCURVE",
"291 500 CURVE SMOOTH",
"174 500 OFFCURVE",
"117 442 OFFCURVE",
"117 372 CURVE SMOOTH",
"117 345 OFFCURVE",
"125 323 OFFCURVE",
"137 305 CURVE",
"202 344 LINE",
"197 352 OFFCURVE",
"195 360 OFFCURVE",
"195 369 CURVE SMOOTH",
"195 398 OFFCURVE",
"218 430 OFFCURVE",
"285 430 CURVE SMOOTH",
"359 430 OFFCURVE",
"378 403 OFFCURVE",
"378 348 CURVE SMOOTH",
"378 263 OFFCURVE",
"338 230 OFFCURVE",
"257 228 CURVE SMOOTH",
"174 226 OFFCURVE",
"122 186 OFFCURVE",
"122 125 CURVE SMOOTH",
"122 65 OFFCURVE",
"165 23 OFFCURVE",
"253 23 CURVE SMOOTH",
"286 23 OFFCURVE",
"312 24 OFFCURVE",
"335 27 CURVE SMOOTH",
"353 29 OFFCURVE",
"370 30 OFFCURVE",
"386 30 CURVE SMOOTH",
"430 30 OFFCURVE",
"473 21 OFFCURVE",
"541 -27 CURVE",
"583 26 LINE",
"510 83 OFFCURVE",
"443 92 OFFCURVE",
"386 92 CURVE SMOOTH",
"359 92 OFFCURVE",
"335 90 OFFCURVE",
"312 88 CURVE SMOOTH",
"291 86 OFFCURVE",
"271 85 OFFCURVE",
"251 85 CURVE SMOOTH",
"219 85 OFFCURVE",
"195 98 OFFCURVE",
"195 124 CURVE SMOOTH",
"195 150 OFFCURVE",
"219 164 OFFCURVE",
"265 164 CURVE SMOOTH",
"368 164 OFFCURVE",
"459 207 OFFCURVE",
"459 348 CURVE SMOOTH"
);
}
);
width = 637;
}
);
category = Letter;
},
{
glyphname = Dhu;
lastChange = "2019-04-04 16:13:12 +0000";
layers = (
{
layerId = UUID0;
paths = (
{
closed = 1;
nodes = (
"501 0 LINE",
"501 292 LINE",
"532 236 OFFCURVE",
"575 204 OFFCURVE",
"621 204 CURVE SMOOTH",
"693 204 OFFCURVE",
"729 241 OFFCURVE",
"729 323 CURVE SMOOTH",
"729 421 LINE",
"657 421 LINE",
"657 338 LINE SMOOTH",
"657 290 OFFCURVE",
"641 273 OFFCURVE",
"615 273 CURVE SMOOTH",
"580 273 OFFCURVE",
"533 337 OFFCURVE",
"501 420 CURVE",
"501 551 LINE",
"794 551 LINE",
"794 622 LINE",
"425 622 LINE",
"425 517 LINE",
"361 497 OFFCURVE",
"299 473 OFFCURVE",
"239 446 CURVE",
"202 465 OFFCURVE",
"188 483 OFFCURVE",
"188 509 CURVE SMOOTH",
"188 536 OFFCURVE",
"211 554 OFFCURVE",
"251 554 CURVE SMOOTH",
"268 554 OFFCURVE",
"279 553 OFFCURVE",
"287 552 CURVE",
"293 624 LINE",
"275 627 OFFCURVE",
"256 629 OFFCURVE",
"240 629 CURVE SMOOTH",
"150 629 OFFCURVE",
"109 578 OFFCURVE",
"109 524 CURVE SMOOTH",
"109 478 OFFCURVE",
"132 444 OFFCURVE",
"172 414 CURVE",
"126 391 OFFCURVE",
"81 365 OFFCURVE",
"37 339 CURVE",
"76 243 LINE",
"230 218 OFFCURVE",
"364 119 OFFCURVE",
"425 0 CURVE"
);
},
{
closed = 1;
nodes = (
"366 213 OFFCURVE",
"232 281 OFFCURVE",
"130 304 CURVE",
"219 358 OFFCURVE",
"328 406 OFFCURVE",
"425 439 CURVE",
"425 189 LINE SMOOTH",
"425 156 OFFCURVE",
"426 132 OFFCURVE",
"428 108 CURVE"
);
}
);
width = 784;
}
);
category = Letter;
},
{
glyphname = Bhu;
lastChange = "2019-04-04 16:13:12 +0000";
layers = (
{
layerId = UUID0;
paths = (
{
closed = 1;
nodes = (
"583 20 OFFCURVE",
"642 112 OFFCURVE",
"642 180 CURVE SMOOTH",
"642 227 OFFCURVE",
"623 259 OFFCURVE",
"593 280 CURVE",
"616 304 OFFCURVE",
"632 338 OFFCURVE",
"632 383 CURVE SMOOTH",
"632 470 OFFCURVE",
"545 513 OFFCURVE",
"490 514 CURVE",
"482 502 OFFCURVE",
"472 488 OFFCURVE",
"462 475 CURVE SMOOTH",
"442 449 OFFCURVE",
"424 426 OFFCURVE",
"394 426 CURVE SMOOTH",
"375 426 OFFCURVE",
"364 435 OFFCURVE",
"346 454 CURVE SMOOTH",
"328 473 OFFCURVE",
"296 498 OFFCURVE",
"252 498 CURVE SMOOTH",
"221 498 OFFCURVE",
"190 487 OFFCURVE",
"174 473 CURVE",
"190 407 LINE",
"208 421 OFFCURVE",
"224 427 OFFCURVE",
"246 427 CURVE SMOOTH",
"277 427 OFFCURVE",
"295 411 OFFCURVE",
"312 393 CURVE SMOOTH",
"330 374 OFFCURVE",
"352 355 OFFCURVE",
"391 355 CURVE SMOOTH",
"446 355 OFFCURVE",
"495 406 OFFCURVE",
"512 432 CURVE",
"536 428 OFFCURVE",
"553 405 OFFCURVE",
"553 371 CURVE SMOOTH",
"553 335 OFFCURVE",
"526 307 OFFCURVE",
"454 291 CURVE",
"468 224 LINE",
"489 227 OFFCURVE",
"511 232 OFFCURVE",
"532 241 CURVE",
"553 230 OFFCURVE",
"562 214 OFFCURVE",
"562 193 CURVE SMOOTH",
"562 140 OFFCURVE",
"520 96 OFFCURVE",
"413 96 CURVE SMOOTH",
"244 96 OFFCURVE",
"164 243 OFFCURVE",
"100 483 CURVE",
"29 465 LINE",
"118 126 OFFCURVE",
"247 20 OFFCURVE",
"411 20 CURVE SMOOTH"
);
},
{
closed = 1;
nodes = (
"711 551 LINE",
"711 622 LINE",
"-10 622 LINE",
"-10 551 LINE"
);
}
);
width = 701;
}
);
category = Letter;
},
{
glyphname = Yu;
lastChange = "2019-04-04 16:13:12 +0000";
layers = (
{
layerId = UUID0;
paths = (
{
closed = 1;
nodes = (
"551 0 LINE",
"551 551 LINE",
"636 551 LINE",
"636 622 LINE",
"-10 622 LINE",
"-10 551 LINE",
"171 551 LINE",
"154 520 OFFCURVE",
"118 458 OFFCURVE",
"79 416 CURVE",
"110 448 LINE",
"66 426 OFFCURVE",
"46 385 OFFCURVE",
"41 352 CURVE",
"122 342 LINE",
"124 361 OFFCURVE",
"141 398 OFFCURVE",
"195 398 CURVE SMOOTH",
"221 398 OFFCURVE",
"260 379 OFFCURVE",
"260 335 CURVE SMOOTH",
"260 272 OFFCURVE",
"194 226 OFFCURVE",
"100 214 CURVE",
"124 144 LINE",
"173 150 OFFCURVE",
"217 163 OFFCURVE",
"253 184 CURVE",
"345 150 OFFCURVE",
"416 79 OFFCURVE",
"475 0 CURVE"
);
},
{
closed = 1;
nodes = (
"432 153 OFFCURVE",
"379 203 OFFCURVE",
"312 240 CURVE",
"331 268 OFFCURVE",
"341 301 OFFCURVE",
"341 342 CURVE SMOOTH",
"341 407 OFFCURVE",
"293 465 OFFCURVE",
"201 468 CURVE",
"220 493 OFFCURVE",
"239 520 OFFCURVE",
"256 551 CURVE",
"474 551 LINE",
"474 196 LINE SMOOTH",
"474 163 OFFCURVE",
"475 118 OFFCURVE",
"477 94 CURVE"
);
}
);
width = 626;
}
);
category = Letter;
},
{
glyphname = Ru;
lastChange = "2019-04-04 16:13:12 +0000";
layers = (
{
layerId = UUID0;
paths = (
{
closed = 1;
nodes = (
"501 0 LINE",
"501 292 LINE",
"541 236 OFFCURVE",
"584 204 OFFCURVE",
"630 204 CURVE SMOOTH",
"692 204 OFFCURVE",
"729 241 OFFCURVE",
"729 323 CURVE SMOOTH",
"729 421 LINE",
"657 421 LINE",
"657 338 LINE SMOOTH",
"657 290 OFFCURVE",
"641 273 OFFCURVE",
"625 273 CURVE SMOOTH",
"580 273 OFFCURVE",
"533 337 OFFCURVE",
"501 420 CURVE",
"501 551 LINE",
"763 551 LINE",
"763 622 LINE",
"-10 622 LINE",
"-10 551 LINE",
"424 551 LINE",
"424 517 LINE",
"287 474 OFFCURVE",
"159 412 OFFCURVE",
"37 339 CURVE",
"76 243 LINE",
"230 218 OFFCURVE",
"364 119 OFFCURVE",
"425 0 CURVE"
);
},
{
closed = 1;
nodes = (
"365 213 OFFCURVE",
"232 281 OFFCURVE",
"130 304 CURVE",
"219 358 OFFCURVE",
"327 406 OFFCURVE",
"424 439 CURVE",
"424 189 LINE SMOOTH",
"424 156 OFFCURVE",
"425 132 OFFCURVE",
"427 108 CURVE"
);
}
);
width = 753;
}
);
category = Letter;
},
{
glyphname = Ssu;
lastChange = "2019-04-04 16:13:12 +0000";
layers = (
{
layerId = UUID0;
paths = (
{
closed = 1;
nodes = (
"563 0 LINE",
"563 551 LINE",
"668 551 LINE",
"668 622 LINE",
"554 622 LINE",
"536 694 OFFCURVE",
"476 750 OFFCURVE",
"373 750 CURVE SMOOTH",
"289 750 OFFCURVE",
"237 693 OFFCURVE",
"237 623 CURVE SMOOTH",
"237 608 OFFCURVE",
"242 597 OFFCURVE",
"245 591 CURVE",
"255 588 LINE",
"243 610 OFFCURVE",
"204 622 OFFCURVE",
"164 622 CURVE SMOOTH",
"97 622 OFFCURVE",
"45 585 OFFCURVE",
"25 534 CURVE",
"87 499 LINE",
"98 525 OFFCURVE",
"121 552 OFFCURVE",
"163 552 CURVE SMOOTH",
"217 552 OFFCURVE",
"244 517 OFFCURVE",
"244 460 CURVE SMOOTH",
"244 378 OFFCURVE",
"203 320 OFFCURVE",
"108 298 CURVE",
"111 291 LINE",
"131 219 LINE",
"231 217 OFFCURVE",
"424 90 OFFCURVE",
"486 0 CURVE"
);
},
{
closed = 1;
nodes = (
"434 154 OFFCURVE",
"344 226 OFFCURVE",
"222 267 CURVE",
"281 307 OFFCURVE",
"325 375 OFFCURVE",
"325 458 CURVE SMOOTH",
"325 466 OFFCURVE",
"324 474 OFFCURVE",
"323 481 CURVE",
"369 450 OFFCURVE",
"428 429 OFFCURVE",
"486 417 CURVE",
"486 239 LINE SMOOTH",
"486 206 OFFCURVE",
"489 111 OFFCURVE",
"491 87 CURVE"
);
},
{
closed = 1;
nodes = (
"403 509 OFFCURVE",
"313 540 OFFCURVE",
"313 620 CURVE SMOOTH",
"313 665 OFFCURVE",
"347 679 OFFCURVE",
"378 679 CURVE SMOOTH",
"454 679 OFFCURVE",
"486 631 OFFCURVE",
"486 574 CURVE SMOOTH",
"486 492 LINE"
);
}
);
width = 658;
}
);
category = Letter;
},
{
glyphname = Hu;
lastChange = "2019-04-04 16:13:12 +0000";
layers = (
{
layerId = UUID0;
paths = (
{
closed = 1;
nodes = (
"654 65 LINE",
"627 67 OFFCURVE",
"625 95 OFFCURVE",
"625 135 CURVE SMOOTH",
"625 347 LINE SMOOTH",
"625 434 OFFCURVE",
"606 500 OFFCURVE",
"513 500 CURVE SMOOTH",
"424 500 OFFCURVE",
"398 434 OFFCURVE",
"398 344 CURVE SMOOTH",
"398 252 LINE",
"376 266 OFFCURVE",
"353 277 OFFCURVE",
"329 283 CURVE",
"329 309 LINE SMOOTH",
"329 390 OFFCURVE",
"297 471 OFFCURVE",
"209 495 CURVE",
"205 517 OFFCURVE",
"196 535 OFFCURVE",
"186 551 CURVE",
"710 551 LINE",
"710 622 LINE",
"-10 622 LINE",
"-10 551 LINE",
"98 551 LINE",
"112 537 OFFCURVE",
"124 521 OFFCURVE",
"132 502 CURVE",
"64 495 OFFCURVE",
"25 449 OFFCURVE",
"25 392 CURVE SMOOTH",
"25 360 OFFCURVE",
"35 327 OFFCURVE",
"78 292 CURVE",
"130 343 LINE",
"111 357 OFFCURVE",
"103 374 OFFCURVE",
"103 390 CURVE SMOOTH",
"103 415 OFFCURVE",
"122 430 OFFCURVE",
"159 430 CURVE SMOOTH",
"212 430 OFFCURVE",
"252 378 OFFCURVE",
"252 310 CURVE SMOOTH",
"252 288 LINE",
"184 280 OFFCURVE",
"130 239 OFFCURVE",
"130 163 CURVE SMOOTH",
"130 110 OFFCURVE",
"161 74 OFFCURVE",
"190 57 CURVE",
"237 108 LINE",
"226 114 OFFCURVE",
"212 136 OFFCURVE",
"212 162 CURVE SMOOTH",
"212 198 OFFCURVE",
"236 219 OFFCURVE",
"282 219 CURVE SMOOTH",
"324 219 OFFCURVE",
"363 199 OFFCURVE",
"398 167 CURVE",
"398 0 LINE",
"475 0 LINE",
"475 346 LINE SMOOTH",
"475 406 OFFCURVE",
"484 429 OFFCURVE",
"513 429 CURVE SMOOTH",
"538 429 OFFCURVE",
"548 406 OFFCURVE",
"548 343 CURVE SMOOTH",
"548 124 LINE SMOOTH",
"548 68 OFFCURVE",
"561 -3 OFFCURVE",
"645 -6 CURVE"
);
}
);
width = 700;
}
);
category = Letter;
},
{
glyphname = Kuu;
lastChange = "2019-04-04 16:13:12 +0000";
layers = (
{
layerId = UUID0;
paths = (
{
closed = 1;
nodes = (
"642 -12 LINE",
"559 25 OFFCURVE",
"492 34 OFFCURVE",
"435 34 CURVE SMOOTH",
"408 34 OFFCURVE",
"384 32 OFFCURVE",
"361 30 CURVE SMOOTH",
"340 28 OFFCURVE",
"320 27 OFFCURVE",
"300 27 CURVE SMOOTH",
"268 27 OFFCURVE",
"244 40 OFFCURVE",
"244 66 CURVE SMOOTH",
"244 92 OFFCURVE",
"268 106 OFFCURVE",
"314 106 CURVE SMOOTH",
"328 106 OFFCURVE",
"342 105 OFFCURVE",
"351 104 CURVE",
"383 150 LINE",
"383 366 LINE",
"409 389 OFFCURVE",
"436 400 OFFCURVE",
"452 400 CURVE SMOOTH",
"479 400 OFFCURVE",
"488 382 OFFCURVE",
"488 333 CURVE SMOOTH",
"488 121 LINE",
"565 121 LINE",
"565 339 LINE SMOOTH",
"565 421 OFFCURVE",
"533 471 OFFCURVE",
"469 471 CURVE SMOOTH",
"436 471 OFFCURVE",
"407 458 OFFCURVE",
"382 437 CURVE",
"377 539 OFFCURVE",
"326 595 OFFCURVE",
"234 595 CURVE SMOOTH",
"147 595 OFFCURVE",
"89 531 OFFCURVE",
"89 463 CURVE SMOOTH",
"89 430 OFFCURVE",
"102 396 OFFCURVE",
"133 369 CURVE",
"185 424 LINE",
"170 439 OFFCURVE",
"164 455 OFFCURVE",
"164 470 CURVE SMOOTH",
"164 500 OFFCURVE",
"190 525 OFFCURVE",
"231 525 CURVE SMOOTH",
"291 525 OFFCURVE",
"306 489 OFFCURVE",
"306 410 CURVE SMOOTH",
"306 170 LINE",
"222 168 OFFCURVE",
"171 128 OFFCURVE",
"171 67 CURVE SMOOTH",
"171 7 OFFCURVE",
"214 -35 OFFCURVE",
"302 -35 CURVE SMOOTH",
"335 -35 OFFCURVE",
"361 -33 OFFCURVE",
"384 -31 CURVE SMOOTH",
"402 -29 OFFCURVE",
"419 -28 OFFCURVE",
"435 -28 CURVE SMOOTH",
"479 -28 OFFCURVE",
"522 -37 OFFCURVE",
"600 -65 CURVE"
);
},
{
closed = 1;
nodes = (
"610 551 LINE",
"610 622 LINE",
"363 622 LINE",
"363 551 LINE"
);
}
);
width = 600;
}
);
category = Letter;
},
{
glyphname = Dhuu;
lastChange = "2019-04-04 16:13:12 +0000";
layers = (
{
layerId = UUID0;
paths = (
{
closed = 1;
nodes = (
"518 0 LINE",
"518 370 LINE",
"543 390 OFFCURVE",
"568 400 OFFCURVE",
"583 400 CURVE SMOOTH",
"608 400 OFFCURVE",
"618 396 OFFCURVE",
"618 333 CURVE SMOOTH",
"618 121 LINE",
"695 121 LINE",
"695 339 LINE SMOOTH",
"695 398 OFFCURVE",
"676 471 OFFCURVE",
"599 471 CURVE SMOOTH",
"569 471 OFFCURVE",
"541 459 OFFCURVE",
"518 441 CURVE",
"518 551 LINE",
"737 551 LINE",
"737 622 LINE",
"441 622 LINE",
"441 517 LINE",
"377 497 OFFCURVE",
"316 473 OFFCURVE",
"256 446 CURVE",
"219 465 OFFCURVE",
"205 483 OFFCURVE",
"205 509 CURVE SMOOTH",
"205 536 OFFCURVE",
"228 554 OFFCURVE",
"268 554 CURVE SMOOTH",
"285 554 OFFCURVE",
"296 553 OFFCURVE",
"304 552 CURVE",
"310 624 LINE",
"292 627 OFFCURVE",
"273 629 OFFCURVE",
"257 629 CURVE SMOOTH",
"167 629 OFFCURVE",
"126 578 OFFCURVE",
"126 524 CURVE SMOOTH",
"126 478 OFFCURVE",
"149 444 OFFCURVE",
"189 414 CURVE",
"143 391 OFFCURVE",
"98 365 OFFCURVE",
"54 339 CURVE",
"93 243 LINE",
"247 218 OFFCURVE",
"381 119 OFFCURVE",
"442 0 CURVE"
);
},
{
closed = 1;
nodes = (
"382 213 OFFCURVE",
"249 281 OFFCURVE",
"147 304 CURVE",
"236 358 OFFCURVE",
"344 406 OFFCURVE",
"441 439 CURVE",
"441 189 LINE SMOOTH",
"441 156 OFFCURVE",
"442 132 OFFCURVE",
"444 108 CURVE"
);
}
);
width = 727;
}
);
category = Letter;
},
{
glyphname = Ruu;
lastChange = "2019-04-04 16:13:12 +0000";
layers = (
{
layerId = UUID0;
paths = (
{
closed = 1;
nodes = (
"501 0 LINE",
"501 373 LINE",
"525 391 OFFCURVE",
"549 400 OFFCURVE",
"563 400 CURVE SMOOTH",
"588 400 OFFCURVE",
"598 396 OFFCURVE",
"598 333 CURVE SMOOTH",
"598 121 LINE",
"675 121 LINE",
"675 339 LINE SMOOTH",
"675 398 OFFCURVE",
"656 471 OFFCURVE",
"579 471 CURVE SMOOTH",
"550 471 OFFCURVE",
"524 460 OFFCURVE",
"501 443 CURVE",
"501 551 LINE",
"720 551 LINE",
"720 622 LINE",
"-10 622 LINE",
"-10 551 LINE",
"424 551 LINE",
"424 517 LINE",
"287 474 OFFCURVE",
"159 412 OFFCURVE",
"37 339 CURVE",
"76 243 LINE",
"230 218 OFFCURVE",
"364 119 OFFCURVE",
"425 0 CURVE"
);
},
{
closed = 1;
nodes = (
"365 213 OFFCURVE",
"232 281 OFFCURVE",
"130 304 CURVE",
"219 358 OFFCURVE",
"327 406 OFFCURVE",
"424 439 CURVE",
"424 189 LINE SMOOTH",
"424 156 OFFCURVE",
"425 132 OFFCURVE",
"427 108 CURVE"
);
}
);
width = 710;
}
);
category = Letter;
},
{
glyphname = Huu;
lastChange = "2019-04-04 16:13:12 +0000";
layers = (
{
layerId = UUID0;
paths = (
{
closed = 1;
nodes = (
"611 -12 LINE",
"528 25 OFFCURVE",
"461 34 OFFCURVE",
"404 34 CURVE SMOOTH",
"377 34 OFFCURVE",
"353 32 OFFCURVE",
"330 30 CURVE SMOOTH",
"309 28 OFFCURVE",
"289 27 OFFCURVE",
"269 27 CURVE SMOOTH",
"237 27 OFFCURVE",
"213 40 OFFCURVE",
"213 66 CURVE SMOOTH",
"213 92 OFFCURVE",
"237 106 OFFCURVE",
"283 106 CURVE SMOOTH",
"297 106 OFFCURVE",
"311 105 OFFCURVE",
"320 104 CURVE",
"352 150 LINE",
"352 361 LINE",
"380 387 OFFCURVE",
"411 400 OFFCURVE",
"428 400 CURVE SMOOTH",
"453 400 OFFCURVE",
"463 396 OFFCURVE",
"463 333 CURVE SMOOTH",
"463 121 LINE",
"540 121 LINE",
"540 339 LINE SMOOTH",
"540 398 OFFCURVE",
"521 471 OFFCURVE",
"444 471 CURVE SMOOTH",
"404 471 OFFCURVE",
"368 451 OFFCURVE",
"341 421 CURVE",
"330 453 OFFCURVE",
"303 476 OFFCURVE",
"266 476 CURVE SMOOTH",
"207 476 OFFCURVE",
"156 426 OFFCURVE",
"113 315 CURVE",
"125 311 LINE",
"127 340 OFFCURVE",
"128 369 OFFCURVE",
"128 398 CURVE SMOOTH",
"128 551 LINE",
"585 551 LINE",
"585 622 LINE",
"-10 622 LINE",
"-10 551 LINE",
"56 551 LINE",
"56 226 LINE",
"128 206 LINE",
"156 291 OFFCURVE",
"222 405 OFFCURVE",
"254 405 CURVE SMOOTH",
"265 405 OFFCURVE",
"275 394 OFFCURVE",
"275 326 CURVE SMOOTH",
"275 170 LINE",
"191 168 OFFCURVE",
"140 128 OFFCURVE",
"140 67 CURVE SMOOTH",
"140 7 OFFCURVE",
"183 -35 OFFCURVE",
"271 -35 CURVE SMOOTH",
"304 -35 OFFCURVE",
"324 -34 OFFCURVE",
"348 -31 CURVE SMOOTH",
"366 -29 OFFCURVE",
"388 -28 OFFCURVE",
"404 -28 CURVE SMOOTH",
"448 -28 OFFCURVE",
"491 -37 OFFCURVE",
"569 -65 CURVE"
);
}
);
width = 575;
}
);
category = Letter;
},
{
glyphname = Kr;
lastChange = "2019-04-04 16:13:12 +0000";
layers = (
{
layerId = UUID0;
paths = (
{
closed = 1;
nodes = (
"320 -16 OFFCURVE",
"432 6 OFFCURVE",
"469 128 CURVE",
"400 161 LINE",
"376 82 OFFCURVE",
"309 58 OFFCURVE",
"257 58 CURVE SMOOTH",
"183 58 OFFCURVE",
"134 88 OFFCURVE",
"122 154 CURVE",
"104 125 LINE",
"227 148 OFFCURVE",
"344 231 OFFCURVE",
"363 341 CURVE",
"395 381 OFFCURVE",
"446 400 OFFCURVE",
"467 400 CURVE SMOOTH",
"492 400 OFFCURVE",
"507 385 OFFCURVE",
"507 333 CURVE SMOOTH",
"507 0 LINE",
"584 0 LINE",
"584 339 LINE SMOOTH",
"584 433 OFFCURVE",
"545 471 OFFCURVE",
"484 471 CURVE SMOOTH",
"433 471 OFFCURVE",
"396 449 OFFCURVE",
"367 417 CURVE",
"367 532 OFFCURVE",
"316 595 OFFCURVE",
"218 595 CURVE SMOOTH",
"131 595 OFFCURVE",
"73 531 OFFCURVE",
"73 463 CURVE SMOOTH",
"73 430 OFFCURVE",
"86 396 OFFCURVE",
"117 369 CURVE",
"169 424 LINE",
"154 439 OFFCURVE",
"148 455 OFFCURVE",
"148 470 CURVE SMOOTH",
"148 500 OFFCURVE",
"174 525 OFFCURVE",
"215 525 CURVE SMOOTH",
"267 525 OFFCURVE",
"290 489 OFFCURVE",
"290 410 CURVE SMOOTH",
"290 389 LINE SMOOTH",
"290 295 OFFCURVE",
"227 219 OFFCURVE",
"50 180 CURVE",
"50 144 LINE SMOOTH",
"50 72 OFFCURVE",
"130 -16 OFFCURVE",
"251 -16 CURVE SMOOTH"
);
},
{
closed = 1;
nodes = (
"634 551 LINE",
"634 622 LINE",
"347 622 LINE",
"347 551 LINE"
);
}
);
width = 624;
}
);
category = Letter;
},
{
glyphname = Tr;
lastChange = "2019-04-04 16:13:12 +0000";
layers = (
{
layerId = UUID0;
paths = (
{
closed = 1;
nodes = (
"446 -16 OFFCURVE",
"538 51 OFFCURVE",
"559 170 CURVE",
"484 191 LINE",
"473 94 OFFCURVE",
"403 58 OFFCURVE",
"305 58 CURVE SMOOTH",
"220 58 OFFCURVE",
"144 104 OFFCURVE",
"131 218 CURVE",
"115 205 LINE",
"165 183 OFFCURVE",
"215 175 OFFCURVE",
"269 175 CURVE SMOOTH",
"414 175 OFFCURVE",
"475 263 OFFCURVE",
"475 352 CURVE SMOOTH",
"475 431 OFFCURVE",
"430 500 OFFCURVE",
"313 500 CURVE SMOOTH",
"228 500 OFFCURVE",
"175 457 OFFCURVE",
"175 390 CURVE SMOOTH",
"175 371 OFFCURVE",
"180 350 OFFCURVE",
"190 335 CURVE",
"261 349 LINE",
"255 361 OFFCURVE",
"253 375 OFFCURVE",
"253 384 CURVE SMOOTH",
"253 410 OFFCURVE",
"270 434 OFFCURVE",
"313 434 CURVE SMOOTH",
"372 434 OFFCURVE",
"400 401 OFFCURVE",
"400 353 CURVE SMOOTH",
"400 306 OFFCURVE",
"373 248 OFFCURVE",
"265 248 CURVE SMOOTH",
"198 248 OFFCURVE",
"136 263 OFFCURVE",
"86 294 CURVE",
"50 230 LINE",
"80 28 OFFCURVE",
"189 -16 OFFCURVE",
"309 -16 CURVE SMOOTH"
);
},
{
closed = 1;
nodes = (
"604 551 LINE",
"604 622 LINE",
"-10 622 LINE",
"-10 551 LINE"
);
}
);
width = 594;
}
);
category = Letter;
},
{
glyphname = Bhr;
lastChange = "2019-04-04 16:13:12 +0000";
layers = (
{
layerId = UUID0;
paths = (
{
closed = 1;
nodes = (
"446 -16 OFFCURVE",
"538 51 OFFCURVE",
"559 170 CURVE",
"484 191 LINE",
"473 94 OFFCURVE",
"403 58 OFFCURVE",
"305 58 CURVE SMOOTH",
"227 58 OFFCURVE",
"157 96 OFFCURVE",
"136 190 CURVE",
"179 178 OFFCURVE",
"223 175 OFFCURVE",
"269 175 CURVE SMOOTH",
"383 175 OFFCURVE",
"502 223 OFFCURVE",
"502 373 CURVE SMOOTH",
"502 470 OFFCURVE",
"419 513 OFFCURVE",
"360 514 CURVE",
"352 502 OFFCURVE",
"342 488 OFFCURVE",
"332 475 CURVE SMOOTH",
"312 449 OFFCURVE",
"294 426 OFFCURVE",
"264 426 CURVE SMOOTH",
"245 426 OFFCURVE",
"234 435 OFFCURVE",
"216 454 CURVE SMOOTH",
"198 473 OFFCURVE",
"166 498 OFFCURVE",
"122 498 CURVE SMOOTH",
"91 498 OFFCURVE",
"60 487 OFFCURVE",
"44 473 CURVE",
"60 407 LINE",
"78 421 OFFCURVE",
"94 427 OFFCURVE",
"116 427 CURVE SMOOTH",
"147 427 OFFCURVE",
"165 411 OFFCURVE",
"182 393 CURVE SMOOTH",
"200 374 OFFCURVE",
"222 355 OFFCURVE",
"261 355 CURVE SMOOTH",
"316 355 OFFCURVE",
"365 406 OFFCURVE",
"382 432 CURVE",
"406 428 OFFCURVE",
"423 405 OFFCURVE",
"423 365 CURVE SMOOTH",
"423 288 OFFCURVE",
"343 248 OFFCURVE",
"265 248 CURVE SMOOTH",
"198 248 OFFCURVE",
"136 263 OFFCURVE",
"86 294 CURVE",
"50 230 LINE",
"80 28 OFFCURVE",
"189 -16 OFFCURVE",
"309 -16 CURVE SMOOTH"
);
},
{
closed = 1;
nodes = (
"600 551 LINE",
"600 622 LINE",
"-10 622 LINE",
"-10 551 LINE"
);
}
);
width = 590;
}
);
category = Letter;
},
{
glyphname = Hr;
lastChange = "2019-04-04 16:13:12 +0000";
layers = (
{
layerId = UUID0;
paths = (
{
closed = 1;
nodes = (
"338 -10 OFFCURVE",
"415 3 OFFCURVE",
"449 81 CURVE",
"388 116 LINE",
"377 92 OFFCURVE",
"351 59 OFFCURVE",
"295 59 CURVE SMOOTH",
"251 59 OFFCURVE",
"214 76 OFFCURVE",
"214 112 CURVE SMOOTH",
"214 152 OFFCURVE",
"249 181 OFFCURVE",
"288 212 CURVE SMOOTH",
"338 252 OFFCURVE",
"392 298 OFFCURVE",
"393 380 CURVE",
"411 393 OFFCURVE",
"429 400 OFFCURVE",
"441 400 CURVE SMOOTH",
"466 400 OFFCURVE",
"483 396 OFFCURVE",
"483 333 CURVE SMOOTH",
"483 0 LINE",
"560 0 LINE",
"560 353 LINE SMOOTH",
"560 398 OFFCURVE",
"541 471 OFFCURVE",
"464 471 CURVE SMOOTH",
"430 471 OFFCURVE",
"399 456 OFFCURVE",
"374 434 CURVE",
"358 455 OFFCURVE",
"330 471 OFFCURVE",
"289 471 CURVE SMOOTH",
"233 471 OFFCURVE",
"170 428 OFFCURVE",
"128 362 CURVE",
"128 551 LINE",
"610 551 LINE",
"610 622 LINE",
"-10 622 LINE",
"-10 551 LINE",
"56 551 LINE",
"56 236 LINE",
"128 216 LINE",
"145 332 OFFCURVE",
"232 400 OFFCURVE",
"284 400 CURVE SMOOTH",
"307 400 OFFCURVE",
"318 388 OFFCURVE",
"318 368 CURVE SMOOTH",
"318 327 OFFCURVE",
"284 295 OFFCURVE",
"243 263 CURVE SMOOTH",
"194 225 OFFCURVE",
"139 182 OFFCURVE",
"139 107 CURVE SMOOTH",
"139 26 OFFCURVE",
"205 -10 OFFCURVE",
"293 -10 CURVE SMOOTH"
);
}
);
width = 600;
}
);
category = Letter;
},
{
glyphname = KhaNa;
lastChange = "2019-04-04 16:13:12 +0000";
layers = (
{
layerId = UUID0;
paths = (
{
closed = 1;
nodes = (
"751 -184 LINE",
"707 -142 OFFCURVE",
"655 -97 OFFCURVE",
"591 -66 CURVE",
"597 -47 OFFCURVE",
"601 -25 OFFCURVE",
"601 0 CURVE SMOOTH",
"601 551 LINE",
"706 551 LINE",
"706 622 LINE",
"600 622 LINE",
"577 688 LINE",
"524 688 LINE",
"524 193 LINE SMOOTH",
"524 157 OFFCURVE",
"524 127 OFFCURVE",
"526 97 CURVE",
"477 164 OFFCURVE",
"397 243 OFFCURVE",
"251 282 CURVE",
"367 305 OFFCURVE",
"450 365 OFFCURVE",
"450 470 CURVE SMOOTH",
"450 530 OFFCURVE",
"420 580 OFFCURVE",
"375 622 CURVE",
"317 622 LINE",
"274 524 OFFCURVE",
"221 501 OFFCURVE",
"182 501 CURVE SMOOTH",
"151 501 OFFCURVE",
"130 517 OFFCURVE",
"130 552 CURVE SMOOTH",
"130 573 OFFCURVE",
"138 593 OFFCURVE",
"147 607 CURVE",
"71 628 LINE",
"59 608 OFFCURVE",
"49 579 OFFCURVE",
"49 548 CURVE SMOOTH",
"49 474 OFFCURVE",
"101 430 OFFCURVE",
"182 430 CURVE SMOOTH",
"255 430 OFFCURVE",
"312 470 OFFCURVE",
"352 535 CURVE",
"368 514 OFFCURVE",
"375 492 OFFCURVE",
"375 466 CURVE SMOOTH",
"375 391 OFFCURVE",
"303 343 OFFCURVE",
"142 331 CURVE",
"166 238 LINE",
"336 208 OFFCURVE",
"448 110 OFFCURVE",
"524 0 CURVE",
"524 -8 LINE SMOOTH",
"524 -19 OFFCURVE",
"523 -29 OFFCURVE",
"520 -38 CURVE",
"502 -32 OFFCURVE",
"486 -28 OFFCURVE",
"469 -28 CURVE SMOOTH",
"426 -28 OFFCURVE",
"391 -57 OFFCURVE",
"391 -94 CURVE SMOOTH",
"391 -131 OFFCURVE",
"426 -160 OFFCURVE",
"469 -160 CURVE SMOOTH",
"501 -160 OFFCURVE",
"529 -147 OFFCURVE",
"551 -128 CURVE",
"604 -155 OFFCURVE",
"658 -192 OFFCURVE",
"704 -236 CURVE"
);
}
);
width = 696;
}
);
category = Letter;
},
{
glyphname = PhaNa;
lastChange = "2019-04-04 16:13:12 +0000";
layers = (
{
layerId = UUID0;
paths = (
{
closed = 1;
nodes = (
"671 -184 LINE",
"627 -142 OFFCURVE",
"575 -97 OFFCURVE",
"511 -66 CURVE",
"517 -47 OFFCURVE",
"521 -25 OFFCURVE",
"521 1 CURVE SMOOTH",
"521 434 LINE",
"573 434 LINE SMOOTH",
"637 434 OFFCURVE",
"664 401 OFFCURVE",
"664 368 CURVE SMOOTH",
"664 337 OFFCURVE",
"648 302 OFFCURVE",
"599 302 CURVE SMOOTH",
"591 302 OFFCURVE",
"582 303 OFFCURVE",
"575 304 CURVE",
"570 233 LINE",
"588 229 OFFCURVE",
"608 228 OFFCURVE",
"613 228 CURVE SMOOTH",
"711 228 OFFCURVE",
"744 307 OFFCURVE",
"744 364 CURVE SMOOTH",
"744 442 OFFCURVE",
"702 510 OFFCURVE",
"551 510 CURVE SMOOTH",
"445 510 LINE",
"445 171 LINE SMOOTH",
"445 146 OFFCURVE",
"446 121 OFFCURVE",
"447 99 CURVE",
"383 169 OFFCURVE",
"323 221 OFFCURVE",
"206 254 CURVE",
"205 235 LINE",
"311 266 OFFCURVE",
"357 318 OFFCURVE",
"357 384 CURVE SMOOTH",
"357 463 OFFCURVE",
"304 521 OFFCURVE",
"207 521 CURVE SMOOTH",
"122 521 OFFCURVE",
"69 478 OFFCURVE",
"69 411 CURVE SMOOTH",
"69 400 OFFCURVE",
"74 371 OFFCURVE",
"84 356 CURVE",
"155 370 LINE",
"149 382 OFFCURVE",
"147 396 OFFCURVE",
"147 405 CURVE SMOOTH",
"147 431 OFFCURVE",
"164 455 OFFCURVE",
"207 455 CURVE SMOOTH",
"252 455 OFFCURVE",
"282 433 OFFCURVE",
"282 385 CURVE SMOOTH",
"282 296 OFFCURVE",
"142 273 OFFCURVE",
"91 273 CURVE",
"123 206 LINE",
"250 188 OFFCURVE",
"362 111 OFFCURVE",
"444 1 CURVE",
"444 -8 LINE SMOOTH",
"444 -19 OFFCURVE",
"443 -29 OFFCURVE",
"440 -38 CURVE",
"422 -32 OFFCURVE",
"406 -28 OFFCURVE",
"389 -28 CURVE SMOOTH",
"346 -28 OFFCURVE",
"311 -57 OFFCURVE",
"311 -94 CURVE SMOOTH",
"311 -131 OFFCURVE",
"346 -160 OFFCURVE",
"389 -160 CURVE SMOOTH",
"421 -160 OFFCURVE",
"449 -147 OFFCURVE",
"471 -128 CURVE",
"524 -155 OFFCURVE",
"578 -192 OFFCURVE",
"624 -236 CURVE"
);
},
{
closed = 1;
nodes = (
"778 551 LINE",
"778 622 LINE",
"-10 622 LINE",
"-10 551 LINE"
);
}
);
width = 769;
}
);
category = Letter;
},
{
glyphname = SaNa;
lastChange = "2019-04-04 16:13:12 +0000";
layers = (
{
layerId = UUID0;
paths = (
{
closed = 1;
nodes = (
"737 -74 LINE",
"693 -32 OFFCURVE",
"641 13 OFFCURVE",
"577 44 CURVE",
"583 63 OFFCURVE",
"587 85 OFFCURVE",
"587 111 CURVE SMOOTH",
"587 551 LINE",
"692 551 LINE",
"692 622 LINE",
"-10 622 LINE",
"-10 551 LINE",
"49 551 LINE",
"38 495 LINE",
"125 484 OFFCURVE",
"180 472 OFFCURVE",
"214 441 CURVE SMOOTH",
"246 412 OFFCURVE",
"257 367 OFFCURVE",
"269 285 CURVE",
"232 223 OFFCURVE",
"206 205 OFFCURVE",
"180 205 CURVE SMOOTH",
"152 205 OFFCURVE",
"132 218 OFFCURVE",
"96 281 CURVE",
"35 244 LINE",
"90 156 OFFCURVE",
"134 127 OFFCURVE",
"188 127 CURVE SMOOTH",
"257 127 OFFCURVE",
"289 169 OFFCURVE",
"343 268 CURVE SMOOTH",
"393 359 OFFCURVE",
"407 375 OFFCURVE",
"436 375 CURVE SMOOTH",
"458 375 OFFCURVE",
"480 355 OFFCURVE",
"510 318 CURVE",
"510 102 LINE SMOOTH",
"510 91 OFFCURVE",
"509 81 OFFCURVE",
"506 72 CURVE",
"488 78 OFFCURVE",
"472 82 OFFCURVE",
"455 82 CURVE SMOOTH",
"412 82 OFFCURVE",
"377 53 OFFCURVE",
"377 16 CURVE SMOOTH",
"377 -21 OFFCURVE",
"412 -50 OFFCURVE",
"455 -50 CURVE SMOOTH",
"487 -50 OFFCURVE",
"515 -37 OFFCURVE",
"537 -18 CURVE",
"590 -45 OFFCURVE",
"644 -82 OFFCURVE",
"690 -126 CURVE"
);
},
{
closed = 1;
nodes = (
"304 481 OFFCURVE",
"256 528 OFFCURVE",
"107 551 CURVE",
"510 551 LINE",
"510 458 LINE SMOOTH",
"510 437 OFFCURVE",
"510 418 OFFCURVE",
"513 397 CURVE",
"478 432 OFFCURVE",
"453 450 OFFCURVE",
"415 450 CURVE SMOOTH",
"377 450 OFFCURVE",
"349 429 OFFCURVE",
"314 359 CURVE"
);
}
);
width = 682;
}
);
category = Letter;
},
{
glyphname = TaYa;
lastChange = "2019-04-04 16:13:12 +0000";
layers = (
{
layerId = UUID0;
paths = (
{
closed = 1;
nodes = (
"498 11 LINE",
"422 73 OFFCURVE",
"342 94 OFFCURVE",
"275 107 CURVE SMOOTH",
"187 124 OFFCURVE",
"122 138 OFFCURVE",
"122 234 CURVE SMOOTH",
"122 290 OFFCURVE",
"132 323 OFFCURVE",
"149 349 CURVE",
"201 276 OFFCURVE",
"257 242 OFFCURVE",
"309 242 CURVE SMOOTH",
"371 242 OFFCURVE",
"424 268 OFFCURVE",
"424 376 CURVE SMOOTH",
"424 551 LINE",
"563 551 LINE",
"563 622 LINE",
"-10 622 LINE",
"-10 551 LINE",
"347 551 LINE",
"347 372 LINE SMOOTH",
"347 316 OFFCURVE",
"323 316 OFFCURVE",
"310 316 CURVE SMOOTH",
"271 316 OFFCURVE",
"230 350 OFFCURVE",
"173 433 CURVE",
"114 442 LINE",
"71 379 OFFCURVE",
"46 312 OFFCURVE",
"46 244 CURVE SMOOTH",
"46 92 OFFCURVE",
"141 65 OFFCURVE",
"248 45 CURVE SMOOTH",
"317 32 OFFCURVE",
"392 11 OFFCURVE",
"451 -44 CURVE"
);
}
);
width = 553;
}
);
category = Letter;
},
{
glyphname = DaYa;
lastChange = "2019-04-04 16:13:12 +0000";
layers = (
{
layerId = UUID0;
paths = (
{
closed = 1;
nodes = (
"470 0 OFFCURVE",
"560 105 OFFCURVE",
"560 247 CURVE SMOOTH",
"560 551 LINE",
"643 551 LINE",
"643 622 LINE",
"-10 622 LINE",
"-10 551 LINE",
"151 551 LINE",
"91 519 OFFCURVE",
"36 440 OFFCURVE",
"36 356 CURVE SMOOTH",
"36 291 OFFCURVE",
"70 235 OFFCURVE",
"151 235 CURVE SMOOTH",
"233 235 OFFCURVE",
"274 301 OFFCURVE",
"302 362 CURVE",
"314 339 OFFCURVE",
"321 314 OFFCURVE",
"321 285 CURVE SMOOTH",
"321 215 OFFCURVE",
"268 173 OFFCURVE",
"175 173 CURVE SMOOTH",
"165 173 OFFCURVE",
"135 174 OFFCURVE",
"126 175 CURVE",
"112 102 LINE",
"167 20 OFFCURVE",
"230 0 OFFCURVE",
"307 0 CURVE SMOOTH"
);
},
{
closed = 1;
nodes = (
"270 74 OFFCURVE",
"235 83 OFFCURVE",
"205 103 CURVE",
"326 113 OFFCURVE",
"396 185 OFFCURVE",
"396 283 CURVE SMOOTH",
"396 341 OFFCURVE",
"371 394 OFFCURVE",
"331 449 CURVE",
"268 440 LINE",
"237 360 OFFCURVE",
"194 305 OFFCURVE",
"160 305 CURVE SMOOTH",
"119 305 OFFCURVE",
"111 340 OFFCURVE",
"111 376 CURVE SMOOTH",
"111 455 OFFCURVE",
"192 530 OFFCURVE",
"255 551 CURVE",
"483 551 LINE",
"483 244 LINE SMOOTH",
"483 155 OFFCURVE",
"446 74 OFFCURVE",
"306 74 CURVE SMOOTH"
);
}
);
width = 634;
}
);
category = Letter;
},
{
glyphname = NaYa;
lastChange = "2019-04-04 16:13:12 +0000";
layers = (
{
layerId = UUID0;
paths = (
{
closed = 1;
nodes = (
"283 172 OFFCURVE",
"175 172 CURVE SMOOTH",
"155 172 OFFCURVE",
"139 173 OFFCURVE",
"126 175 CURVE",
"112 102 LINE",
"155 39 OFFCURVE",
"225 0 OFFCURVE",
"307 0 CURVE SMOOTH",
"470 0 OFFCURVE",
"560 95 OFFCURVE",
"560 237 CURVE SMOOTH",
"560 551 LINE",
"643 551 LINE",
"643 622 LINE",
"-10 622 LINE",
"-10 551 LINE",
"249 551 LINE",
"287 502 OFFCURVE",
"315 433 OFFCURVE",
"315 355 CURVE SMOOTH",
"315 243 OFFCURVE"
);
},
{
closed = 1;
nodes = (
"253 74 OFFCURVE",
"211 93 OFFCURVE",
"187 123 CURVE",
"183 107 LINE",
"307 111 OFFCURVE",
"393 205 OFFCURVE",
"393 363 CURVE SMOOTH",
"393 435 OFFCURVE",
"373 498 OFFCURVE",
"341 551 CURVE",
"483 551 LINE",
"483 244 LINE SMOOTH",
"483 155 OFFCURVE",
"446 74 OFFCURVE",
"306 74 CURVE SMOOTH"
);
},
{
closed = 1;
nodes = (
"331 304 LINE",
"277 383 OFFCURVE",
"184 439 OFFCURVE",
"108 439 CURVE SMOOTH",
"38 439 OFFCURVE",
"-1 405 OFFCURVE",
"-1 360 CURVE SMOOTH",
"-1 317 OFFCURVE",
"36 296 OFFCURVE",
"68 296 CURVE SMOOTH",
"104 296 OFFCURVE",
"134 321 OFFCURVE",
"156 354 CURVE",
"255 319 OFFCURVE",
"297 254 OFFCURVE",
"304 237 CURVE"
);
}
);
width = 634;
}
);
category = Letter;
},
{
glyphname = BhaYa;
lastChange = "2019-04-04 16:13:12 +0000";
layers = (
{
layerId = UUID0;
paths = (
{
closed = 1;
nodes = (
"470 0 OFFCURVE",
"560 105 OFFCURVE",
"560 247 CURVE SMOOTH",
"560 551 LINE",
"643 551 LINE",
"643 622 LINE",
"-10 622 LINE",
"-10 551 LINE",
"483 551 LINE",
"483 244 LINE SMOOTH",
"483 155 OFFCURVE",
"446 74 OFFCURVE",
"306 74 CURVE SMOOTH",
"249 74 OFFCURVE",
"206 104 OFFCURVE",
"197 145 CURVE",
"310 146 OFFCURVE",
"427 196 OFFCURVE",
"427 355 CURVE SMOOTH",
"427 452 OFFCURVE",
"339 514 OFFCURVE",
"295 515 CURVE",
"286 504 OFFCURVE",
"278 490 OFFCURVE",
"268 471 CURVE SMOOTH",
"254 445 OFFCURVE",
"239 426 OFFCURVE",
"217 426 CURVE SMOOTH",
"200 426 OFFCURVE",
"188 437 OFFCURVE",
"174 455 CURVE SMOOTH",
"160 472 OFFCURVE",
"133 499 OFFCURVE",
"94 499 CURVE SMOOTH",
"67 499 OFFCURVE",
"43 488 OFFCURVE",
"30 474 CURVE",
"43 407 LINE",
"58 421 OFFCURVE",
"72 427 OFFCURVE",
"90 427 CURVE SMOOTH",
"116 427 OFFCURVE",
"131 411 OFFCURVE",
"145 393 CURVE SMOOTH",
"161 373 OFFCURVE",
"178 355 OFFCURVE",
"211 355 CURVE SMOOTH",
"252 355 OFFCURVE",
"285 390 OFFCURVE",
"312 432 CURVE",
"332 428 OFFCURVE",
"348 405 OFFCURVE",
"348 352 CURVE SMOOTH",
"348 254 OFFCURVE",
"275 209 OFFCURVE",
"194 209 CURVE SMOOTH",
"174 209 OFFCURVE",
"154 212 OFFCURVE",
"135 217 CURVE",
"120 158 LINE",
"129 53 OFFCURVE",
"230 0 OFFCURVE",
"307 0 CURVE SMOOTH"
);
}
);
width = 634;
}
);
category = Letter;
},
{
glyphname = ShaYa;
lastChange = "2019-04-04 16:13:12 +0000";
layers = (
{
layerId = UUID0;
paths = (
{
closed = 1;
nodes = (
"488 0 OFFCURVE",
"578 105 OFFCURVE",
"578 247 CURVE SMOOTH",
"578 551 LINE",
"661 551 LINE",
"661 622 LINE",
"501 622 LINE",
"501 244 LINE SMOOTH",
"501 155 OFFCURVE",
"464 74 OFFCURVE",
"335 74 CURVE SMOOTH",
"257 74 OFFCURVE",
"196 126 OFFCURVE",
"185 164 CURVE",
"368 191 OFFCURVE",
"435 308 OFFCURVE",
"435 466 CURVE SMOOTH",
"435 657 OFFCURVE",
"373 810 OFFCURVE",
"197 810 CURVE SMOOTH",
"131 810 OFFCURVE",
"79 773 OFFCURVE",
"63 730 CURVE",
"122 703 LINE",
"134 727 OFFCURVE",
"158 745 OFFCURVE",
"198 745 CURVE SMOOTH",
"281 745 OFFCURVE",
"327 691 OFFCURVE",
"345 592 CURVE",
"321 615 OFFCURVE",
"290 628 OFFCURVE",
"257 628 CURVE SMOOTH",
"218 628 OFFCURVE",
"175 606 OFFCURVE",
"155 562 CURVE",
"132 605 OFFCURVE",
"88 622 OFFCURVE",
"47 622 CURVE SMOOTH",
"-10 622 LINE",
"-10 551 LINE",
"27 551 LINE SMOOTH",
"77 551 OFFCURVE",
"110 538 OFFCURVE",
"110 497 CURVE SMOOTH",
"110 462 OFFCURVE",
"88 425 OFFCURVE",
"32 424 CURVE",
"36 352 LINE",
"100 352 OFFCURVE",
"140 386 OFFCURVE",
"158 429 CURVE",
"181 386 OFFCURVE",
"225 356 OFFCURVE",
"289 352 CURVE",
"294 424 LINE",
"237 425 OFFCURVE",
"206 456 OFFCURVE",
"206 499 CURVE SMOOTH",
"206 544 OFFCURVE",
"236 555 OFFCURVE",
"264 555 CURVE SMOOTH",
"302 555 OFFCURVE",
"331 536 OFFCURVE",
"355 493 CURVE",
"356 483 OFFCURVE",
"356 473 OFFCURVE",
"356 462 CURVE SMOOTH",
"356 299 OFFCURVE",
"268 229 OFFCURVE",
"112 229 CURVE",
"98 156 LINE",
"115 117 OFFCURVE",
"185 0 OFFCURVE",
"341 0 CURVE SMOOTH"
);
}
);
width = 653;
}
);
category = Letter;
},
{
glyphname = SaYa;
lastChange = "2019-04-04 16:13:12 +0000";
layers = (
{
layerId = UUID0;
paths = (
{
closed = 1;
nodes = (
"655 0 OFFCURVE",
"722 105 OFFCURVE",
"722 247 CURVE SMOOTH",
"722 551 LINE",
"805 551 LINE",
"805 622 LINE",
"-10 622 LINE",
"-10 551 LINE",
"202 551 LINE",
"195 434 OFFCURVE",
"164 396 OFFCURVE",
"118 396 CURVE SMOOTH",
"92 396 OFFCURVE",
"72 404 OFFCURVE",
"41 453 CURVE",
"-16 414 LINE",
"34 341 OFFCURVE",
"76 319 OFFCURVE",
"129 319 CURVE SMOOTH",
"198 319 OFFCURVE",
"242 372 OFFCURVE",
"251 439 CURVE",
"286 366 OFFCURVE",
"336 322 OFFCURVE",
"411 322 CURVE SMOOTH",
"469 322 OFFCURVE",
"497 340 OFFCURVE",
"518 362 CURVE",
"503 368 LINE",
"503 267 OFFCURVE",
"423 219 OFFCURVE",
"341 219 CURVE SMOOTH",
"321 219 OFFCURVE",
"298 222 OFFCURVE",
"279 227 CURVE",
"264 168 LINE",
"278 73 OFFCURVE",
"373 0 OFFCURVE",
"478 0 CURVE SMOOTH"
);
},
{
closed = 1;
nodes = (
"405 74 OFFCURVE",
"362 108 OFFCURVE",
"344 155 CURVE",
"457 156 OFFCURVE",
"574 207 OFFCURVE",
"574 381 CURVE SMOOTH",
"574 402 OFFCURVE",
"568 456 OFFCURVE",
"549 485 CURVE",
"556 439 LINE",
"559 447 OFFCURVE",
"559 460 OFFCURVE",
"559 473 CURVE SMOOTH",
"559 500 OFFCURVE",
"549 531 OFFCURVE",
"539 551 CURVE",
"645 551 LINE",
"645 244 LINE SMOOTH",
"645 155 OFFCURVE",
"608 74 OFFCURVE",
"469 74 CURVE SMOOTH"
);
},
{
closed = 1;
nodes = (
"335 390 OFFCURVE",
"299 461 OFFCURVE",
"276 551 CURVE",
"454 551 LINE",
"473 523 OFFCURVE",
"486 492 OFFCURVE",
"486 461 CURVE SMOOTH",
"486 416 OFFCURVE",
"469 390 OFFCURVE",
"423 390 CURVE SMOOTH"
);
}
);
width = 795;
}
);
category = Letter;
},
{
glyphname = HaYa;
lastChange = "2019-04-04 16:13:12 +0000";
layers = (
{
layerId = UUID0;
paths = (
{
closed = 1;
nodes = (
"480 18 LINE",
"400 29 OFFCURVE",
"142 89 OFFCURVE",
"142 243 CURVE SMOOTH",
"142 317 OFFCURVE",
"191 346 OFFCURVE",
"233 346 CURVE SMOOTH",
"287 346 OFFCURVE",
"319 315 OFFCURVE",
"319 270 CURVE SMOOTH",
"319 238 OFFCURVE",
"317 214 OFFCURVE",
"290 195 CURVE",
"296 125 LINE",
"311 123 OFFCURVE",
"325 122 OFFCURVE",
"339 122 CURVE SMOOTH",
"482 122 OFFCURVE",
"545 190 OFFCURVE",
"545 308 CURVE SMOOTH",
"545 551 LINE",
"628 551 LINE",
"628 622 LINE",
"-10 622 LINE",
"-10 551 LINE",
"68 551 LINE",
"68 382 LINE SMOOTH",
"68 358 OFFCURVE",
"71 336 OFFCURVE",
"77 317 CURVE",
"70 296 OFFCURVE",
"66 272 OFFCURVE",
"66 244 CURVE SMOOTH",
"66 55 OFFCURVE",
"315 -29 OFFCURVE",
"456 -44 CURVE"
);
},
{
closed = 1;
nodes = (
"386 219 OFFCURVE",
"395 246 OFFCURVE",
"395 282 CURVE SMOOTH",
"395 360 OFFCURVE",
"327 416 OFFCURVE",
"235 416 CURVE SMOOTH",
"201 416 OFFCURVE",
"170 409 OFFCURVE",
"145 396 CURVE",
"145 551 LINE",
"468 551 LINE",
"468 315 LINE SMOOTH",
"468 233 OFFCURVE",
"439 204 OFFCURVE",
"369 195 CURVE"
);
}
);
width = 618;
}
);
category = Letter;
},
{
glyphname = Ya.post;
lastChange = "2019-04-04 16:13:10 +0000";
layers = (
{
layerId = UUID0;
paths = (
{
closed = 1;
nodes = (
"159 -7 OFFCURVE",
"172 64 OFFCURVE",
"172 120 CURVE SMOOTH",
"172 551 LINE",
"276 551 LINE",
"276 622 LINE",
"-10 622 LINE",
"-10 551 LINE",
"95 551 LINE",
"95 131 LINE SMOOTH",
"95 91 OFFCURVE",
"93 63 OFFCURVE",
"66 61 CURVE",
"75 -10 LINE"
);
}
);
width = 266;
}
);
category = Letter;
},
{
glyphname = RaGa;
lastChange = "2019-04-04 16:13:12 +0000";
layers = (
{
layerId = UUID0;
paths = (
{
closed = 1;
nodes = (
"688 65 LINE",
"661 67 OFFCURVE",
"659 95 OFFCURVE",
"659 135 CURVE SMOOTH",
"659 340 LINE SMOOTH",
"659 427 OFFCURVE",
"640 500 OFFCURVE",
"547 500 CURVE SMOOTH",
"458 500 OFFCURVE",
"432 427 OFFCURVE",
"432 337 CURVE SMOOTH",
"432 206 LINE",
"404 231 OFFCURVE",
"373 248 OFFCURVE",
"338 256 CURVE",
"357 286 OFFCURVE",
"367 322 OFFCURVE",
"367 364 CURVE SMOOTH",
"367 420 OFFCURVE",
"349 471 OFFCURVE",
"321 504 CURVE",
"258 491 LINE",
"229 427 OFFCURVE",
"196 405 OFFCURVE",
"157 405 CURVE SMOOTH",
"126 405 OFFCURVE",
"107 421 OFFCURVE",
"107 456 CURVE SMOOTH",
"107 470 OFFCURVE",
"109 484 OFFCURVE",
"114 496 CURVE",
"37 515 LINE",
"29 497 OFFCURVE",
"26 475 OFFCURVE",
"26 452 CURVE SMOOTH",
"26 378 OFFCURVE",
"85 334 OFFCURVE",
"139 334 CURVE SMOOTH",
"208 334 OFFCURVE",
"250 362 OFFCURVE",
"286 415 CURVE",
"290 395 OFFCURVE",
"292 375 OFFCURVE",
"292 357 CURVE SMOOTH",
"292 310 OFFCURVE",
"267 271 OFFCURVE",
"231 249 CURVE",
"187 233 OFFCURVE",
"151 198 OFFCURVE",
"151 139 CURVE SMOOTH",
"151 83 OFFCURVE",
"182 42 OFFCURVE",
"211 28 CURVE",
"258 79 LINE",
"247 85 OFFCURVE",
"233 107 OFFCURVE",
"233 133 CURVE SMOOTH",
"233 169 OFFCURVE",
"255 190 OFFCURVE",
"301 190 CURVE SMOOTH",
"352 190 OFFCURVE",
"392 160 OFFCURVE",
"432 116 CURVE",
"432 0 LINE",
"509 0 LINE",
"509 346 LINE SMOOTH",
"509 400 OFFCURVE",
"518 429 OFFCURVE",
"547 429 CURVE SMOOTH",
"572 429 OFFCURVE",
"582 425 OFFCURVE",
"582 343 CURVE SMOOTH",
"582 124 LINE SMOOTH",
"582 68 OFFCURVE",
"595 -3 OFFCURVE",
"679 -6 CURVE"
);
},
{
closed = 1;
nodes = (
"735 551 LINE",
"735 622 LINE",
"-10 622 LINE",
"-10 551 LINE"
);
}
);
width = 725;
}
);
category = Letter;
},
{
glyphname = Repha;
lastChange = "2019-04-04 16:13:10 +0000";
layers = (
{
layerId = UUID0;
paths = (
{
closed = 1;
nodes = (
"260 746 LINE",
"140 749 OFFCURVE",
"100 766 OFFCURVE",
"100 819 CURVE SMOOTH",
"100 873 OFFCURVE",
"150 892 OFFCURVE",
"220 892 CURVE SMOOTH",
"332 892 LINE",
"332 963 LINE",
"212 963 LINE SMOOTH",
"129 963 OFFCURVE",
"30 931 OFFCURVE",
"30 812 CURVE SMOOTH",
"30 730 OFFCURVE",
"89 675 OFFCURVE",
"242 675 CURVE"
);
}
);
width = 0;
}
);
category = Mark;
},
{
glyphname = KaLa;
lastChange = "2019-04-04 16:13:12 +0000";
layers = (
{
layerId = UUID0;
paths = (
{
closed = 1;
nodes = (
"641 -297 LINE",
"616 -234 OFFCURVE",
"561 -110 OFFCURVE",
"479 -49 CURVE",
"486 -29 OFFCURVE",
"491 -5 OFFCURVE",
"491 24 CURVE SMOOTH",
"491 415 LINE",
"584 411 OFFCURVE",
"684 386 OFFCURVE",
"684 300 CURVE SMOOTH",
"684 265 OFFCURVE",
"670 232 OFFCURVE",
"606 232 CURVE SMOOTH",
"591 232 OFFCURVE",
"580 233 OFFCURVE",
"572 234 CURVE",
"566 163 LINE",
"584 159 OFFCURVE",
"604 158 OFFCURVE",
"625 158 CURVE SMOOTH",
"725 158 OFFCURVE",
"761 226 OFFCURVE",
"761 292 CURVE SMOOTH",
"761 428 OFFCURVE",
"628 481 OFFCURVE",
"491 488 CURVE",
"491 551 LINE",
"817 551 LINE",
"817 622 LINE",
"-10 622 LINE",
"-10 551 LINE",
"414 551 LINE",
"414 487 LINE",
"262 472 OFFCURVE",
"124 388 OFFCURVE",
"37 335 CURVE",
"76 243 LINE",
"221 224 OFFCURVE",
"354 120 OFFCURVE",
"413 3 CURVE",
"413 -4 OFFCURVE",
"412 -11 OFFCURVE",
"410 -17 CURVE",
"400 -15 OFFCURVE",
"391 -14 OFFCURVE",
"381 -14 CURVE SMOOTH",
"306 -14 OFFCURVE",
"263 -62 OFFCURVE",
"263 -118 CURVE SMOOTH",
"263 -179 OFFCURVE",
"307 -221 OFFCURVE",
"370 -221 CURVE SMOOTH",
"424 -221 OFFCURVE",
"458 -188 OFFCURVE",
"478 -167 CURVE",
"439 -124 LINE",
"422 -143 OFFCURVE",
"406 -159 OFFCURVE",
"378 -159 CURVE SMOOTH",
"348 -159 OFFCURVE",
"332 -143 OFFCURVE",
"332 -119 CURVE SMOOTH",
"332 -95 OFFCURVE",
"348 -79 OFFCURVE",
"380 -79 CURVE SMOOTH",
"472 -79 OFFCURVE",
"537 -206 OFFCURVE",
"588 -331 CURVE"
);
},
{
closed = 1;
nodes = (
"361 204 OFFCURVE",
"235 284 OFFCURVE",
"130 304 CURVE",
"184 339 OFFCURVE",
"287 400 OFFCURVE",
"414 413 CURVE",
"414 189 LINE SMOOTH",
"414 156 OFFCURVE",
"415 132 OFFCURVE",
"417 108 CURVE"
);
}
);
width = 807;
}
);
category = Letter;
},
{
glyphname = PhaLa;
lastChange = "2019-04-04 16:13:12 +0000";
layers = (
{
layerId = UUID0;
paths = (
{
closed = 1;
nodes = (
"123 206 LINE",
"250 188 OFFCURVE",
"361 112 OFFCURVE",
"443 2 CURVE",
"443 -5 OFFCURVE",
"442 -11 OFFCURVE",
"440 -17 CURVE",
"430 -15 OFFCURVE",
"421 -14 OFFCURVE",
"411 -14 CURVE SMOOTH",
"333 -14 OFFCURVE",
"293 -67 OFFCURVE",
"293 -118 CURVE SMOOTH",
"293 -187 OFFCURVE",
"348 -221 OFFCURVE",
"400 -221 CURVE SMOOTH",
"454 -221 OFFCURVE",
"488 -188 OFFCURVE",
"508 -167 CURVE",
"469 -124 LINE",
"442 -149 OFFCURVE",
"430 -159 OFFCURVE",
"398 -159 CURVE SMOOTH",
"387 -159 OFFCURVE",
"362 -150 OFFCURVE",
"362 -120 CURVE SMOOTH",
"362 -96 OFFCURVE",
"378 -79 OFFCURVE",
"410 -79 CURVE SMOOTH",
"502 -79 OFFCURVE",
"567 -206 OFFCURVE",
"618 -331 CURVE",
"671 -297 LINE",
"646 -234 OFFCURVE",
"591 -110 OFFCURVE",
"509 -49 CURVE",
"516 -29 OFFCURVE",
"521 -5 OFFCURVE",
"521 24 CURVE SMOOTH",
"521 434 LINE",
"573 434 LINE SMOOTH",
"637 434 OFFCURVE",
"664 401 OFFCURVE",
"664 368 CURVE SMOOTH",
"664 337 OFFCURVE",
"648 302 OFFCURVE",
"599 302 CURVE SMOOTH",
"591 302 OFFCURVE",
"583 303 OFFCURVE",
"575 304 CURVE",
"570 233 LINE",
"588 229 OFFCURVE",
"608 228 OFFCURVE",
"613 228 CURVE SMOOTH",
"711 228 OFFCURVE",
"744 307 OFFCURVE",
"744 364 CURVE SMOOTH",
"744 442 OFFCURVE",
"702 510 OFFCURVE",
"551 510 CURVE SMOOTH",
"445 510 LINE",
"445 171 LINE SMOOTH",
"445 146 OFFCURVE",
"446 121 OFFCURVE",
"447 99 CURVE",
"388 163 OFFCURVE",
"341 213 OFFCURVE",
"251 243 CURVE",
"320 275 OFFCURVE",
"357 325 OFFCURVE",
"357 384 CURVE SMOOTH",
"357 463 OFFCURVE",
"304 521 OFFCURVE",
"207 521 CURVE SMOOTH",
"122 521 OFFCURVE",
"69 478 OFFCURVE",
"69 411 CURVE SMOOTH",
"69 400 OFFCURVE",
"74 371 OFFCURVE",
"84 356 CURVE",
"155 370 LINE",
"149 382 OFFCURVE",
"147 396 OFFCURVE",
"147 405 CURVE SMOOTH",
"147 431 OFFCURVE",
"164 455 OFFCURVE",
"207 455 CURVE SMOOTH",
"252 455 OFFCURVE",
"282 433 OFFCURVE",
"282 385 CURVE SMOOTH",
"282 296 OFFCURVE",
"142 273 OFFCURVE",
"91 273 CURVE"
);
},
{
closed = 1;
nodes = (
"778 551 LINE",
"778 622 LINE",
"-10 622 LINE",
"-10 551 LINE"
);
}
);
width = 768;
}
);
category = Letter;
},
{
glyphname = ShaLa;
lastChange = "2019-04-04 16:13:12 +0000";
layers = (
{
layerId = UUID0;
paths = (
{
closed = 1;
nodes = (
"732 -297 LINE",
"707 -234 OFFCURVE",
"652 -110 OFFCURVE",
"570 -49 CURVE",
"577 -29 OFFCURVE",
"582 -5 OFFCURVE",
"582 24 CURVE SMOOTH",
"582 551 LINE",
"687 551 LINE",
"687 622 LINE",
"577 622 LINE",
"573 740 OFFCURVE",
"525 771 OFFCURVE",
"404 771 CURVE SMOOTH",
"362 771 LINE SMOOTH",
"247 771 OFFCURVE",
"226 806 OFFCURVE",
"226 869 CURVE SMOOTH",
"226 882 OFFCURVE",
"228 892 OFFCURVE",
"231 907 CURVE",
"157 912 LINE",
"154 892 OFFCURVE",
"152 876 OFFCURVE",
"152 859 CURVE SMOOTH",
"152 763 OFFCURVE",
"195 699 OFFCURVE",
"367 699 CURVE SMOOTH",
"426 699 LINE SMOOTH",
"479 699 OFFCURVE",
"505 678 OFFCURVE",
"505 626 CURVE SMOOTH",
"505 607 LINE SMOOTH",
"505 587 OFFCURVE",
"505 570 OFFCURVE",
"507 554 CURVE",
"472 600 OFFCURVE",
"421 629 OFFCURVE",
"361 629 CURVE SMOOTH",
"303 629 OFFCURVE",
"248 600 OFFCURVE",
"226 539 CURVE",
"196 599 OFFCURVE",
"131 622 OFFCURVE",
"70 622 CURVE SMOOTH",
"-10 622 LINE",
"-10 551 LINE",
"62 551 LINE SMOOTH",
"132 551 OFFCURVE",
"181 522 OFFCURVE",
"181 468 CURVE SMOOTH",
"181 425 OFFCURVE",
"150 378 OFFCURVE",
"48 377 CURVE",
"54 300 LINE",
"150 300 OFFCURVE",
"206 342 OFFCURVE",
"229 398 CURVE",
"254 342 OFFCURVE",
"311 305 OFFCURVE",
"406 300 CURVE",
"413 377 LINE",
"317 381 OFFCURVE",
"276 417 OFFCURVE",
"276 471 CURVE SMOOTH",
"276 527 OFFCURVE",
"311 556 OFFCURVE",
"363 556 CURVE SMOOTH",
"419 556 OFFCURVE",
"467 519 OFFCURVE",
"505 454 CURVE",
"505 15 LINE SMOOTH",
"505 3 OFFCURVE",
"503 -7 OFFCURVE",
"501 -17 CURVE",
"491 -15 OFFCURVE",
"482 -14 OFFCURVE",
"472 -14 CURVE SMOOTH",
"394 -14 OFFCURVE",
"354 -67 OFFCURVE",
"354 -118 CURVE SMOOTH",
"354 -187 OFFCURVE",
"409 -221 OFFCURVE",
"461 -221 CURVE SMOOTH",
"515 -221 OFFCURVE",
"549 -188 OFFCURVE",
"569 -167 CURVE",
"530 -124 LINE",
"518 -137 OFFCURVE",
"497 -159 OFFCURVE",
"459 -159 CURVE SMOOTH",
"448 -159 OFFCURVE",
"423 -150 OFFCURVE",
"423 -120 CURVE SMOOTH",
"423 -96 OFFCURVE",
"439 -79 OFFCURVE",
"471 -79 CURVE SMOOTH",
"563 -79 OFFCURVE",
"628 -206 OFFCURVE",
"679 -331 CURVE"
);
}
);
width = 677;
}
);
category = Letter;
},
{
glyphname = Va.sub;
lastChange = "2019-04-04 16:13:12 +0000";
layers = (
{
layerId = UUID0;
paths = (
{
closed = 1;
nodes = (
"-96 -298 LINE",
"-96 24 LINE",
"-173 24 LINE",
"-173 -26 LINE",
"-283 -51 OFFCURVE",
"-370 -119 OFFCURVE",
"-392 -151 CURVE",
"-392 -190 LINE",
"-324 -219 OFFCURVE",
"-249 -255 OFFCURVE",
"-173 -298 CURVE"
);
},
{
closed = 1;
nodes = (
"-315 -385 OFFCURVE",
"-287 -362 OFFCURVE",
"-287 -327 CURVE SMOOTH",
"-287 -292 OFFCURVE",
"-314 -267 OFFCURVE",
"-346 -267 CURVE SMOOTH",
"-379 -267 OFFCURVE",
"-406 -292 OFFCURVE",
"-406 -327 CURVE SMOOTH",
"-406 -361 OFFCURVE",
"-378 -385 OFFCURVE",
"-346 -385 CURVE SMOOTH"
);
},
{
closed = 1;
nodes = (
"-206 -207 OFFCURVE",
"-248 -178 OFFCURVE",
"-306 -154 CURVE",
"-272 -124 OFFCURVE",
"-228 -106 OFFCURVE",
"-173 -94 CURVE",
"-173 -149 LINE SMOOTH",
"-173 -169 OFFCURVE",
"-171 -216 OFFCURVE",
"-168 -236 CURVE"
);
}
);
width = 0;
}
);
category = Mark;
},
{
glyphname = Ta.fina;
lastChange = "2019-04-04 16:13:05 +0000";
layers = (
{
layerId = UUID0;
paths = (
{
closed = 1;
nodes = (
"888 110 LINE",
"744 522 OFFCURVE",
"614 656 OFFCURVE",
"399 656 CURVE SMOOTH",
"323 656 OFFCURVE",
"269 638 OFFCURVE",
"240 620 CURVE",
"275 562 LINE",
"305 576 OFFCURVE",
"344 585 OFFCURVE",
"392 585 CURVE SMOOTH",
"623 585 OFFCURVE",
"721 353 OFFCURVE",
"823 82 CURVE"
);
},
{
closed = 1;
nodes = (
"581 50 OFFCURVE",
"650 158 OFFCURVE",
"650 275 CURVE SMOOTH",
"650 408 OFFCURVE",
"563 500 OFFCURVE",
"433 500 CURVE SMOOTH",
"356 500 OFFCURVE",
"286 463 OFFCURVE",
"286 387 CURVE SMOOTH",
"286 358 OFFCURVE",
"294 328 OFFCURVE",
"306 302 CURVE",
"382 319 LINE",
"373 340 OFFCURVE",
"369 355 OFFCURVE",
"369 371 CURVE SMOOTH",
"369 407 OFFCURVE",
"391 429 OFFCURVE",
"439 429 CURVE SMOOTH",
"521 429 OFFCURVE",
"573 369 OFFCURVE",
"573 279 CURVE SMOOTH",
"573 203 OFFCURVE",
"539 126 OFFCURVE",
"415 126 CURVE SMOOTH",
"268 126 OFFCURVE",
"173 237 OFFCURVE",
"104 486 CURVE",
"29 466 LINE",
"110 160 OFFCURVE",
"252 50 OFFCURVE",
"417 50 CURVE SMOOTH"
);
}
);
width = 918;
}
);
category = Letter;
},
{
glyphname = Ma.fina;
lastChange = "2019-04-04 16:13:10 +0000";
layers = (
{
components = (
{
name = virama_tirh;
transform = "{1, 0, 0, 1, 626, 41}";
}
);
layerId = UUID0;
paths = (
{
closed = 1;
nodes = (
"62 492 LINE",
"181 478 OFFCURVE",
"206 390 OFFCURVE",
"206 324 CURVE SMOOTH",
"206 311 OFFCURVE",
"204 296 OFFCURVE",
"201 284 CURVE",
"144 284 OFFCURVE",
"93 250 OFFCURVE",
"93 202 CURVE SMOOTH",
"93 162 OFFCURVE",
"123 146 OFFCURVE",
"153 146 CURVE SMOOTH",
"186 146 OFFCURVE",
"222 164 OFFCURVE",
"250 202 CURVE",
"323 180 OFFCURVE",
"399 119 OFFCURVE",
"450 48 CURVE",
"450 20 LINE",
"527 20 LINE",
"527 551 LINE",
"450 551 LINE",
"450 217 LINE SMOOTH",
"450 192 OFFCURVE",
"451 167 OFFCURVE",
"452 144 CURVE",
"412 194 OFFCURVE",
"353 248 OFFCURVE",
"277 273 CURVE",
"280 289 OFFCURVE",
"282 309 OFFCURVE",
"282 331 CURVE SMOOTH",
"282 477 OFFCURVE",
"205 551 OFFCURVE",
"76 551 CURVE"
);
}
);
width = 622;
}
);
category = Letter;
},
{
glyphname = TaVirama.alt;
lastChange = "2019-04-04 16:13:05 +0000";
layers = (
{
layerId = UUID0;
paths = (
{
closed = 1;
nodes = (
"428 42 OFFCURVE",
"544 104 OFFCURVE",
"544 253 CURVE SMOOTH",
"544 342 OFFCURVE",
"501 427 OFFCURVE",
"384 427 CURVE SMOOTH",
"290 427 OFFCURVE",
"236 369 OFFCURVE",
"236 293 CURVE SMOOTH",
"236 272 OFFCURVE",
"240 249 OFFCURVE",
"248 231 CURVE",
"312 244 LINE",
"308 257 OFFCURVE",
"307 272 OFFCURVE",
"307 281 CURVE SMOOTH",
"307 320 OFFCURVE",
"329 363 OFFCURVE",
"381 363 CURVE SMOOTH",
"449 363 OFFCURVE",
"464 307 OFFCURVE",
"464 253 CURVE SMOOTH",
"464 195 OFFCURVE",
"446 115 OFFCURVE",
"323 115 CURVE SMOOTH",
"193 115 OFFCURVE",
"120 203 OFFCURVE",
"120 327 CURVE SMOOTH",
"120 446 OFFCURVE",
"185 557 OFFCURVE",
"338 557 CURVE SMOOTH",
"412 557 OFFCURVE",
"484 532 OFFCURVE",
"555 465 CURVE",
"601 513 LINE",
"538 576 OFFCURVE",
"451 630 OFFCURVE",
"336 630 CURVE SMOOTH",
"143 630 OFFCURVE",
"40 484 OFFCURVE",
"40 330 CURVE SMOOTH",
"40 163 OFFCURVE",
"150 42 OFFCURVE",
"317 42 CURVE SMOOTH"
);
},
{
closed = 1;
nodes = (
"544 -184 LINE",
"307 -8 LINE",
"264 -60 LINE",
"501 -238 LINE"
);
}
);
width = 651;
}
);
category = Letter;
},
{
glyphname = KaTa;
lastChange = "2019-04-04 16:13:12 +0000";
layers = (
{
layerId = UUID0;
paths = (
{
closed = 1;
nodes = (
"777 0 LINE",
"777 339 LINE SMOOTH",
"777 398 OFFCURVE",
"754 471 OFFCURVE",
"661 471 CURVE SMOOTH",
"629 471 OFFCURVE",
"598 458 OFFCURVE",
"571 441 CURVE",
"574 452 OFFCURVE",
"575 465 OFFCURVE",
"575 478 CURVE SMOOTH",
"575 561 OFFCURVE",
"514 632 OFFCURVE",
"416 632 CURVE SMOOTH",
"311 632 OFFCURVE",
"253 574 OFFCURVE",
"253 504 CURVE SMOOTH",
"253 462 OFFCURVE",
"271 432 OFFCURVE",
"297 409 CURVE",
"349 464 LINE",
"336 475 OFFCURVE",
"331 487 OFFCURVE",
"331 501 CURVE SMOOTH",
"331 530 OFFCURVE",
"361 562 OFFCURVE",
"414 562 CURVE SMOOTH",
"465 562 OFFCURVE",
"494 530 OFFCURVE",
"494 473 CURVE SMOOTH",
"494 431 OFFCURVE",
"467 395 OFFCURVE",
"414 373 CURVE",
"430 305 LINE",
"447 310 OFFCURVE",
"463 317 OFFCURVE",
"478 324 CURVE",
"516 302 OFFCURVE",
"543 270 OFFCURVE",
"543 228 CURVE SMOOTH",
"543 152 OFFCURVE",
"507 118 OFFCURVE",
"416 118 CURVE SMOOTH",
"278 118 OFFCURVE",
"176 242 OFFCURVE",
"96 529 CURVE",
"20 507 LINE",
"109 168 OFFCURVE",
"244 42 OFFCURVE",
"422 42 CURVE SMOOTH",
"543 42 OFFCURVE",
"623 114 OFFCURVE",
"623 225 CURVE SMOOTH",
"623 279 OFFCURVE",
"599 325 OFFCURVE",
"556 357 CURVE",
"587 386 OFFCURVE",
"627 400 OFFCURVE",
"645 400 CURVE SMOOTH",
"670 400 OFFCURVE",
"700 396 OFFCURVE",
"700 333 CURVE SMOOTH",
"700 0 LINE"
);
},
{
closed = 1;
nodes = (
"822 551 LINE",
"822 622 LINE",
"595 622 LINE",
"595 551 LINE"
);
}
);
width = 812;
}
);
category = Letter;
},
{
glyphname = KaRa;
lastChange = "2019-04-04 16:13:12 +0000";
layers = (
{
layerId = UUID0;
paths = (
{
closed = 1;
nodes = (
"784 36 LINE",
"752 71 OFFCURVE",
"731 130 OFFCURVE",
"731 204 CURVE SMOOTH",
"731 339 LINE SMOOTH",
"731 398 OFFCURVE",
"708 471 OFFCURVE",
"615 471 CURVE SMOOTH",
"583 471 OFFCURVE",
"548 458 OFFCURVE",
"521 437 CURVE",
"521 495 LINE SMOOTH",
"521 581 OFFCURVE",
"472 628 OFFCURVE",
"381 628 CURVE SMOOTH",
"267 628 OFFCURVE",
"194 523 OFFCURVE",
"194 418 CURVE SMOOTH",
"194 337 OFFCURVE",
"246 300 OFFCURVE",
"297 300 CURVE SMOOTH",
"320 300 OFFCURVE",
"337 303 OFFCURVE",
"348 308 CURVE",
"343 377 LINE",
"331 375 OFFCURVE",
"322 374 OFFCURVE",
"310 374 CURVE SMOOTH",
"283 374 OFFCURVE",
"273 399 OFFCURVE",
"273 419 CURVE SMOOTH",
"273 483 OFFCURVE",
"312 557 OFFCURVE",
"378 557 CURVE SMOOTH",
"426 557 OFFCURVE",
"444 532 OFFCURVE",
"444 462 CURVE SMOOTH",
"444 125 LINE",
"420 149 OFFCURVE",
"385 160 OFFCURVE",
"349 160 CURVE SMOOTH",
"321 160 OFFCURVE",
"298 156 OFFCURVE",
"274 151 CURVE SMOOTH",
"251 146 OFFCURVE",
"229 143 OFFCURVE",
"204 143 CURVE SMOOTH",
"146 143 OFFCURVE",
"97 165 OFFCURVE",
"97 280 CURVE SMOOTH",
"97 312 OFFCURVE",
"104 347 OFFCURVE",
"108 366 CURVE",
"32 377 LINE",
"27 350 OFFCURVE",
"20 306 OFFCURVE",
"20 274 CURVE SMOOTH",
"20 97 OFFCURVE",
"130 69 OFFCURVE",
"201 69 CURVE SMOOTH",
"234 69 OFFCURVE",
"260 72 OFFCURVE",
"285 77 CURVE SMOOTH",
"311 82 OFFCURVE",
"336 85 OFFCURVE",
"365 85 CURVE SMOOTH",
"412 85 OFFCURVE",
"449 59 OFFCURVE",
"462 0 CURVE",
"521 0 LINE",
"521 366 LINE",
"550 389 OFFCURVE",
"583 400 OFFCURVE",
"599 400 CURVE SMOOTH",
"624 400 OFFCURVE",
"654 396 OFFCURVE",
"654 333 CURVE SMOOTH",
"654 212 LINE SMOOTH",
"654 112 OFFCURVE",
"687 36 OFFCURVE",
"720 -7 CURVE"
);
},
{
closed = 1;
nodes = (
"786 551 LINE",
"786 622 LINE",
"549 622 LINE",
"549 551 LINE"
);
}
);
width = 776;
}
);
category = Letter;
},
{
glyphname = KaSsa;
lastChange = "2019-04-04 16:13:12 +0000";
layers = (
{
layerId = UUID0;
paths = (
{
closed = 1;
nodes = (
"426 0 LINE",
"438 141 LINE SMOOTH",
"447 243 OFFCURVE",
"486 302 OFFCURVE",
"513 343 CURVE",
"484 348 LINE",
"541 296 OFFCURVE",
"594 247 OFFCURVE",
"594 201 CURVE SMOOTH",
"594 165 OFFCURVE",
"557 148 OFFCURVE",
"513 148 CURVE",
"501 148 LINE",
"495 80 LINE",
"502 79 OFFCURVE",
"509 79 OFFCURVE",
"515 79 CURVE SMOOTH",
"603 79 OFFCURVE",
"669 115 OFFCURVE",
"669 196 CURVE SMOOTH",
"669 271 OFFCURVE",
"601 333 OFFCURVE",
"541 388 CURVE",
"568 433 OFFCURVE",
"590 477 OFFCURVE",
"590 533 CURVE SMOOTH",
"590 600 OFFCURVE",
"547 632 OFFCURVE",
"481 632 CURVE SMOOTH",
"416 632 OFFCURVE",
"380 587 OFFCURVE",
"380 532 CURVE SMOOTH",
"380 473 OFFCURVE",
"413 423 OFFCURVE",
"454 379 CURVE",
"424 334 OFFCURVE",
"388 264 OFFCURVE",
"376 182 CURVE SMOOTH",
"368 129 OFFCURVE",
"370 82 OFFCURVE",
"372 58 CURVE",
"382 64 LINE",
"352 108 OFFCURVE",
"295 145 OFFCURVE",
"248 166 CURVE",
"289 196 OFFCURVE",
"306 244 OFFCURVE",
"306 283 CURVE SMOOTH",
"306 335 OFFCURVE",
"275 377 OFFCURVE",
"239 398 CURVE",
"275 428 OFFCURVE",
"284 469 OFFCURVE",
"284 508 CURVE SMOOTH",
"284 583 OFFCURVE",
"232 632 OFFCURVE",
"149 632 CURVE SMOOTH",
"107 632 OFFCURVE",
"71 620 OFFCURVE",
"39 599 CURVE",
"58 535 LINE",
"87 553 OFFCURVE",
"116 563 OFFCURVE",
"144 563 CURVE SMOOTH",
"179 563 OFFCURVE",
"209 545 OFFCURVE",
"209 500 CURVE SMOOTH",
"209 453 OFFCURVE",
"178 421 OFFCURVE",
"84 420 CURVE",
"84 359 LINE",
"111 359 OFFCURVE",
"135 361 OFFCURVE",
"156 365 CURVE",
"215 348 OFFCURVE",
"230 315 OFFCURVE",
"230 281 CURVE SMOOTH",
"230 223 OFFCURVE",
"191 206 OFFCURVE",
"155 206 CURVE SMOOTH",
"124 206 OFFCURVE",
"82 216 OFFCURVE",
"53 237 CURVE",
"20 187 LINE",
"50 157 OFFCURVE",
"102 142 OFFCURVE",
"152 138 CURVE",
"205 126 OFFCURVE",
"301 78 OFFCURVE",
"358 0 CURVE"
);
},
{
closed = 1;
nodes = (
"467 465 OFFCURVE",
"449 493 OFFCURVE",
"449 523 CURVE SMOOTH",
"449 539 OFFCURVE",
"454 566 OFFCURVE",
"482 566 CURVE SMOOTH",
"504 566 OFFCURVE",
"521 555 OFFCURVE",
"521 527 CURVE SMOOTH",
"521 495 OFFCURVE",
"509 466 OFFCURVE",
"492 437 CURVE"
);
},
{
closed = 1;
nodes = (
"696 551 LINE",
"696 622 LINE",
"534 622 LINE",
"534 551 LINE"
);
}
);
width = 686;
}
);
category = Letter;
},
{
glyphname = GaGa;
lastChange = "2019-04-04 16:13:12 +0000";
layers = (
{
layerId = UUID0;
paths = (
{
closed = 1;
nodes = (
"730 0 LINE",
"730 551 LINE",
"835 551 LINE",
"835 622 LINE",
"729 622 LINE",
"706 688 LINE",
"653 688 LINE",
"653 585 LINE SMOOTH",
"653 541 OFFCURVE",
"654 511 OFFCURVE",
"656 495 CURVE",
"583 584 OFFCURVE",
"525 635 OFFCURVE",
"457 635 CURVE SMOOTH",
"427 635 OFFCURVE",
"392 610 OFFCURVE",
"360 579 CURVE",
"337 593 OFFCURVE",
"318 602 OFFCURVE",
"291 602 CURVE SMOOTH",
"256 602 OFFCURVE",
"224 573 OFFCURVE",
"193 536 CURVE",
"168 545 OFFCURVE",
"138 551 OFFCURVE",
"102 551 CURVE SMOOTH",
"67 551 OFFCURVE",
"41 545 OFFCURVE",
"20 536 CURVE",
"55 472 LINE",
"71 478 OFFCURVE",
"89 481 OFFCURVE",
"110 481 CURVE SMOOTH",
"196 481 OFFCURVE",
"224 427 OFFCURVE",
"224 375 CURVE SMOOTH",
"224 311 OFFCURVE",
"182 275 OFFCURVE",
"109 245 CURVE",
"160 172 LINE",
"272 232 OFFCURVE",
"304 294 OFFCURVE",
"304 366 CURVE SMOOTH",
"304 414 OFFCURVE",
"290 461 OFFCURVE",
"252 498 CURVE",
"266 514 OFFCURVE",
"281 526 OFFCURVE",
"296 526 CURVE SMOOTH",
"354 526 OFFCURVE",
"486 364 OFFCURVE",
"494 181 CURVE",
"482 187 OFFCURVE",
"468 191 OFFCURVE",
"452 191 CURVE SMOOTH",
"410 191 OFFCURVE",
"375 162 OFFCURVE",
"375 125 CURVE SMOOTH",
"375 88 OFFCURVE",
"410 59 OFFCURVE",
"455 59 CURVE SMOOTH",
"553 59 OFFCURVE",
"561 184 OFFCURVE",
"561 227 CURVE SMOOTH",
"561 343 OFFCURVE",
"491 461 OFFCURVE",
"415 536 CURVE",
"431 551 OFFCURVE",
"449 562 OFFCURVE",
"465 562 CURVE SMOOTH",
"508 562 OFFCURVE",
"570 504 OFFCURVE",
"653 391 CURVE",
"653 0 LINE"
);
}
);
width = 825;
}
);
category = Letter;
},
{
glyphname = GaDha;
lastChange = "2019-04-04 16:13:12 +0000";
layers = (
{
layerId = UUID0;
paths = (
{
closed = 1;
nodes = (
"510 0 LINE",
"510 326 LINE",
"532 307 OFFCURVE",
"558 297 OFFCURVE",
"588 297 CURVE SMOOTH",
"642 297 OFFCURVE",
"693 328 OFFCURVE",
"693 418 CURVE SMOOTH",
"693 434 OFFCURVE",
"691 453 OFFCURVE",
"688 471 CURVE",
"616 465 LINE",
"617 457 OFFCURVE",
"618 446 OFFCURVE",
"618 429 CURVE SMOOTH",
"618 389 OFFCURVE",
"600 366 OFFCURVE",
"573 366 CURVE SMOOTH",
"547 366 OFFCURVE",
"529 380 OFFCURVE",
"510 417 CURVE",
"510 551 LINE",
"700 551 LINE",
"700 622 LINE",
"509 622 LINE",
"486 688 LINE",
"433 688 LINE",
"433 189 LINE SMOOTH",
"433 156 OFFCURVE",
"434 132 OFFCURVE",
"436 108 CURVE",
"394 178 OFFCURVE",
"309 226 OFFCURVE",
"203 257 CURVE",
"201 240 LINE",
"329 268 OFFCURVE",
"378 363 OFFCURVE",
"378 454 CURVE SMOOTH",
"378 551 OFFCURVE",
"316 628 OFFCURVE",
"189 628 CURVE SMOOTH",
"104 628 OFFCURVE",
"45 592 OFFCURVE",
"45 547 CURVE SMOOTH",
"45 520 OFFCURVE",
"65 498 OFFCURVE",
"87 482 CURVE SMOOTH",
"108 467 OFFCURVE",
"125 453 OFFCURVE",
"125 445 CURVE SMOOTH",
"125 432 OFFCURVE",
"89 421 OFFCURVE",
"30 406 CURVE",
"43 342 LINE",
"122 360 OFFCURVE",
"202 404 OFFCURVE",
"202 447 CURVE SMOOTH",
"202 465 OFFCURVE",
"177 490 OFFCURVE",
"154 507 CURVE SMOOTH",
"137 519 OFFCURVE",
"123 532 OFFCURVE",
"123 539 CURVE SMOOTH",
"123 551 OFFCURVE",
"144 562 OFFCURVE",
"187 562 CURVE SMOOTH",
"265 562 OFFCURVE",
"303 520 OFFCURVE",
"303 451 CURVE SMOOTH",
"303 352 OFFCURVE",
"254 292 OFFCURVE",
"144 292 CURVE SMOOTH",
"131 292 OFFCURVE",
"108 293 OFFCURVE",
"85 297 CURVE",
"73 226 LINE",
"228 205 OFFCURVE",
"372 122 OFFCURVE",
"434 0 CURVE"
);
}
);
width = 690;
}
);
category = Letter;
},
{
glyphname = NgaKa;
lastChange = "2019-04-04 16:13:12 +0000";
layers = (
{
layerId = UUID0;
paths = (
{
closed = 1;
nodes = (
"468 0 LINE",
"468 278 LINE SMOOTH",
"468 398 OFFCURVE",
"491 437 OFFCURVE",
"551 437 CURVE SMOOTH",
"592 437 OFFCURVE",
"615 412 OFFCURVE",
"615 378 CURVE SMOOTH",
"615 302 OFFCURVE",
"573 286 OFFCURVE",
"511 281 CURVE",
"524 215 LINE",
"628 221 OFFCURVE",
"690 283 OFFCURVE",
"690 372 CURVE SMOOTH",
"690 443 OFFCURVE",
"650 507 OFFCURVE",
"550 507 CURVE SMOOTH",
"446 507 OFFCURVE",
"391 440 OFFCURVE",
"391 298 CURVE SMOOTH",
"391 240 LINE SMOOTH",
"391 207 OFFCURVE",
"392 162 OFFCURVE",
"394 138 CURVE",
"352 170 OFFCURVE",
"294 199 OFFCURVE",
"223 214 CURVE",
"220 199 LINE",
"298 213 OFFCURVE",
"361 275 OFFCURVE",
"361 353 CURVE SMOOTH",
"361 424 OFFCURVE",
"315 487 OFFCURVE",
"240 503 CURVE",
"241 508 OFFCURVE",
"242 520 OFFCURVE",
"242 529 CURVE SMOOTH",
"242 536 OFFCURVE",
"242 546 OFFCURVE",
"241 551 CURVE",
"735 551 LINE",
"735 622 LINE",
"506 622 LINE",
"519 642 OFFCURVE",
"526 667 OFFCURVE",
"526 694 CURVE SMOOTH",
"526 772 OFFCURVE",
"465 830 OFFCURVE",
"385 830 CURVE SMOOTH",
"305 830 OFFCURVE",
"244 772 OFFCURVE",
"244 694 CURVE SMOOTH",
"244 667 OFFCURVE",
"251 642 OFFCURVE",
"263 622 CURVE",
"-10 622 LINE",
"-10 551 LINE",
"163 551 LINE",
"163 545 LINE SMOOTH",
"163 531 OFFCURVE",
"161 517 OFFCURVE",
"157 503 CURVE",
"80 489 OFFCURVE",
"39 438 OFFCURVE",
"39 379 CURVE SMOOTH",
"39 337 OFFCURVE",
"57 307 OFFCURVE",
"83 284 CURVE",
"135 339 LINE",
"122 350 OFFCURVE",
"117 362 OFFCURVE",
"117 376 CURVE SMOOTH",
"117 405 OFFCURVE",
"147 437 OFFCURVE",
"200 437 CURVE SMOOTH",
"251 437 OFFCURVE",
"280 405 OFFCURVE",
"280 348 CURVE SMOOTH",
"280 284 OFFCURVE",
"214 232 OFFCURVE",
"93 228 CURVE",
"116 158 LINE",
"209 157 OFFCURVE",
"318 132 OFFCURVE",
"391 62 CURVE",
"391 0 LINE"
);
},
{
closed = 1;
nodes = (
"343 622 OFFCURVE",
"313 652 OFFCURVE",
"313 694 CURVE SMOOTH",
"313 734 OFFCURVE",
"343 766 OFFCURVE",
"385 766 CURVE SMOOTH",
"427 766 OFFCURVE",
"457 734 OFFCURVE",
"457 694 CURVE SMOOTH",
"457 655 OFFCURVE",
"429 622 OFFCURVE",
"391 622 CURVE SMOOTH",
"385 622 LINE SMOOTH"
);
}
);
width = 725;
}
);
category = Letter;
},
{
glyphname = NgaKha;
lastChange = "2019-04-04 16:13:12 +0000";
layers = (
{
layerId = UUID0;
paths = (
{
closed = 1;
nodes = (
"679 0 LINE",
"679 331 LINE",
"778 331 LINE",
"778 402 LINE",
"678 402 LINE",
"655 438 LINE",
"602 438 LINE",
"602 200 LINE SMOOTH",
"602 164 OFFCURVE",
"605 113 OFFCURVE",
"607 83 CURVE",
"560 113 OFFCURVE",
"495 141 OFFCURVE",
"439 151 CURVE",
"442 165 OFFCURVE",
"443 180 OFFCURVE",
"443 195 CURVE SMOOTH",
"443 247 OFFCURVE",
"420 309 OFFCURVE",
"366 337 CURVE",
"368 315 LINE",
"424 337 OFFCURVE",
"471 381 OFFCURVE",
"486 470 CURVE",
"409 508 LINE",
"389 497 OFFCURVE",
"347 491 OFFCURVE",
"327 491 CURVE SMOOTH",
"290 491 OFFCURVE",
"287 523 OFFCURVE",
"287 542 CURVE SMOOTH",
"287 551 LINE",
"778 551 LINE",
"778 622 LINE",
"409 622 LINE",
"422 642 OFFCURVE",
"430 667 OFFCURVE",
"430 694 CURVE SMOOTH",
"430 772 OFFCURVE",
"368 830 OFFCURVE",
"288 830 CURVE SMOOTH",
"208 830 OFFCURVE",
"147 772 OFFCURVE",
"147 694 CURVE SMOOTH",
"147 641 OFFCURVE",
"173 599 OFFCURVE",
"214 576 CURVE",
"210 582 LINE",
"210 539 LINE SMOOTH",
"210 456 OFFCURVE",
"250 421 OFFCURVE",
"302 421 CURVE SMOOTH",
"334 421 OFFCURVE",
"368 428 OFFCURVE",
"403 452 CURVE",
"396 411 OFFCURVE",
"360 372 OFFCURVE",
"302 372 CURVE SMOOTH",
"194 372 OFFCURVE",
"127 427 OFFCURVE",
"63 534 CURVE",
"2 499 LINE",
"76 360 OFFCURVE",
"186 299 OFFCURVE",
"301 299 CURVE SMOOTH",
"310 299 LINE",
"283 273 OFFCURVE",
"253 257 OFFCURVE",
"218 257 CURVE SMOOTH",
"178 257 OFFCURVE",
"130 269 OFFCURVE",
"104 291 CURVE",
"80 218 LINE",
"113 198 OFFCURVE",
"154 185 OFFCURVE",
"206 185 CURVE SMOOTH",
"258 185 OFFCURVE",
"321 209 OFFCURVE",
"353 255 CURVE",
"361 237 OFFCURVE",
"367 222 OFFCURVE",
"367 200 CURVE SMOOTH",
"367 137 OFFCURVE",
"329 97 OFFCURVE",
"238 97 CURVE SMOOTH",
"221 97 OFFCURVE",
"203 100 OFFCURVE",
"188 104 CURVE",
"188 26 LINE",
"202 23 OFFCURVE",
"217 21 OFFCURVE",
"232 21 CURVE SMOOTH",
"315 21 OFFCURVE",
"371 43 OFFCURVE",
"404 79 CURVE",
"477 76 OFFCURVE",
"538 47 OFFCURVE",
"602 0 CURVE"
);
},
{
closed = 1;
nodes = (
"246 622 OFFCURVE",
"216 652 OFFCURVE",
"216 694 CURVE SMOOTH",
"216 734 OFFCURVE",
"246 766 OFFCURVE",
"288 766 CURVE SMOOTH",
"330 766 OFFCURVE",
"360 734 OFFCURVE",
"360 694 CURVE SMOOTH",
"360 655 OFFCURVE",
"332 622 OFFCURVE",
"294 622 CURVE SMOOTH",
"288 622 LINE SMOOTH"
);
}
);
width = 768;
}
);
category = Letter;
},
{
glyphname = NgaGa;
lastChange = "2019-04-04 16:13:12 +0000";
layers = (
{
layerId = UUID0;
paths = (
{
closed = 1;
nodes = (
"626 65 LINE",
"599 67 OFFCURVE",
"597 95 OFFCURVE",
"597 135 CURVE SMOOTH",
"597 313 LINE SMOOTH",
"597 427 OFFCURVE",
"555 503 OFFCURVE",
"446 503 CURVE SMOOTH",
"391 503 OFFCURVE",
"351 484 OFFCURVE",
"324 454 CURVE",
"304 478 OFFCURVE",
"275 495 OFFCURVE",
"240 503 CURVE",
"242 512 OFFCURVE",
"242 521 OFFCURVE",
"242 530 CURVE SMOOTH",
"242 537 OFFCURVE",
"242 544 OFFCURVE",
"241 551 CURVE",
"665 551 LINE",
"665 622 LINE",
"565 622 LINE",
"578 642 OFFCURVE",
"585 667 OFFCURVE",
"585 694 CURVE SMOOTH",
"585 772 OFFCURVE",
"524 830 OFFCURVE",
"444 830 CURVE SMOOTH",
"364 830 OFFCURVE",
"303 772 OFFCURVE",
"303 694 CURVE SMOOTH",
"303 667 OFFCURVE",
"310 642 OFFCURVE",
"322 622 CURVE",
"-10 622 LINE",
"-10 551 LINE",
"163 551 LINE",
"163 545 LINE SMOOTH",
"163 531 OFFCURVE",
"161 517 OFFCURVE",
"157 503 CURVE",
"80 489 OFFCURVE",
"39 438 OFFCURVE",
"39 379 CURVE SMOOTH",
"39 337 OFFCURVE",
"57 307 OFFCURVE",
"83 284 CURVE",
"135 339 LINE",
"122 350 OFFCURVE",
"117 362 OFFCURVE",
"117 376 CURVE SMOOTH",
"117 405 OFFCURVE",
"148 437 OFFCURVE",
"200 437 CURVE SMOOTH",
"251 437 OFFCURVE",
"280 405 OFFCURVE",
"280 348 CURVE SMOOTH",
"280 305 OFFCURVE",
"251 267 OFFCURVE",
"195 246 CURVE",
"215 179 LINE",
"258 192 OFFCURVE",
"293 212 OFFCURVE",
"317 238 CURVE",
"342 207 OFFCURVE",
"379 185 OFFCURVE",
"428 170 CURVE",
"448 237 LINE",
"392 258 OFFCURVE",
"363 296 OFFCURVE",
"363 339 CURVE SMOOTH",
"363 396 OFFCURVE",
"392 433 OFFCURVE",
"443 433 CURVE SMOOTH",
"496 433 OFFCURVE",
"520 393 OFFCURVE",
"520 316 CURVE SMOOTH",
"520 124 LINE SMOOTH",
"520 68 OFFCURVE",
"533 -3 OFFCURVE",
"617 -6 CURVE"
);
},
{
closed = 1;
nodes = (
"402 622 OFFCURVE",
"372 652 OFFCURVE",
"372 694 CURVE SMOOTH",
"372 734 OFFCURVE",
"402 766 OFFCURVE",
"444 766 CURVE SMOOTH",
"486 766 OFFCURVE",
"516 734 OFFCURVE",
"516 694 CURVE SMOOTH",
"516 655 OFFCURVE",
"488 622 OFFCURVE",
"450 622 CURVE SMOOTH",
"444 622 LINE SMOOTH"
);
}
);
width = 655;
}
);
category = Letter;
},
{
glyphname = NgaGha;
lastChange = "2019-04-04 16:13:12 +0000";
layers = (
{
layerId = UUID0;
paths = (
{
closed = 1;
nodes = (
"758 0 LINE",
"758 442 LINE",
"691 442 LINE",
"629 431 OFFCURVE",
"544 404 OFFCURVE",
"506 386 CURVE",
"509 361 LINE",
"518 378 OFFCURVE",
"521 401 OFFCURVE",
"521 421 CURVE SMOOTH",
"521 449 OFFCURVE",
"515 468 OFFCURVE",
"506 484 CURVE",
"440 488 LINE",
"406 453 OFFCURVE",
"375 432 OFFCURVE",
"343 432 CURVE SMOOTH",
"317 432 OFFCURVE",
"314 455 OFFCURVE",
"314 474 CURVE SMOOTH",
"314 551 LINE",
"812 551 LINE",
"812 622 LINE",
"409 622 LINE",
"422 642 OFFCURVE",
"429 667 OFFCURVE",
"429 694 CURVE SMOOTH",
"429 772 OFFCURVE",
"368 830 OFFCURVE",
"288 830 CURVE SMOOTH",
"208 830 OFFCURVE",
"147 772 OFFCURVE",
"147 694 CURVE SMOOTH",
"147 632 OFFCURVE",
"183 584 OFFCURVE",
"237 565 CURVE",
"237 480 LINE SMOOTH",
"237 413 OFFCURVE",
"258 362 OFFCURVE",
"325 362 CURVE SMOOTH",
"377 362 OFFCURVE",
"410 383 OFFCURVE",
"455 424 CURVE",
"455 382 OFFCURVE",
"436 307 OFFCURVE",
"346 307 CURVE SMOOTH",
"194 307 OFFCURVE",
"123 450 OFFCURVE",
"91 681 CURVE",
"20 665 LINE",
"59 374 OFFCURVE",
"172 234 OFFCURVE",
"349 234 CURVE SMOOTH",
"353 234 LINE",
"345 211 OFFCURVE",
"342 186 OFFCURVE",
"342 162 CURVE SMOOTH",
"342 105 OFFCURVE",
"386 55 OFFCURVE",
"462 55 CURVE SMOOTH",
"520 55 OFFCURVE",
"552 79 OFFCURVE",
"569 115 CURVE",
"609 88 OFFCURVE",
"644 53 OFFCURVE",
"681 0 CURVE"
);
},
{
closed = 1;
nodes = (
"658 137 OFFCURVE",
"624 174 OFFCURVE",
"587 199 CURVE",
"587 214 LINE",
"519 214 LINE",
"518 153 OFFCURVE",
"501 130 OFFCURVE",
"465 130 CURVE SMOOTH",
"444 130 OFFCURVE",
"426 142 OFFCURVE",
"426 175 CURVE SMOOTH",
"426 248 OFFCURVE",
"507 348 OFFCURVE",
"681 363 CURVE",
"681 188 LINE SMOOTH",
"681 162 OFFCURVE",
"685 108 OFFCURVE",
"688 88 CURVE"
);
},
{
closed = 1;
nodes = (
"246 622 OFFCURVE",
"216 652 OFFCURVE",
"216 694 CURVE SMOOTH",
"216 734 OFFCURVE",
"246 766 OFFCURVE",
"288 766 CURVE SMOOTH",
"330 766 OFFCURVE",
"360 734 OFFCURVE",
"360 694 CURVE SMOOTH",
"360 653 OFFCURVE",
"330 622 OFFCURVE",
"288 622 CURVE SMOOTH"
);
}
);
width = 802;
}
);
category = Letter;
},
{
glyphname = CaCa;
lastChange = "2019-04-04 16:13:12 +0000";
layers = (
{
layerId = UUID0;
paths = (
{
closed = 1;
nodes = (
"380 24 OFFCURVE",
"517 160 OFFCURVE",
"517 306 CURVE SMOOTH",
"517 380 OFFCURVE",
"485 423 OFFCURVE",
"377 423 CURVE SMOOTH",
"361 423 LINE SMOOTH",
"253 423 OFFCURVE",
"213 462 OFFCURVE",
"172 534 CURVE",
"172 551 LINE",
"578 551 LINE",
"578 622 LINE",
"-10 622 LINE",
"-10 551 LINE",
"95 551 LINE",
"95 191 LINE SMOOTH",
"95 91 OFFCURVE",
"136 24 OFFCURVE",
"238 24 CURVE SMOOTH"
);
},
{
closed = 1;
nodes = (
"175 96 OFFCURVE",
"172 155 OFFCURVE",
"172 205 CURVE SMOOTH",
"172 260 LINE",
"364 149 LINE",
"330 118 OFFCURVE",
"288 96 OFFCURVE",
"242 96 CURVE SMOOTH"
);
},
{
closed = 1;
nodes = (
"143 359 LINE",
"172 315 LINE",
"172 431 LINE",
"206 384 OFFCURVE",
"262 349 OFFCURVE",
"363 349 CURVE SMOOTH",
"367 349 LINE SMOOTH",
"428 349 OFFCURVE",
"437 328 OFFCURVE",
"437 296 CURVE SMOOTH",
"437 262 OFFCURVE",
"422 223 OFFCURVE",
"398 190 CURVE",
"440 187 LINE"
);
}
);
width = 567;
}
);
category = Letter;
},
{
glyphname = CaCha;
lastChange = "2019-04-04 16:13:12 +0000";
layers = (
{
layerId = UUID0;
paths = (
{
closed = 1;
nodes = (
"450 -91 OFFCURVE",
"521 5 OFFCURVE",
"521 127 CURVE SMOOTH",
"521 162 OFFCURVE",
"500 223 OFFCURVE",
"472 256 CURVE",
"409 243 LINE",
"392 199 OFFCURVE",
"327 155 OFFCURVE",
"291 155 CURVE SMOOTH",
"259 155 OFFCURVE",
"253 188 OFFCURVE",
"253 211 CURVE SMOOTH",
"253 218 LINE",
"350 228 OFFCURVE",
"430 298 OFFCURVE",
"430 388 CURVE SMOOTH",
"430 458 OFFCURVE",
"370 481 OFFCURVE",
"303 481 CURVE SMOOTH",
"215 481 OFFCURVE",
"194 517 OFFCURVE",
"178 544 CURVE",
"178 551 LINE",
"547 551 LINE",
"547 622 LINE",
"-10 622 LINE",
"-10 551 LINE",
"102 551 LINE",
"102 359 LINE SMOOTH",
"102 282 OFFCURVE",
"122 238 OFFCURVE",
"177 223 CURVE",
"177 207 LINE SMOOTH",
"177 143 OFFCURVE",
"207 81 OFFCURVE",
"292 81 CURVE SMOOTH",
"344 81 OFFCURVE",
"405 118 OFFCURVE",
"436 171 CURVE",
"445 160 OFFCURVE",
"446 130 OFFCURVE",
"446 125 CURVE SMOOTH",
"446 30 OFFCURVE",
"401 -15 OFFCURVE",
"295 -15 CURVE SMOOTH",
"177 -15 OFFCURVE",
"98 85 OFFCURVE",
"56 292 CURVE",
"-10 281 LINE",
"34 21 OFFCURVE",
"155 -91 OFFCURVE",
"298 -91 CURVE SMOOTH"
);
},
{
closed = 1;
nodes = (
"184 286 OFFCURVE",
"178 316 OFFCURVE",
"178 361 CURVE",
"302 305 LINE",
"283 293 OFFCURVE",
"259 286 OFFCURVE",
"233 286 CURVE SMOOTH"
);
},
{
closed = 1;
nodes = (
"178 417 LINE",
"178 454 LINE",
"207 425 OFFCURVE",
"243 413 OFFCURVE",
"296 413 CURVE SMOOTH",
"329 413 OFFCURVE",
"354 409 OFFCURVE",
"354 384 CURVE SMOOTH",
"354 371 OFFCURVE",
"349 357 OFFCURVE",
"341 343 CURVE"
);
}
);
width = 537;
}
);
category = Letter;
},
{
glyphname = JaNya;
lastChange = "2019-04-04 16:13:12 +0000";
layers = (
{
layerId = UUID0;
paths = (
{
closed = 1;
nodes = (
"285 -15 OFFCURVE",
"342 9 OFFCURVE",
"374 59 CURVE",
"406 25 OFFCURVE",
"448 3 OFFCURVE",
"505 3 CURVE SMOOTH",
"603 3 OFFCURVE",
"652 75 OFFCURVE",
"652 152 CURVE SMOOTH",
"652 188 OFFCURVE",
"638 222 OFFCURVE",
"611 247 CURVE",
"639 277 OFFCURVE",
"646 310 OFFCURVE",
"646 338 CURVE SMOOTH",
"646 405 OFFCURVE",
"594 454 OFFCURVE",
"511 454 CURVE SMOOTH",
"153 454 LINE",
"153 551 LINE",
"700 551 LINE",
"700 622 LINE",
"-10 622 LINE",
"-10 551 LINE",
"76 551 LINE",
"76 273 LINE",
"140 228 LINE",
"158 244 OFFCURVE",
"188 247 OFFCURVE",
"214 247 CURVE SMOOTH",
"259 247 OFFCURVE",
"319 225 OFFCURVE",
"319 158 CURVE SMOOTH",
"319 110 OFFCURVE",
"289 56 OFFCURVE",
"223 56 CURVE SMOOTH",
"163 56 OFFCURVE",
"108 102 OFFCURVE",
"83 142 CURVE",
"21 105 LINE",
"63 32 OFFCURVE",
"130 -15 OFFCURVE",
"220 -15 CURVE SMOOTH"
);
},
{
closed = 1;
nodes = (
"465 71 OFFCURVE",
"428 90 OFFCURVE",
"399 126 CURVE",
"401 137 OFFCURVE",
"402 148 OFFCURVE",
"402 161 CURVE SMOOTH",
"402 167 OFFCURVE",
"402 173 OFFCURVE",
"401 178 CURVE",
"428 205 OFFCURVE",
"461 220 OFFCURVE",
"497 220 CURVE SMOOTH",
"561 220 OFFCURVE",
"575 182 OFFCURVE",
"575 149 CURVE SMOOTH",
"575 99 OFFCURVE",
"540 71 OFFCURVE",
"507 71 CURVE SMOOTH"
);
},
{
closed = 1;
nodes = (
"342 292 OFFCURVE",
"286 320 OFFCURVE",
"228 320 CURVE SMOOTH",
"191 320 OFFCURVE",
"160 313 OFFCURVE",
"136 302 CURVE",
"153 277 LINE",
"153 383 LINE",
"506 383 LINE SMOOTH",
"541 383 OFFCURVE",
"571 366 OFFCURVE",
"571 330 CURVE SMOOTH",
"571 312 OFFCURVE",
"563 295 OFFCURVE",
"545 282 CURVE",
"530 286 OFFCURVE",
"513 288 OFFCURVE",
"495 288 CURVE SMOOTH",
"445 288 OFFCURVE",
"408 271 OFFCURVE",
"378 245 CURVE"
);
}
);
width = 690;
}
);
category = Letter;
},
{
glyphname = NyaCa;
lastChange = "2019-04-04 16:13:12 +0000";
layers = (
{
layerId = UUID0;
paths = (
{
closed = 1;
nodes = (
"470 0 LINE",
"470 102 LINE",
"496 89 OFFCURVE",
"528 82 OFFCURVE",
"561 82 CURVE SMOOTH",
"682 82 OFFCURVE",
"718 170 OFFCURVE",
"718 237 CURVE SMOOTH",
"718 287 OFFCURVE",
"690 333 OFFCURVE",
"649 356 CURVE",
"694 386 OFFCURVE",
"708 428 OFFCURVE",
"708 473 CURVE SMOOTH",
"708 512 OFFCURVE",
"690 545 OFFCURVE",
"652 566 CURVE",
"646 551 LINE",
"751 551 LINE",
"751 622 LINE",
"393 622 LINE",
"393 193 LINE SMOOTH",
"393 149 OFFCURVE",
"393 113 OFFCURVE",
"397 76 CURVE",
"411 73 LINE",
"331 153 OFFCURVE",
"250 208 OFFCURVE",
"117 252 CURVE",
"106 236 LINE",
"296 263 OFFCURVE",
"334 364 OFFCURVE",
"334 445 CURVE SMOOTH",
"334 561 OFFCURVE",
"269 605 OFFCURVE",
"186 605 CURVE SMOOTH",
"101 605 OFFCURVE",
"48 562 OFFCURVE",
"48 495 CURVE SMOOTH",
"48 484 OFFCURVE",
"53 455 OFFCURVE",
"63 440 CURVE",
"134 454 LINE",
"128 466 OFFCURVE",
"126 480 OFFCURVE",
"126 489 CURVE SMOOTH",
"126 515 OFFCURVE",
"143 539 OFFCURVE",
"186 539 CURVE SMOOTH",
"231 539 OFFCURVE",
"259 509 OFFCURVE",
"259 452 CURVE SMOOTH",
"259 358 OFFCURVE",
"206 293 OFFCURVE",
"20 288 CURVE",
"37 212 LINE",
"162 172 OFFCURVE",
"282 102 OFFCURVE",
"393 0 CURVE"
);
},
{
closed = 1;
nodes = (
"535 150 OFFCURVE",
"498 158 OFFCURVE",
"470 175 CURVE",
"470 551 LINE",
"568 551 LINE",
"619 537 OFFCURVE",
"633 502 OFFCURVE",
"633 475 CURVE SMOOTH",
"633 418 OFFCURVE",
"602 386 OFFCURVE",
"508 385 CURVE",
"508 324 LINE",
"524 324 OFFCURVE",
"547 325 OFFCURVE",
"553 326 CURVE",
"620 309 OFFCURVE",
"642 269 OFFCURVE",
"642 235 CURVE SMOOTH",
"642 169 OFFCURVE",
"599 150 OFFCURVE",
"563 150 CURVE SMOOTH"
);
}
);
width = 741;
}
);
category = Letter;
},
{
glyphname = NyaCha;
lastChange = "2019-04-04 16:13:12 +0000";
layers = (
{
layerId = UUID0;
paths = (
{
closed = 1;
nodes = (
"506 -102 OFFCURVE",
"571 -52 OFFCURVE",
"571 33 CURVE SMOOTH",
"571 102 OFFCURVE",
"522 144 OFFCURVE",
"420 160 CURVE",
"420 195 LINE",
"442 186 OFFCURVE",
"468 181 OFFCURVE",
"495 181 CURVE SMOOTH",
"601 181 OFFCURVE",
"638 253 OFFCURVE",
"638 308 CURVE SMOOTH",
"638 347 OFFCURVE",
"612 384 OFFCURVE",
"575 403 CURVE",
"615 429 OFFCURVE",
"629 468 OFFCURVE",
"629 506 CURVE SMOOTH",
"629 523 OFFCURVE",
"624 538 OFFCURVE",
"615 551 CURVE",
"677 551 LINE",
"677 622 LINE",
"343 622 LINE",
"343 272 LINE SMOOTH",
"343 234 OFFCURVE",
"343 205 OFFCURVE",
"345 172 CURVE",
"361 179 LINE",
"291 236 OFFCURVE",
"226 281 OFFCURVE",
"115 316 CURVE",
"104 299 LINE",
"264 325 OFFCURVE",
"296 413 OFFCURVE",
"296 477 CURVE SMOOTH",
"296 548 OFFCURVE",
"251 613 OFFCURVE",
"166 613 CURVE SMOOTH",
"91 613 OFFCURVE",
"45 573 OFFCURVE",
"45 518 CURVE SMOOTH",
"45 509 OFFCURVE",
"49 486 OFFCURVE",
"58 473 CURVE",
"129 485 LINE",
"124 495 OFFCURVE",
"122 506 OFFCURVE",
"122 513 CURVE SMOOTH",
"122 535 OFFCURVE",
"132 549 OFFCURVE",
"163 549 CURVE SMOOTH",
"194 549 OFFCURVE",
"220 523 OFFCURVE",
"220 483 CURVE SMOOTH",
"220 406 OFFCURVE",
"183 353 OFFCURVE",
"20 349 CURVE",
"35 277 LINE",
"145 244 OFFCURVE",
"250 197 OFFCURVE",
"352 107 CURVE",
"465 103 OFFCURVE",
"495 72 OFFCURVE",
"495 31 CURVE SMOOTH",
"495 -9 OFFCURVE",
"464 -29 OFFCURVE",
"410 -29 CURVE SMOOTH",
"277 -29 OFFCURVE",
"193 53 OFFCURVE",
"140 168 CURVE",
"83 134 LINE",
"152 -21 OFFCURVE",
"257 -102 OFFCURVE",
"407 -102 CURVE SMOOTH"
);
},
{
closed = 1;
nodes = (
"474 243 OFFCURVE",
"444 248 OFFCURVE",
"420 260 CURVE",
"420 551 LINE",
"529 551 LINE",
"548 537 OFFCURVE",
"553 518 OFFCURVE",
"553 502 CURVE SMOOTH",
"553 457 OFFCURVE",
"533 437 OFFCURVE",
"460 434 CURVE",
"460 374 LINE",
"474 374 OFFCURVE",
"488 375 OFFCURVE",
"500 377 CURVE",
"549 362 OFFCURVE",
"561 336 OFFCURVE",
"561 311 CURVE SMOOTH",
"561 260 OFFCURVE",
"529 243 OFFCURVE",
"497 243 CURVE SMOOTH"
);
}
);
width = 667;
}
);
category = Letter;
},
{
glyphname = TtaTta;
lastChange = "2019-04-04 16:13:12 +0000";
layers = (
{
layerId = UUID0;
paths = (
{
closed = 1;
nodes = (
"630 622 LINE",
"453 622 LINE",
"458 636 OFFCURVE",
"461 650 OFFCURVE",
"461 664 CURVE SMOOTH",
"461 756 OFFCURVE",
"352 777 OFFCURVE",
"268 788 CURVE SMOOTH",
"196 797 OFFCURVE",
"128 814 OFFCURVE",
"115 866 CURVE",
"39 873 LINE",
"50 772 OFFCURVE",
"155 743 OFFCURVE",
"246 725 CURVE SMOOTH",
"297 715 OFFCURVE",
"383 711 OFFCURVE",
"383 663 CURVE SMOOTH",
"383 630 OFFCURVE",
"362 600 OFFCURVE",
"315 594 CURVE",
"300 643 OFFCURVE",
"257 682 OFFCURVE",
"178 682 CURVE SMOOTH",
"88 682 OFFCURVE",
"45 620 OFFCURVE",
"45 561 CURVE SMOOTH",
"45 525 OFFCURVE",
"57 499 OFFCURVE",
"85 476 CURVE",
"135 524 LINE",
"125 535 OFFCURVE",
"121 548 OFFCURVE",
"121 565 CURVE SMOOTH",
"121 589 OFFCURVE",
"138 612 OFFCURVE",
"179 612 CURVE SMOOTH",
"229 612 OFFCURVE",
"242 580 OFFCURVE",
"242 552 CURVE SMOOTH",
"242 466 OFFCURVE",
"158 432 OFFCURVE",
"77 418 CURVE",
"76 409 OFFCURVE",
"76 402 OFFCURVE",
"76 394 CURVE SMOOTH",
"76 318 OFFCURVE",
"130 256 OFFCURVE",
"225 256 CURVE SMOOTH",
"290 256 OFFCURVE",
"336 275 OFFCURVE",
"374 313 CURVE",
"360 243 OFFCURVE",
"285 205 OFFCURVE",
"212 193 CURVE",
"220 83 OFFCURVE",
"292 0 OFFCURVE",
"433 0 CURVE SMOOTH",
"504 0 OFFCURVE",
"574 35 OFFCURVE",
"627 94 CURVE",
"579 148 LINE",
"541 105 OFFCURVE",
"490 76 OFFCURVE",
"424 76 CURVE SMOOTH",
"364 76 OFFCURVE",
"318 101 OFFCURVE",
"297 144 CURVE",
"339 156 OFFCURVE",
"373 180 OFFCURVE",
"398 209 CURVE",
"423 194 OFFCURVE",
"451 189 OFFCURVE",
"476 189 CURVE SMOOTH",
"563 189 OFFCURVE",
"616 231 OFFCURVE",
"616 317 CURVE SMOOTH",
"616 386 OFFCURVE",
"545 435 OFFCURVE",
"509 490 CURVE",
"434 490 LINE",
"468 414 OFFCURVE",
"542 363 OFFCURVE",
"542 315 CURVE SMOOTH",
"542 268 OFFCURVE",
"505 260 OFFCURVE",
"477 260 CURVE SMOOTH",
"464 260 OFFCURVE",
"449 262 OFFCURVE",
"433 269 CURVE",
"441 291 OFFCURVE",
"446 313 OFFCURVE",
"446 335 CURVE SMOOTH",
"446 357 OFFCURVE",
"443 380 OFFCURVE",
"434 401 CURVE",
"371 419 LINE",
"340 358 OFFCURVE",
"301 324 OFFCURVE",
"233 324 CURVE SMOOTH",
"184 324 OFFCURVE",
"162 348 OFFCURVE",
"153 379 CURVE",
"246 396 OFFCURVE",
"311 462 OFFCURVE",
"320 534 CURVE",
"348 535 OFFCURVE",
"371 541 OFFCURVE",
"390 551 CURVE",
"630 551 LINE"
);
}
);
width = 620;
}
);
category = Letter;
},
{
glyphname = TtaTtha;
lastChange = "2019-04-04 16:13:12 +0000";
layers = (
{
layerId = UUID0;
paths = (
{
closed = 1;
nodes = (
"437 0 OFFCURVE",
"497 61 OFFCURVE",
"497 145 CURVE SMOOTH",
"497 202 OFFCURVE",
"482 248 OFFCURVE",
"409 321 CURVE",
"430 343 OFFCURVE",
"448 369 OFFCURVE",
"464 401 CURVE",
"401 419 LINE",
"370 358 OFFCURVE",
"321 324 OFFCURVE",
"253 324 CURVE SMOOTH",
"204 324 OFFCURVE",
"162 348 OFFCURVE",
"153 379 CURVE",
"246 396 OFFCURVE",
"311 462 OFFCURVE",
"320 534 CURVE",
"348 535 OFFCURVE",
"371 541 OFFCURVE",
"390 551 CURVE",
"552 551 LINE",
"552 622 LINE",
"453 622 LINE",
"458 636 OFFCURVE",
"461 650 OFFCURVE",
"461 664 CURVE SMOOTH",
"461 756 OFFCURVE",
"362 781 OFFCURVE",
"268 788 CURVE SMOOTH",
"196 793 OFFCURVE",
"128 814 OFFCURVE",
"115 866 CURVE",
"39 873 LINE",
"50 772 OFFCURVE",
"155 734 OFFCURVE",
"246 725 CURVE SMOOTH",
"326 717 OFFCURVE",
"383 711 OFFCURVE",
"383 663 CURVE SMOOTH",
"383 630 OFFCURVE",
"362 600 OFFCURVE",
"315 594 CURVE",
"300 643 OFFCURVE",
"257 682 OFFCURVE",
"178 682 CURVE SMOOTH",
"88 682 OFFCURVE",
"45 620 OFFCURVE",
"45 561 CURVE SMOOTH",
"45 525 OFFCURVE",
"57 499 OFFCURVE",
"85 476 CURVE",
"135 524 LINE",
"125 535 OFFCURVE",
"121 548 OFFCURVE",
"121 565 CURVE SMOOTH",
"121 589 OFFCURVE",
"138 612 OFFCURVE",
"179 612 CURVE SMOOTH",
"229 612 OFFCURVE",
"242 580 OFFCURVE",
"242 552 CURVE SMOOTH",
"242 466 OFFCURVE",
"158 432 OFFCURVE",
"77 418 CURVE",
"76 409 OFFCURVE",
"76 402 OFFCURVE",
"76 394 CURVE SMOOTH",
"78 318 OFFCURVE",
"150 256 OFFCURVE",
"245 256 CURVE SMOOTH",
"267 256 OFFCURVE",
"288 258 OFFCURVE",
"307 263 CURVE",
"306 202 OFFCURVE",
"283 158 OFFCURVE",
"179 149 CURVE",
"164 99 LINE",
"188 40 OFFCURVE",
"257 0 OFFCURVE",
"330 0 CURVE SMOOTH"
);
},
{
closed = 1;
nodes = (
"301 68 OFFCURVE",
"267 77 OFFCURVE",
"250 102 CURVE",
"349 127 OFFCURVE",
"374 176 OFFCURVE",
"374 238 CURVE SMOOTH",
"374 248 OFFCURVE",
"373 259 OFFCURVE",
"371 271 CURVE",
"403 241 OFFCURVE",
"421 196 OFFCURVE",
"421 156 CURVE SMOOTH",
"421 108 OFFCURVE",
"395 68 OFFCURVE",
"336 68 CURVE SMOOTH"
);
}
);
width = 542;
}
);
category = Letter;
},
{
glyphname = NnaTta;
lastChange = "2019-04-04 16:13:12 +0000";
layers = (
{
layerId = UUID0;
paths = (
{
closed = 1;
nodes = (
"550 0 OFFCURVE",
"650 37 OFFCURVE",
"693 153 CURVE",
"627 184 LINE",
"604 136 OFFCURVE",
"566 76 OFFCURVE",
"470 76 CURVE SMOOTH",
"403 76 OFFCURVE",
"326 97 OFFCURVE",
"318 182 CURVE",
"301 158 LINE",
"443 184 OFFCURVE",
"560 283 OFFCURVE",
"560 454 CURVE SMOOTH",
"560 489 OFFCURVE",
"553 521 OFFCURVE",
"538 547 CURVE",
"546 551 LINE",
"708 551 LINE",
"708 622 LINE",
"609 622 LINE",
"614 636 OFFCURVE",
"617 650 OFFCURVE",
"617 664 CURVE SMOOTH",
"617 756 OFFCURVE",
"515 782 OFFCURVE",
"431 796 CURVE SMOOTH",
"360 808 OFFCURVE",
"291 822 OFFCURVE",
"278 880 CURVE",
"202 887 LINE",
"212 794 OFFCURVE",
"299 749 OFFCURVE",
"409 733 CURVE SMOOTH",
"506 719 OFFCURVE",
"539 690 OFFCURVE",
"539 652 CURVE SMOOTH",
"539 632 OFFCURVE",
"522 605 OFFCURVE",
"484 596 CURVE",
"463 605 OFFCURVE",
"436 611 OFFCURVE",
"404 611 CURVE SMOOTH",
"366 611 OFFCURVE",
"321 590 OFFCURVE",
"300 555 CURVE",
"275 590 OFFCURVE",
"236 611 OFFCURVE",
"186 611 CURVE SMOOTH",
"111 611 OFFCURVE",
"40 553 OFFCURVE",
"40 455 CURVE SMOOTH",
"40 383 OFFCURVE",
"92 308 OFFCURVE",
"170 290 CURVE",
"208 362 LINE",
"151 383 OFFCURVE",
"122 412 OFFCURVE",
"122 466 CURVE SMOOTH",
"122 503 OFFCURVE",
"144 538 OFFCURVE",
"191 538 CURVE SMOOTH",
"243 538 OFFCURVE",
"265 496 OFFCURVE",
"272 447 CURVE",
"328 434 LINE",
"328 503 OFFCURVE",
"349 538 OFFCURVE",
"396 538 CURVE SMOOTH",
"458 538 OFFCURVE",
"477 499 OFFCURVE",
"477 451 CURVE SMOOTH",
"477 305 OFFCURVE",
"370 233 OFFCURVE",
"228 205 CURVE",
"248 69 OFFCURVE",
"338 0 OFFCURVE",
"479 0 CURVE SMOOTH"
);
}
);
width = 698;
}
);
category = Letter;
},
{
glyphname = NnaTtha;
lastChange = "2019-04-04 16:13:12 +0000";
layers = (
{
layerId = UUID0;
paths = (
{
closed = 1;
nodes = (
"575 0 OFFCURVE",
"651 102 OFFCURVE",
"651 214 CURVE SMOOTH",
"651 284 OFFCURVE",
"624 358 OFFCURVE",
"572 413 CURVE",
"572 551 LINE",
"711 551 LINE",
"711 622 LINE",
"570 622 LINE",
"548 688 LINE",
"495 688 LINE",
"495 581 LINE",
"477 597 OFFCURVE",
"448 611 OFFCURVE",
"404 611 CURVE SMOOTH",
"366 611 OFFCURVE",
"321 590 OFFCURVE",
"300 555 CURVE",
"275 590 OFFCURVE",
"236 611 OFFCURVE",
"186 611 CURVE SMOOTH",
"111 611 OFFCURVE",
"40 553 OFFCURVE",
"40 455 CURVE SMOOTH",
"40 383 OFFCURVE",
"92 308 OFFCURVE",
"170 290 CURVE",
"208 362 LINE",
"151 383 OFFCURVE",
"122 412 OFFCURVE",
"122 466 CURVE SMOOTH",
"122 503 OFFCURVE",
"144 538 OFFCURVE",
"191 538 CURVE SMOOTH",
"243 538 OFFCURVE",
"265 496 OFFCURVE",
"272 447 CURVE",
"328 434 LINE",
"328 503 OFFCURVE",
"349 538 OFFCURVE",
"396 538 CURVE SMOOTH",
"458 538 OFFCURVE",
"477 499 OFFCURVE",
"477 451 CURVE SMOOTH",
"477 318 OFFCURVE",
"337 233 OFFCURVE",
"195 222 CURVE",
"172 151 LINE",
"211 62 OFFCURVE",
"292 0 OFFCURVE",
"411 0 CURVE SMOOTH"
);
},
{
closed = 1;
nodes = (
"354 76 OFFCURVE",
"276 100 OFFCURVE",
"252 181 CURVE",
"231 155 LINE",
"404 184 OFFCURVE",
"494 269 OFFCURVE",
"535 350 CURVE",
"512 359 LINE",
"548 319 OFFCURVE",
"569 262 OFFCURVE",
"569 214 CURVE SMOOTH",
"569 141 OFFCURVE",
"523 76 OFFCURVE",
"422 76 CURVE SMOOTH"
);
}
);
width = 701;
}
);
category = Letter;
},
{
glyphname = NnaDda;
lastChange = "2019-04-04 16:13:12 +0000";
layers = (
{
layerId = UUID0;
paths = (
{
closed = 1;
nodes = (
"571 24 OFFCURVE",
"656 125 OFFCURVE",
"656 230 CURVE SMOOTH",
"656 288 OFFCURVE",
"631 329 OFFCURVE",
"571 357 CURVE",
"602 393 OFFCURVE",
"618 441 OFFCURVE",
"618 487 CURVE SMOOTH",
"618 551 LINE",
"712 551 LINE",
"712 622 LINE",
"614 622 LINE",
"589 739 OFFCURVE",
"474 825 OFFCURVE",
"333 825 CURVE SMOOTH",
"251 825 OFFCURVE",
"179 801 OFFCURVE",
"106 758 CURVE",
"142 700 LINE",
"202 735 OFFCURVE",
"258 752 OFFCURVE",
"321 752 CURVE SMOOTH",
"420 752 OFFCURVE",
"519 711 OFFCURVE",
"538 605 CURVE",
"525 609 OFFCURVE",
"511 611 OFFCURVE",
"495 611 CURVE SMOOTH",
"455 611 OFFCURVE",
"421 590 OFFCURVE",
"400 555 CURVE",
"375 590 OFFCURVE",
"339 611 OFFCURVE",
"289 611 CURVE SMOOTH",
"214 611 OFFCURVE",
"167 562 OFFCURVE",
"167 488 CURVE SMOOTH",
"167 441 OFFCURVE",
"203 381 OFFCURVE",
"263 366 CURVE",
"298 426 LINE",
"263 435 OFFCURVE",
"247 467 OFFCURVE",
"247 491 CURVE SMOOTH",
"247 515 OFFCURVE",
"264 538 OFFCURVE",
"294 538 CURVE SMOOTH",
"346 538 OFFCURVE",
"365 496 OFFCURVE",
"372 447 CURVE",
"428 434 LINE",
"428 503 OFFCURVE",
"445 538 OFFCURVE",
"485 538 CURVE SMOOTH",
"515 538 OFFCURVE",
"538 513 OFFCURVE",
"538 480 CURVE SMOOTH",
"538 439 OFFCURVE",
"530 383 OFFCURVE",
"450 364 CURVE",
"450 298 LINE",
"467 299 OFFCURVE",
"484 302 OFFCURVE",
"499 307 CURVE",
"537 304 OFFCURVE",
"581 281 OFFCURVE",
"581 227 CURVE SMOOTH",
"581 159 OFFCURVE",
"519 100 OFFCURVE",
"413 100 CURVE SMOOTH",
"257 100 OFFCURVE",
"168 216 OFFCURVE",
"104 485 CURVE",
"29 465 LINE",
"106 147 OFFCURVE",
"231 24 OFFCURVE",
"417 24 CURVE SMOOTH"
);
}
);
width = 702;
}
);
category = Letter;
},
{
glyphname = NnaDdha;
lastChange = "2019-04-04 16:13:12 +0000";
layers = (
{
layerId = UUID0;
paths = (
{
closed = 1;
nodes = (
"539 0 OFFCURVE",
"619 64 OFFCURVE",
"642 146 CURVE",
"570 170 LINE",
"555 116 OFFCURVE",
"503 76 OFFCURVE",
"422 76 CURVE SMOOTH",
"361 76 OFFCURVE",
"292 95 OFFCURVE",
"261 157 CURVE",
"485 212 OFFCURVE",
"560 356 OFFCURVE",
"560 451 CURVE SMOOTH",
"560 551 LINE",
"669 551 LINE",
"669 622 LINE",
"558 622 LINE",
"536 688 LINE",
"483 688 LINE",
"483 596 LINE",
"462 605 OFFCURVE",
"436 611 OFFCURVE",
"404 611 CURVE SMOOTH",
"366 611 OFFCURVE",
"321 590 OFFCURVE",
"300 555 CURVE",
"275 590 OFFCURVE",
"236 611 OFFCURVE",
"186 611 CURVE SMOOTH",
"111 611 OFFCURVE",
"40 553 OFFCURVE",
"40 455 CURVE SMOOTH",
"40 383 OFFCURVE",
"92 308 OFFCURVE",
"170 290 CURVE",
"208 362 LINE",
"151 383 OFFCURVE",
"122 412 OFFCURVE",
"122 466 CURVE SMOOTH",
"122 503 OFFCURVE",
"144 538 OFFCURVE",
"191 538 CURVE SMOOTH",
"243 538 OFFCURVE",
"265 496 OFFCURVE",
"272 447 CURVE",
"328 434 LINE",
"328 503 OFFCURVE",
"349 538 OFFCURVE",
"396 538 CURVE SMOOTH",
"458 538 OFFCURVE",
"477 499 OFFCURVE",
"477 451 CURVE SMOOTH",
"477 318 OFFCURVE",
"337 233 OFFCURVE",
"195 222 CURVE",
"172 151 LINE",
"211 62 OFFCURVE",
"301 0 OFFCURVE",
"420 0 CURVE SMOOTH"
);
}
);
width = 659;
}
);
category = Letter;
},
